<?xml version="1.0" encoding="utf-8"?>
<svg xmlns="http://www.w3.org/2000/svg" xmlns:xlink="http://www.w3.org/1999/xlink" width="600" height="400" viewBox="0 0 2400 1600">
<defs>
  <clipPath id="clip680">
    <rect x="0" y="0" width="2400" height="1600"/>
  </clipPath>
</defs>
<path clip-path="url(#clip680)" d="M0 1600 L2400 1600 L2400 0 L0 0  Z" fill="#ffffff" fill-rule="evenodd" fill-opacity="1"/>
<defs>
  <clipPath id="clip681">
    <rect x="480" y="0" width="1681" height="1600"/>
  </clipPath>
</defs>
<path clip-path="url(#clip680)" d="M234.125 1410.9 L2352.76 1410.9 L2352.76 47.2441 L234.125 47.2441  Z" fill="#ffffff" fill-rule="evenodd" fill-opacity="1"/>
<defs>
  <clipPath id="clip682">
    <rect x="234" y="47" width="2120" height="1365"/>
  </clipPath>
</defs>
<polyline clip-path="url(#clip682)" style="stroke:#000000; stroke-linecap:round; stroke-linejoin:round; stroke-width:2; stroke-opacity:0.1; fill:none" points="816.463,1410.9 816.463,47.2441 "/>
<polyline clip-path="url(#clip682)" style="stroke:#000000; stroke-linecap:round; stroke-linejoin:round; stroke-width:2; stroke-opacity:0.1; fill:none" points="1864.82,1410.9 1864.82,47.2441 "/>
<polyline clip-path="url(#clip680)" style="stroke:#000000; stroke-linecap:round; stroke-linejoin:round; stroke-width:4; stroke-opacity:1; fill:none" points="234.125,1410.9 2352.76,1410.9 "/>
<polyline clip-path="url(#clip680)" style="stroke:#000000; stroke-linecap:round; stroke-linejoin:round; stroke-width:4; stroke-opacity:1; fill:none" points="234.125,47.2441 2352.76,47.2441 "/>
<polyline clip-path="url(#clip680)" style="stroke:#000000; stroke-linecap:round; stroke-linejoin:round; stroke-width:4; stroke-opacity:1; fill:none" points="816.463,1410.9 816.463,1392 "/>
<polyline clip-path="url(#clip680)" style="stroke:#000000; stroke-linecap:round; stroke-linejoin:round; stroke-width:4; stroke-opacity:1; fill:none" points="1864.82,1410.9 1864.82,1392 "/>
<path clip-path="url(#clip680)" d="M781.907 1485.02 L789.546 1485.02 L789.546 1458.66 L781.235 1460.32 L781.235 1456.06 L789.499 1454.4 L794.175 1454.4 L794.175 1485.02 L801.814 1485.02 L801.814 1488.96 L781.907 1488.96 L781.907 1485.02 Z" fill="#000000" fill-rule="nonzero" fill-opacity="1" /><path clip-path="url(#clip680)" d="M821.258 1457.48 Q817.647 1457.48 815.819 1461.04 Q814.013 1464.58 814.013 1471.71 Q814.013 1478.82 815.819 1482.38 Q817.647 1485.92 821.258 1485.92 Q824.893 1485.92 826.698 1482.38 Q828.527 1478.82 828.527 1471.71 Q828.527 1464.58 826.698 1461.04 Q824.893 1457.48 821.258 1457.48 M821.258 1453.77 Q827.069 1453.77 830.124 1458.38 Q833.203 1462.96 833.203 1471.71 Q833.203 1480.44 830.124 1485.04 Q827.069 1489.63 821.258 1489.63 Q815.448 1489.63 812.37 1485.04 Q809.314 1480.44 809.314 1471.71 Q809.314 1462.96 812.37 1458.38 Q815.448 1453.77 821.258 1453.77 Z" fill="#000000" fill-rule="nonzero" fill-opacity="1" /><path clip-path="url(#clip680)" d="M845.898 1446.41 Q848.625 1446.99 850.149 1448.83 Q851.691 1450.68 851.691 1453.38 Q851.691 1457.54 848.832 1459.82 Q845.973 1462.09 840.707 1462.09 Q838.939 1462.09 837.058 1461.73 Q835.196 1461.4 833.203 1460.7 L833.203 1457.03 Q834.783 1457.95 836.663 1458.42 Q838.544 1458.89 840.594 1458.89 Q844.168 1458.89 846.03 1457.48 Q847.91 1456.07 847.91 1453.38 Q847.91 1450.9 846.161 1449.51 Q844.431 1448.1 841.328 1448.1 L838.055 1448.1 L838.055 1444.98 L841.478 1444.98 Q844.281 1444.98 845.766 1443.87 Q847.252 1442.74 847.252 1440.63 Q847.252 1438.47 845.71 1437.32 Q844.187 1436.16 841.328 1436.16 Q839.767 1436.16 837.98 1436.49 Q836.193 1436.83 834.049 1437.55 L834.049 1434.16 Q836.212 1433.56 838.093 1433.26 Q839.992 1432.96 841.666 1432.96 Q845.992 1432.96 848.512 1434.93 Q851.033 1436.89 851.033 1440.24 Q851.033 1442.57 849.697 1444.19 Q848.362 1445.79 845.898 1446.41 Z" fill="#000000" fill-rule="nonzero" fill-opacity="1" /><path clip-path="url(#clip680)" d="M1829.81 1485.02 L1837.45 1485.02 L1837.45 1458.66 L1829.14 1460.32 L1829.14 1456.06 L1837.4 1454.4 L1842.08 1454.4 L1842.08 1485.02 L1849.71 1485.02 L1849.71 1488.96 L1829.81 1488.96 L1829.81 1485.02 Z" fill="#000000" fill-rule="nonzero" fill-opacity="1" /><path clip-path="url(#clip680)" d="M1869.16 1457.48 Q1865.55 1457.48 1863.72 1461.04 Q1861.91 1464.58 1861.91 1471.71 Q1861.91 1478.82 1863.72 1482.38 Q1865.55 1485.92 1869.16 1485.92 Q1872.79 1485.92 1874.6 1482.38 Q1876.43 1478.82 1876.43 1471.71 Q1876.43 1464.58 1874.6 1461.04 Q1872.79 1457.48 1869.16 1457.48 M1869.16 1453.77 Q1874.97 1453.77 1878.02 1458.38 Q1881.1 1462.96 1881.1 1471.71 Q1881.1 1480.44 1878.02 1485.04 Q1874.97 1489.63 1869.16 1489.63 Q1863.35 1489.63 1860.27 1485.04 Q1857.21 1480.44 1857.21 1471.71 Q1857.21 1462.96 1860.27 1458.38 Q1863.35 1453.77 1869.16 1453.77 Z" fill="#000000" fill-rule="nonzero" fill-opacity="1" /><path clip-path="url(#clip680)" d="M1891.13 1445.99 Q1888.57 1445.99 1887.07 1447.74 Q1885.58 1449.49 1885.58 1452.54 Q1885.58 1455.57 1887.07 1457.33 Q1888.57 1459.08 1891.13 1459.08 Q1893.69 1459.08 1895.17 1457.33 Q1896.68 1455.57 1896.68 1452.54 Q1896.68 1449.49 1895.17 1447.74 Q1893.69 1445.99 1891.13 1445.99 M1898.67 1434.09 L1898.67 1437.55 Q1897.24 1436.87 1895.77 1436.51 Q1894.33 1436.16 1892.9 1436.16 Q1889.13 1436.16 1887.14 1438.69 Q1885.17 1441.23 1884.88 1446.37 Q1885.99 1444.73 1887.67 1443.87 Q1889.34 1442.98 1891.35 1442.98 Q1895.59 1442.98 1898.03 1445.56 Q1900.49 1448.12 1900.49 1452.54 Q1900.49 1456.86 1897.94 1459.48 Q1895.38 1462.09 1891.13 1462.09 Q1886.26 1462.09 1883.68 1458.37 Q1881.1 1454.62 1881.1 1447.53 Q1881.1 1440.88 1884.26 1436.93 Q1887.42 1432.96 1892.75 1432.96 Q1894.18 1432.96 1895.62 1433.24 Q1897.09 1433.52 1898.67 1434.09 Z" fill="#000000" fill-rule="nonzero" fill-opacity="1" /><path clip-path="url(#clip680)" d="M1089.23 1538.54 L1095.44 1538.54 L1106.58 1568.46 L1117.72 1538.54 L1123.92 1538.54 L1110.55 1574.19 L1102.6 1574.19 L1089.23 1538.54 Z" fill="#000000" fill-rule="nonzero" fill-opacity="1" /><path clip-path="url(#clip680)" d="M1162.5 1554.9 L1162.5 1557.76 L1135.57 1557.76 Q1135.95 1563.81 1139.2 1566.99 Q1142.48 1570.14 1148.3 1570.14 Q1151.68 1570.14 1154.83 1569.32 Q1158.01 1568.49 1161.13 1566.83 L1161.13 1572.37 Q1157.98 1573.71 1154.67 1574.41 Q1151.36 1575.11 1147.95 1575.11 Q1139.42 1575.11 1134.43 1570.14 Q1129.46 1565.18 1129.46 1556.71 Q1129.46 1547.96 1134.17 1542.83 Q1138.91 1537.68 1146.93 1537.68 Q1154.13 1537.68 1158.3 1542.33 Q1162.5 1546.94 1162.5 1554.9 M1156.64 1553.18 Q1156.58 1548.37 1153.94 1545.51 Q1151.33 1542.64 1147 1542.64 Q1142.1 1542.64 1139.14 1545.41 Q1136.21 1548.18 1135.76 1553.21 L1156.64 1553.18 Z" fill="#000000" fill-rule="nonzero" fill-opacity="1" /><path clip-path="url(#clip680)" d="M1197.76 1539.91 L1197.76 1545.38 Q1195.28 1544.01 1192.77 1543.34 Q1190.28 1542.64 1187.74 1542.64 Q1182.04 1542.64 1178.89 1546.27 Q1175.74 1549.87 1175.74 1556.39 Q1175.74 1562.92 1178.89 1566.55 Q1182.04 1570.14 1187.74 1570.14 Q1190.28 1570.14 1192.77 1569.47 Q1195.28 1568.77 1197.76 1567.41 L1197.76 1572.82 Q1195.31 1573.96 1192.67 1574.54 Q1190.06 1575.11 1187.1 1575.11 Q1179.05 1575.11 1174.31 1570.05 Q1169.56 1564.99 1169.56 1556.39 Q1169.56 1547.67 1174.34 1542.68 Q1179.14 1537.68 1187.48 1537.68 Q1190.19 1537.68 1192.77 1538.25 Q1195.35 1538.79 1197.76 1539.91 Z" fill="#000000" fill-rule="nonzero" fill-opacity="1" /><path clip-path="url(#clip680)" d="M1213.74 1528.42 L1213.74 1538.54 L1225.81 1538.54 L1225.81 1543.09 L1213.74 1543.09 L1213.74 1562.44 Q1213.74 1566.8 1214.92 1568.04 Q1216.13 1569.28 1219.79 1569.28 L1225.81 1569.28 L1225.81 1574.19 L1219.79 1574.19 Q1213.01 1574.19 1210.43 1571.67 Q1207.85 1569.12 1207.85 1562.44 L1207.85 1543.09 L1203.56 1543.09 L1203.56 1538.54 L1207.85 1538.54 L1207.85 1528.42 L1213.74 1528.42 Z" fill="#000000" fill-rule="nonzero" fill-opacity="1" /><path clip-path="url(#clip680)" d="M1247.32 1542.64 Q1242.61 1542.64 1239.87 1546.34 Q1237.14 1550 1237.14 1556.39 Q1237.14 1562.79 1239.84 1566.48 Q1242.58 1570.14 1247.32 1570.14 Q1252 1570.14 1254.74 1566.45 Q1257.47 1562.76 1257.47 1556.39 Q1257.47 1550.06 1254.74 1546.37 Q1252 1542.64 1247.32 1542.64 M1247.32 1537.68 Q1254.96 1537.68 1259.32 1542.64 Q1263.68 1547.61 1263.68 1556.39 Q1263.68 1565.15 1259.32 1570.14 Q1254.96 1575.11 1247.32 1575.11 Q1239.65 1575.11 1235.29 1570.14 Q1230.96 1565.15 1230.96 1556.39 Q1230.96 1547.61 1235.29 1542.64 Q1239.65 1537.68 1247.32 1537.68 Z" fill="#000000" fill-rule="nonzero" fill-opacity="1" /><path clip-path="url(#clip680)" d="M1294.05 1544.01 Q1293.06 1543.44 1291.88 1543.18 Q1290.74 1542.9 1289.33 1542.9 Q1284.37 1542.9 1281.7 1546.14 Q1279.05 1549.36 1279.05 1555.41 L1279.05 1574.19 L1273.17 1574.19 L1273.17 1538.54 L1279.05 1538.54 L1279.05 1544.08 Q1280.9 1540.83 1283.86 1539.27 Q1286.82 1537.68 1291.05 1537.68 Q1291.66 1537.68 1292.39 1537.77 Q1293.12 1537.84 1294.01 1538 L1294.05 1544.01 Z" fill="#000000" fill-rule="nonzero" fill-opacity="1" /><path clip-path="url(#clip680)" d="M1343.63 1539.59 L1343.63 1545.13 Q1341.15 1543.85 1338.48 1543.22 Q1335.8 1542.58 1332.94 1542.58 Q1328.58 1542.58 1326.38 1543.92 Q1324.22 1545.25 1324.22 1547.93 Q1324.22 1549.96 1325.78 1551.14 Q1327.34 1552.29 1332.05 1553.34 L1334.05 1553.78 Q1340.29 1555.12 1342.9 1557.57 Q1345.54 1559.99 1345.54 1564.35 Q1345.54 1569.32 1341.6 1572.21 Q1337.68 1575.11 1330.81 1575.11 Q1327.94 1575.11 1324.82 1574.54 Q1321.74 1573.99 1318.3 1572.88 L1318.3 1566.83 Q1321.55 1568.52 1324.7 1569.38 Q1327.85 1570.21 1330.93 1570.21 Q1335.07 1570.21 1337.3 1568.81 Q1339.53 1567.37 1339.53 1564.8 Q1339.53 1562.41 1337.91 1561.14 Q1336.31 1559.86 1330.87 1558.68 L1328.83 1558.21 Q1323.39 1557.06 1320.97 1554.71 Q1318.55 1552.32 1318.55 1548.18 Q1318.55 1543.15 1322.12 1540.42 Q1325.68 1537.68 1332.24 1537.68 Q1335.49 1537.68 1338.35 1538.16 Q1341.22 1538.63 1343.63 1539.59 Z" fill="#000000" fill-rule="nonzero" fill-opacity="1" /><path clip-path="url(#clip680)" d="M1354.87 1538.54 L1360.73 1538.54 L1360.73 1574.19 L1354.87 1574.19 L1354.87 1538.54 M1354.87 1524.66 L1360.73 1524.66 L1360.73 1532.08 L1354.87 1532.08 L1354.87 1524.66 Z" fill="#000000" fill-rule="nonzero" fill-opacity="1" /><path clip-path="url(#clip680)" d="M1370.43 1538.54 L1398.25 1538.54 L1398.25 1543.88 L1376.23 1569.51 L1398.25 1569.51 L1398.25 1574.19 L1369.64 1574.19 L1369.64 1568.84 L1391.66 1543.22 L1370.43 1543.22 L1370.43 1538.54 Z" fill="#000000" fill-rule="nonzero" fill-opacity="1" /><path clip-path="url(#clip680)" d="M1437.69 1554.9 L1437.69 1557.76 L1410.76 1557.76 Q1411.14 1563.81 1414.39 1566.99 Q1417.67 1570.14 1423.49 1570.14 Q1426.87 1570.14 1430.02 1569.32 Q1433.2 1568.49 1436.32 1566.83 L1436.32 1572.37 Q1433.17 1573.71 1429.86 1574.41 Q1426.55 1575.11 1423.14 1575.11 Q1414.61 1575.11 1409.61 1570.14 Q1404.65 1565.18 1404.65 1556.71 Q1404.65 1547.96 1409.36 1542.83 Q1414.1 1537.68 1422.12 1537.68 Q1429.32 1537.68 1433.49 1542.33 Q1437.69 1546.94 1437.69 1554.9 M1431.83 1553.18 Q1431.77 1548.37 1429.13 1545.51 Q1426.52 1542.64 1422.19 1542.64 Q1417.29 1542.64 1414.33 1545.41 Q1411.4 1548.18 1410.95 1553.21 L1431.83 1553.18 Z" fill="#000000" fill-rule="nonzero" fill-opacity="1" /><path clip-path="url(#clip680)" d="M1497.65 1552.67 L1497.65 1574.19 L1491.8 1574.19 L1491.8 1552.86 Q1491.8 1547.8 1489.82 1545.29 Q1487.85 1542.77 1483.9 1542.77 Q1479.16 1542.77 1476.42 1545.79 Q1473.69 1548.82 1473.69 1554.04 L1473.69 1574.19 L1467.8 1574.19 L1467.8 1538.54 L1473.69 1538.54 L1473.69 1544.08 Q1475.79 1540.86 1478.62 1539.27 Q1481.48 1537.68 1485.21 1537.68 Q1491.35 1537.68 1494.5 1541.5 Q1497.65 1545.29 1497.65 1552.67 Z" fill="#000000" fill-rule="nonzero" fill-opacity="1" /><polyline clip-path="url(#clip682)" style="stroke:#000000; stroke-linecap:round; stroke-linejoin:round; stroke-width:2; stroke-opacity:0.1; fill:none" points="234.125,1237.95 2352.76,1237.95 "/>
<polyline clip-path="url(#clip682)" style="stroke:#000000; stroke-linecap:round; stroke-linejoin:round; stroke-width:2; stroke-opacity:0.1; fill:none" points="234.125,890.646 2352.76,890.646 "/>
<polyline clip-path="url(#clip682)" style="stroke:#000000; stroke-linecap:round; stroke-linejoin:round; stroke-width:2; stroke-opacity:0.1; fill:none" points="234.125,543.336 2352.76,543.336 "/>
<polyline clip-path="url(#clip682)" style="stroke:#000000; stroke-linecap:round; stroke-linejoin:round; stroke-width:2; stroke-opacity:0.1; fill:none" points="234.125,196.027 2352.76,196.027 "/>
<polyline clip-path="url(#clip680)" style="stroke:#000000; stroke-linecap:round; stroke-linejoin:round; stroke-width:4; stroke-opacity:1; fill:none" points="234.125,1410.9 234.125,47.2441 "/>
<polyline clip-path="url(#clip680)" style="stroke:#000000; stroke-linecap:round; stroke-linejoin:round; stroke-width:4; stroke-opacity:1; fill:none" points="2352.76,1410.9 2352.76,47.2441 "/>
<polyline clip-path="url(#clip680)" style="stroke:#000000; stroke-linecap:round; stroke-linejoin:round; stroke-width:4; stroke-opacity:1; fill:none" points="234.125,1237.95 253.023,1237.95 "/>
<polyline clip-path="url(#clip680)" style="stroke:#000000; stroke-linecap:round; stroke-linejoin:round; stroke-width:4; stroke-opacity:1; fill:none" points="234.125,890.646 253.023,890.646 "/>
<polyline clip-path="url(#clip680)" style="stroke:#000000; stroke-linecap:round; stroke-linejoin:round; stroke-width:4; stroke-opacity:1; fill:none" points="234.125,543.336 253.023,543.336 "/>
<polyline clip-path="url(#clip680)" style="stroke:#000000; stroke-linecap:round; stroke-linejoin:round; stroke-width:4; stroke-opacity:1; fill:none" points="234.125,196.027 253.023,196.027 "/>
<path clip-path="url(#clip680)" d="M146.066 1220.67 L164.422 1220.67 L164.422 1224.61 L150.348 1224.61 L150.348 1233.08 Q151.366 1232.74 152.385 1232.57 Q153.403 1232.39 154.422 1232.39 Q160.209 1232.39 163.589 1235.56 Q166.968 1238.73 166.968 1244.15 Q166.968 1249.73 163.496 1252.83 Q160.024 1255.91 153.704 1255.91 Q151.528 1255.91 149.26 1255.54 Q147.015 1255.17 144.607 1254.42 L144.607 1249.73 Q146.691 1250.86 148.913 1251.42 Q151.135 1251.97 153.612 1251.97 Q157.616 1251.97 159.954 1249.86 Q162.292 1247.76 162.292 1244.15 Q162.292 1240.54 159.954 1238.43 Q157.616 1236.32 153.612 1236.32 Q151.737 1236.32 149.862 1236.74 Q148.01 1237.16 146.066 1238.04 L146.066 1220.67 Z" fill="#000000" fill-rule="nonzero" fill-opacity="1" /><path clip-path="url(#clip680)" d="M186.181 1223.75 Q182.57 1223.75 180.741 1227.32 Q178.936 1230.86 178.936 1237.99 Q178.936 1245.1 180.741 1248.66 Q182.57 1252.2 186.181 1252.2 Q189.815 1252.2 191.621 1248.66 Q193.45 1245.1 193.45 1237.99 Q193.45 1230.86 191.621 1227.32 Q189.815 1223.75 186.181 1223.75 M186.181 1220.05 Q191.991 1220.05 195.047 1224.66 Q198.125 1229.24 198.125 1237.99 Q198.125 1246.72 195.047 1251.32 Q191.991 1255.91 186.181 1255.91 Q180.371 1255.91 177.292 1251.32 Q174.237 1246.72 174.237 1237.99 Q174.237 1229.24 177.292 1224.66 Q180.371 1220.05 186.181 1220.05 Z" fill="#000000" fill-rule="nonzero" fill-opacity="1" /><path clip-path="url(#clip680)" d="M116.668 903.99 L124.306 903.99 L124.306 877.625 L115.996 879.291 L115.996 875.032 L124.26 873.366 L128.936 873.366 L128.936 903.99 L136.575 903.99 L136.575 907.926 L116.668 907.926 L116.668 903.99 Z" fill="#000000" fill-rule="nonzero" fill-opacity="1" /><path clip-path="url(#clip680)" d="M156.019 876.444 Q152.408 876.444 150.579 880.009 Q148.774 883.551 148.774 890.68 Q148.774 897.787 150.579 901.352 Q152.408 904.893 156.019 904.893 Q159.653 904.893 161.459 901.352 Q163.288 897.787 163.288 890.68 Q163.288 883.551 161.459 880.009 Q159.653 876.444 156.019 876.444 M156.019 872.741 Q161.829 872.741 164.885 877.347 Q167.964 881.93 167.964 890.68 Q167.964 899.407 164.885 904.014 Q161.829 908.597 156.019 908.597 Q150.209 908.597 147.13 904.014 Q144.075 899.407 144.075 890.68 Q144.075 881.93 147.13 877.347 Q150.209 872.741 156.019 872.741 Z" fill="#000000" fill-rule="nonzero" fill-opacity="1" /><path clip-path="url(#clip680)" d="M186.181 876.444 Q182.57 876.444 180.741 880.009 Q178.936 883.551 178.936 890.68 Q178.936 897.787 180.741 901.352 Q182.57 904.893 186.181 904.893 Q189.815 904.893 191.621 901.352 Q193.45 897.787 193.45 890.68 Q193.45 883.551 191.621 880.009 Q189.815 876.444 186.181 876.444 M186.181 872.741 Q191.991 872.741 195.047 877.347 Q198.125 881.93 198.125 890.68 Q198.125 899.407 195.047 904.014 Q191.991 908.597 186.181 908.597 Q180.371 908.597 177.292 904.014 Q174.237 899.407 174.237 890.68 Q174.237 881.93 177.292 877.347 Q180.371 872.741 186.181 872.741 Z" fill="#000000" fill-rule="nonzero" fill-opacity="1" /><path clip-path="url(#clip680)" d="M116.668 556.681 L124.306 556.681 L124.306 530.315 L115.996 531.982 L115.996 527.723 L124.26 526.056 L128.936 526.056 L128.936 556.681 L136.575 556.681 L136.575 560.616 L116.668 560.616 L116.668 556.681 Z" fill="#000000" fill-rule="nonzero" fill-opacity="1" /><path clip-path="url(#clip680)" d="M146.066 526.056 L164.422 526.056 L164.422 529.991 L150.348 529.991 L150.348 538.464 Q151.366 538.116 152.385 537.954 Q153.403 537.769 154.422 537.769 Q160.209 537.769 163.589 540.94 Q166.968 544.112 166.968 549.528 Q166.968 555.107 163.496 558.209 Q160.024 561.288 153.704 561.288 Q151.528 561.288 149.26 560.917 Q147.015 560.547 144.607 559.806 L144.607 555.107 Q146.691 556.241 148.913 556.797 Q151.135 557.352 153.612 557.352 Q157.616 557.352 159.954 555.246 Q162.292 553.139 162.292 549.528 Q162.292 545.917 159.954 543.811 Q157.616 541.704 153.612 541.704 Q151.737 541.704 149.862 542.121 Q148.01 542.538 146.066 543.417 L146.066 526.056 Z" fill="#000000" fill-rule="nonzero" fill-opacity="1" /><path clip-path="url(#clip680)" d="M186.181 529.135 Q182.57 529.135 180.741 532.7 Q178.936 536.241 178.936 543.371 Q178.936 550.477 180.741 554.042 Q182.57 557.584 186.181 557.584 Q189.815 557.584 191.621 554.042 Q193.45 550.477 193.45 543.371 Q193.45 536.241 191.621 532.7 Q189.815 529.135 186.181 529.135 M186.181 525.431 Q191.991 525.431 195.047 530.038 Q198.125 534.621 198.125 543.371 Q198.125 552.098 195.047 556.704 Q191.991 561.288 186.181 561.288 Q180.371 561.288 177.292 556.704 Q174.237 552.098 174.237 543.371 Q174.237 534.621 177.292 530.038 Q180.371 525.431 186.181 525.431 Z" fill="#000000" fill-rule="nonzero" fill-opacity="1" /><path clip-path="url(#clip680)" d="M119.885 209.372 L136.204 209.372 L136.204 213.307 L114.26 213.307 L114.26 209.372 Q116.922 206.617 121.505 201.987 Q126.112 197.335 127.292 195.992 Q129.538 193.469 130.417 191.733 Q131.32 189.974 131.32 188.284 Q131.32 185.529 129.376 183.793 Q127.455 182.057 124.353 182.057 Q122.154 182.057 119.7 182.821 Q117.269 183.585 114.492 185.136 L114.492 180.414 Q117.316 179.279 119.769 178.701 Q122.223 178.122 124.26 178.122 Q129.63 178.122 132.825 180.807 Q136.019 183.492 136.019 187.983 Q136.019 190.113 135.209 192.034 Q134.422 193.932 132.316 196.525 Q131.737 197.196 128.635 200.413 Q125.533 203.608 119.885 209.372 Z" fill="#000000" fill-rule="nonzero" fill-opacity="1" /><path clip-path="url(#clip680)" d="M156.019 181.826 Q152.408 181.826 150.579 185.39 Q148.774 188.932 148.774 196.062 Q148.774 203.168 150.579 206.733 Q152.408 210.274 156.019 210.274 Q159.653 210.274 161.459 206.733 Q163.288 203.168 163.288 196.062 Q163.288 188.932 161.459 185.39 Q159.653 181.826 156.019 181.826 M156.019 178.122 Q161.829 178.122 164.885 182.728 Q167.964 187.312 167.964 196.062 Q167.964 204.788 164.885 209.395 Q161.829 213.978 156.019 213.978 Q150.209 213.978 147.13 209.395 Q144.075 204.788 144.075 196.062 Q144.075 187.312 147.13 182.728 Q150.209 178.122 156.019 178.122 Z" fill="#000000" fill-rule="nonzero" fill-opacity="1" /><path clip-path="url(#clip680)" d="M186.181 181.826 Q182.57 181.826 180.741 185.39 Q178.936 188.932 178.936 196.062 Q178.936 203.168 180.741 206.733 Q182.57 210.274 186.181 210.274 Q189.815 210.274 191.621 206.733 Q193.45 203.168 193.45 196.062 Q193.45 188.932 191.621 185.39 Q189.815 181.826 186.181 181.826 M186.181 178.122 Q191.991 178.122 195.047 182.728 Q198.125 187.312 198.125 196.062 Q198.125 204.788 195.047 209.395 Q191.991 213.978 186.181 213.978 Q180.371 213.978 177.292 209.395 Q174.237 204.788 174.237 196.062 Q174.237 187.312 177.292 182.728 Q180.371 178.122 186.181 178.122 Z" fill="#000000" fill-rule="nonzero" fill-opacity="1" /><path clip-path="url(#clip680)" d="M46.212 980.707 Q39.7508 980.707 36.0905 983.38 Q32.3984 986.022 32.3984 990.669 Q32.3984 995.316 36.0905 997.99 Q39.7508 1000.63 46.212 1000.63 Q52.6732 1000.63 56.3653 997.99 Q60.0256 995.316 60.0256 990.669 Q60.0256 986.022 56.3653 983.38 Q52.6732 980.707 46.212 980.707 M33.7671 1000.63 Q30.5842 998.785 29.0564 995.984 Q27.4968 993.152 27.4968 989.237 Q27.4968 982.744 32.6531 978.702 Q37.8093 974.628 46.212 974.628 Q54.6147 974.628 59.771 978.702 Q64.9272 982.744 64.9272 989.237 Q64.9272 993.152 63.3994 995.984 Q61.8398 998.785 58.657 1000.63 L64.0042 1000.63 L64.0042 1006.52 L14.479 1006.52 L14.479 1000.63 L33.7671 1000.63 Z" fill="#000000" fill-rule="nonzero" fill-opacity="1" /><path clip-path="url(#clip680)" d="M46.0847 948.719 Q46.0847 955.817 47.7079 958.554 Q49.3312 961.291 53.2461 961.291 Q56.3653 961.291 58.2114 959.254 Q60.0256 957.185 60.0256 953.652 Q60.0256 948.783 56.5881 945.855 Q53.1188 942.894 47.3897 942.894 L46.0847 942.894 L46.0847 948.719 M43.6657 937.038 L64.0042 937.038 L64.0042 942.894 L58.5933 942.894 Q61.8398 944.9 63.3994 947.892 Q64.9272 950.883 64.9272 955.212 Q64.9272 960.687 61.8716 963.933 Q58.7843 967.148 53.6281 967.148 Q47.6125 967.148 44.5569 963.137 Q41.5014 959.095 41.5014 951.106 L41.5014 942.894 L40.9285 942.894 Q36.8862 942.894 34.6901 945.568 Q32.4621 948.21 32.4621 953.016 Q32.4621 956.071 33.1941 958.968 Q33.9262 961.864 35.3903 964.538 L29.9795 964.538 Q28.7381 961.323 28.1334 958.299 Q27.4968 955.276 27.4968 952.411 Q27.4968 944.677 31.5072 940.857 Q35.5176 937.038 43.6657 937.038 Z" fill="#000000" fill-rule="nonzero" fill-opacity="1" /><path clip-path="url(#clip680)" d="M42.4881 895.343 L64.0042 895.343 L64.0042 901.199 L42.679 901.199 Q37.6183 901.199 35.1038 903.172 Q32.5894 905.146 32.5894 909.093 Q32.5894 913.835 35.6131 916.572 Q38.6368 919.31 43.8567 919.31 L64.0042 919.31 L64.0042 925.198 L28.3562 925.198 L28.3562 919.31 L33.8944 919.31 Q30.6797 917.209 29.0883 914.376 Q27.4968 911.512 27.4968 907.788 Q27.4968 901.645 31.3163 898.494 Q35.1038 895.343 42.4881 895.343 Z" fill="#000000" fill-rule="nonzero" fill-opacity="1" /><path clip-path="url(#clip680)" d="M33.7671 860.204 L14.479 860.204 L14.479 854.347 L64.0042 854.347 L64.0042 860.204 L58.657 860.204 Q61.8398 862.05 63.3994 864.883 Q64.9272 867.684 64.9272 871.63 Q64.9272 878.092 59.771 882.166 Q54.6147 886.208 46.212 886.208 Q37.8093 886.208 32.6531 882.166 Q27.4968 878.092 27.4968 871.63 Q27.4968 867.684 29.0564 864.883 Q30.5842 862.05 33.7671 860.204 M46.212 880.16 Q52.6732 880.16 56.3653 877.519 Q60.0256 874.845 60.0256 870.198 Q60.0256 865.551 56.3653 862.878 Q52.6732 860.204 46.212 860.204 Q39.7508 860.204 36.0905 862.878 Q32.3984 865.551 32.3984 870.198 Q32.3984 874.845 36.0905 877.519 Q39.7508 880.16 46.212 880.16 Z" fill="#000000" fill-rule="nonzero" fill-opacity="1" /><path clip-path="url(#clip680)" d="M28.3562 845.69 L28.3562 839.834 L56.1743 832.513 L28.3562 825.224 L28.3562 818.318 L56.1743 810.997 L28.3562 803.708 L28.3562 797.852 L64.0042 807.178 L64.0042 814.084 L34.7856 821.755 L64.0042 829.458 L64.0042 836.364 L28.3562 845.69 Z" fill="#000000" fill-rule="nonzero" fill-opacity="1" /><path clip-path="url(#clip680)" d="M28.3562 788.972 L28.3562 783.115 L64.0042 783.115 L64.0042 788.972 L28.3562 788.972 M14.479 788.972 L14.479 783.115 L21.895 783.115 L21.895 788.972 L14.479 788.972 Z" fill="#000000" fill-rule="nonzero" fill-opacity="1" /><path clip-path="url(#clip680)" d="M33.7671 747.404 L14.479 747.404 L14.479 741.547 L64.0042 741.547 L64.0042 747.404 L58.657 747.404 Q61.8398 749.25 63.3994 752.082 Q64.9272 754.883 64.9272 758.83 Q64.9272 765.291 59.771 769.365 Q54.6147 773.408 46.212 773.408 Q37.8093 773.408 32.6531 769.365 Q27.4968 765.291 27.4968 758.83 Q27.4968 754.883 29.0564 752.082 Q30.5842 749.25 33.7671 747.404 M46.212 767.36 Q52.6732 767.36 56.3653 764.718 Q60.0256 762.045 60.0256 757.398 Q60.0256 752.751 56.3653 750.077 Q52.6732 747.404 46.212 747.404 Q39.7508 747.404 36.0905 750.077 Q32.3984 752.751 32.3984 757.398 Q32.3984 762.045 36.0905 764.718 Q39.7508 767.36 46.212 767.36 Z" fill="#000000" fill-rule="nonzero" fill-opacity="1" /><path clip-path="url(#clip680)" d="M18.2347 723.691 L28.3562 723.691 L28.3562 711.628 L32.9077 711.628 L32.9077 723.691 L52.2594 723.691 Q56.6199 723.691 57.8613 722.514 Q59.1026 721.304 59.1026 717.644 L59.1026 711.628 L64.0042 711.628 L64.0042 717.644 Q64.0042 724.423 61.4897 727.002 Q58.9434 729.58 52.2594 729.58 L32.9077 729.58 L32.9077 733.876 L28.3562 733.876 L28.3562 729.58 L18.2347 729.58 L18.2347 723.691 Z" fill="#000000" fill-rule="nonzero" fill-opacity="1" /><path clip-path="url(#clip680)" d="M42.4881 674.293 L64.0042 674.293 L64.0042 680.15 L42.679 680.15 Q37.6183 680.15 35.1038 682.123 Q32.5894 684.097 32.5894 688.043 Q32.5894 692.786 35.6131 695.523 Q38.6368 698.26 43.8567 698.26 L64.0042 698.26 L64.0042 704.149 L14.479 704.149 L14.479 698.26 L33.8944 698.26 Q30.6797 696.16 29.0883 693.327 Q27.4968 690.462 27.4968 686.738 Q27.4968 680.596 31.3163 677.444 Q35.1038 674.293 42.4881 674.293 Z" fill="#000000" fill-rule="nonzero" fill-opacity="1" /><path clip-path="url(#clip680)" d="M14.479 642.433 L14.479 628.938 L19.0304 628.938 L19.0304 636.577 L68.0464 636.577 L68.0464 628.938 L72.5979 628.938 L72.5979 642.433 L14.479 642.433 Z" fill="#000000" fill-rule="nonzero" fill-opacity="1" /><path clip-path="url(#clip680)" d="M57.2247 583.805 L44.4614 583.805 L44.4614 594.308 L39.1779 594.308 L39.1779 577.439 L59.58 577.439 Q62.2218 581.163 63.5904 585.651 Q64.9272 590.139 64.9272 595.231 Q64.9272 606.371 58.4342 612.673 Q51.9093 618.944 40.2919 618.944 Q28.6427 618.944 22.1496 612.673 Q15.6248 606.371 15.6248 595.231 Q15.6248 590.584 16.7706 586.415 Q17.9164 582.214 20.1444 578.681 L26.9876 578.681 Q23.9639 582.245 22.4361 586.256 Q20.9083 590.266 20.9083 594.69 Q20.9083 603.411 25.7781 607.804 Q30.6479 612.164 40.2919 612.164 Q49.9041 612.164 54.7739 607.804 Q59.6436 603.411 59.6436 594.69 Q59.6436 591.285 59.0707 588.611 Q58.466 585.937 57.2247 583.805 Z" fill="#000000" fill-rule="nonzero" fill-opacity="1" /><path clip-path="url(#clip680)" d="M41.3104 559.265 L58.7206 559.265 L58.7206 548.953 Q58.7206 543.765 56.5881 541.282 Q54.4238 538.768 49.9996 538.768 Q45.5436 538.768 43.4429 541.282 Q41.3104 543.765 41.3104 548.953 L41.3104 559.265 M21.7677 559.265 L36.0905 559.265 L36.0905 549.748 Q36.0905 545.038 34.34 542.746 Q32.5576 540.423 28.9291 540.423 Q25.3325 540.423 23.5501 542.746 Q21.7677 545.038 21.7677 549.748 L21.7677 559.265 M16.4842 565.695 L16.4842 549.271 Q16.4842 541.919 19.5397 537.94 Q22.5952 533.961 28.2289 533.961 Q32.5894 533.961 35.1675 535.998 Q37.7456 538.036 38.3822 541.982 Q39.4007 537.24 42.6472 534.63 Q45.8619 531.988 50.6998 531.988 Q57.0655 531.988 60.5348 536.317 Q64.0042 540.645 64.0042 548.634 L64.0042 565.695 L16.4842 565.695 Z" fill="#000000" fill-rule="nonzero" fill-opacity="1" /><path clip-path="url(#clip680)" d="M16.4842 510.822 L16.4842 505.411 L70.0516 521.962 L70.0516 527.373 L16.4842 510.822 Z" fill="#000000" fill-rule="nonzero" fill-opacity="1" /><path clip-path="url(#clip680)" d="M29.4065 476.543 L34.9447 476.543 Q33.6716 479.025 33.035 481.699 Q32.3984 484.373 32.3984 487.237 Q32.3984 491.598 33.7352 493.794 Q35.072 495.958 37.7456 495.958 Q39.7826 495.958 40.9603 494.399 Q42.1061 492.839 43.1565 488.128 L43.6021 486.123 Q44.9389 479.885 47.3897 477.275 Q49.8086 474.633 54.1691 474.633 Q59.1344 474.633 62.0308 478.58 Q64.9272 482.495 64.9272 489.37 Q64.9272 492.234 64.3543 495.353 Q63.8132 498.441 62.6992 501.878 L56.6518 501.878 Q58.3387 498.632 59.198 495.481 Q60.0256 492.33 60.0256 489.242 Q60.0256 485.105 58.6251 482.877 Q57.1929 480.649 54.6147 480.649 Q52.2276 480.649 50.9545 482.272 Q49.6813 483.863 48.5037 489.306 L48.0262 491.343 Q46.8804 496.786 44.5251 499.205 Q42.138 501.624 38.0002 501.624 Q32.9713 501.624 30.2341 498.059 Q27.4968 494.494 27.4968 487.937 Q27.4968 484.691 27.9743 481.826 Q28.4517 478.962 29.4065 476.543 Z" fill="#000000" fill-rule="nonzero" fill-opacity="1" /><path clip-path="url(#clip680)" d="M14.479 451.621 L72.5979 451.621 L72.5979 465.116 L68.0464 465.116 L68.0464 457.509 L19.0304 457.509 L19.0304 465.116 L14.479 465.116 L14.479 451.621 Z" fill="#000000" fill-rule="nonzero" fill-opacity="1" /><polyline clip-path="url(#clip682)" style="stroke:#009af9; stroke-linecap:round; stroke-linejoin:round; stroke-width:4; stroke-opacity:1; fill:none" points="294.087,175.043 399.282,126.933 460.817,111.935 504.477,104.513 566.012,97.4519 627.547,92.9513 671.207,89.2002 724.068,87.041 769.943,85.8468 820.062,85.838 881.598,451.606 920.439,600.288 959.123,595.837 998.94,594.468 1039.65,589.672 1080.5,585.227 1120.71,585.373 1160.73,584.96 1200.31,584.418 1240.84,636.67 1302.38,736.826 1353.56,766.764 1405.58,808.814 1457.05,798.351 1508.76,789.914 1560.38,827.916 1611.92,876.567 1663.54,831.61 1715.2,820.833 1766.82,848.085 1828.35,1213.13 1894.7,1372.18 1961.05,1372.3 2027.4,1372.2 2093.75,1370.63 2160.1,1371.89 2226.45,1371.62 2292.79,1371.85 "/>
<circle clip-path="url(#clip682)" cx="294.087" cy="175.043" r="7.2" fill="#009af9" fill-rule="evenodd" fill-opacity="1" stroke="#000000" stroke-opacity="1" stroke-width="3.2"/>
<circle clip-path="url(#clip682)" cx="399.282" cy="126.933" r="7.2" fill="#009af9" fill-rule="evenodd" fill-opacity="1" stroke="#000000" stroke-opacity="1" stroke-width="3.2"/>
<circle clip-path="url(#clip682)" cx="460.817" cy="111.935" r="7.2" fill="#009af9" fill-rule="evenodd" fill-opacity="1" stroke="#000000" stroke-opacity="1" stroke-width="3.2"/>
<circle clip-path="url(#clip682)" cx="504.477" cy="104.513" r="7.2" fill="#009af9" fill-rule="evenodd" fill-opacity="1" stroke="#000000" stroke-opacity="1" stroke-width="3.2"/>
<circle clip-path="url(#clip682)" cx="566.012" cy="97.4519" r="7.2" fill="#009af9" fill-rule="evenodd" fill-opacity="1" stroke="#000000" stroke-opacity="1" stroke-width="3.2"/>
<circle clip-path="url(#clip682)" cx="627.547" cy="92.9513" r="7.2" fill="#009af9" fill-rule="evenodd" fill-opacity="1" stroke="#000000" stroke-opacity="1" stroke-width="3.2"/>
<circle clip-path="url(#clip682)" cx="671.207" cy="89.2002" r="7.2" fill="#009af9" fill-rule="evenodd" fill-opacity="1" stroke="#000000" stroke-opacity="1" stroke-width="3.2"/>
<circle clip-path="url(#clip682)" cx="724.068" cy="87.041" r="7.2" fill="#009af9" fill-rule="evenodd" fill-opacity="1" stroke="#000000" stroke-opacity="1" stroke-width="3.2"/>
<circle clip-path="url(#clip682)" cx="769.943" cy="85.8468" r="7.2" fill="#009af9" fill-rule="evenodd" fill-opacity="1" stroke="#000000" stroke-opacity="1" stroke-width="3.2"/>
<circle clip-path="url(#clip682)" cx="820.062" cy="85.838" r="7.2" fill="#009af9" fill-rule="evenodd" fill-opacity="1" stroke="#000000" stroke-opacity="1" stroke-width="3.2"/>
<circle clip-path="url(#clip682)" cx="881.598" cy="451.606" r="7.2" fill="#009af9" fill-rule="evenodd" fill-opacity="1" stroke="#000000" stroke-opacity="1" stroke-width="3.2"/>
<circle clip-path="url(#clip682)" cx="920.439" cy="600.288" r="7.2" fill="#009af9" fill-rule="evenodd" fill-opacity="1" stroke="#000000" stroke-opacity="1" stroke-width="3.2"/>
<circle clip-path="url(#clip682)" cx="959.123" cy="595.837" r="7.2" fill="#009af9" fill-rule="evenodd" fill-opacity="1" stroke="#000000" stroke-opacity="1" stroke-width="3.2"/>
<circle clip-path="url(#clip682)" cx="998.94" cy="594.468" r="7.2" fill="#009af9" fill-rule="evenodd" fill-opacity="1" stroke="#000000" stroke-opacity="1" stroke-width="3.2"/>
<circle clip-path="url(#clip682)" cx="1039.65" cy="589.672" r="7.2" fill="#009af9" fill-rule="evenodd" fill-opacity="1" stroke="#000000" stroke-opacity="1" stroke-width="3.2"/>
<circle clip-path="url(#clip682)" cx="1080.5" cy="585.227" r="7.2" fill="#009af9" fill-rule="evenodd" fill-opacity="1" stroke="#000000" stroke-opacity="1" stroke-width="3.2"/>
<circle clip-path="url(#clip682)" cx="1120.71" cy="585.373" r="7.2" fill="#009af9" fill-rule="evenodd" fill-opacity="1" stroke="#000000" stroke-opacity="1" stroke-width="3.2"/>
<circle clip-path="url(#clip682)" cx="1160.73" cy="584.96" r="7.2" fill="#009af9" fill-rule="evenodd" fill-opacity="1" stroke="#000000" stroke-opacity="1" stroke-width="3.2"/>
<circle clip-path="url(#clip682)" cx="1200.31" cy="584.418" r="7.2" fill="#009af9" fill-rule="evenodd" fill-opacity="1" stroke="#000000" stroke-opacity="1" stroke-width="3.2"/>
<circle clip-path="url(#clip682)" cx="1240.84" cy="636.67" r="7.2" fill="#009af9" fill-rule="evenodd" fill-opacity="1" stroke="#000000" stroke-opacity="1" stroke-width="3.2"/>
<circle clip-path="url(#clip682)" cx="1302.38" cy="736.826" r="7.2" fill="#009af9" fill-rule="evenodd" fill-opacity="1" stroke="#000000" stroke-opacity="1" stroke-width="3.2"/>
<circle clip-path="url(#clip682)" cx="1353.56" cy="766.764" r="7.2" fill="#009af9" fill-rule="evenodd" fill-opacity="1" stroke="#000000" stroke-opacity="1" stroke-width="3.2"/>
<circle clip-path="url(#clip682)" cx="1405.58" cy="808.814" r="7.2" fill="#009af9" fill-rule="evenodd" fill-opacity="1" stroke="#000000" stroke-opacity="1" stroke-width="3.2"/>
<circle clip-path="url(#clip682)" cx="1457.05" cy="798.351" r="7.2" fill="#009af9" fill-rule="evenodd" fill-opacity="1" stroke="#000000" stroke-opacity="1" stroke-width="3.2"/>
<circle clip-path="url(#clip682)" cx="1508.76" cy="789.914" r="7.2" fill="#009af9" fill-rule="evenodd" fill-opacity="1" stroke="#000000" stroke-opacity="1" stroke-width="3.2"/>
<circle clip-path="url(#clip682)" cx="1560.38" cy="827.916" r="7.2" fill="#009af9" fill-rule="evenodd" fill-opacity="1" stroke="#000000" stroke-opacity="1" stroke-width="3.2"/>
<circle clip-path="url(#clip682)" cx="1611.92" cy="876.567" r="7.2" fill="#009af9" fill-rule="evenodd" fill-opacity="1" stroke="#000000" stroke-opacity="1" stroke-width="3.2"/>
<circle clip-path="url(#clip682)" cx="1663.54" cy="831.61" r="7.2" fill="#009af9" fill-rule="evenodd" fill-opacity="1" stroke="#000000" stroke-opacity="1" stroke-width="3.2"/>
<circle clip-path="url(#clip682)" cx="1715.2" cy="820.833" r="7.2" fill="#009af9" fill-rule="evenodd" fill-opacity="1" stroke="#000000" stroke-opacity="1" stroke-width="3.2"/>
<circle clip-path="url(#clip682)" cx="1766.82" cy="848.085" r="7.2" fill="#009af9" fill-rule="evenodd" fill-opacity="1" stroke="#000000" stroke-opacity="1" stroke-width="3.2"/>
<circle clip-path="url(#clip682)" cx="1828.35" cy="1213.13" r="7.2" fill="#009af9" fill-rule="evenodd" fill-opacity="1" stroke="#000000" stroke-opacity="1" stroke-width="3.2"/>
<circle clip-path="url(#clip682)" cx="1894.7" cy="1372.18" r="7.2" fill="#009af9" fill-rule="evenodd" fill-opacity="1" stroke="#000000" stroke-opacity="1" stroke-width="3.2"/>
<circle clip-path="url(#clip682)" cx="1961.05" cy="1372.3" r="7.2" fill="#009af9" fill-rule="evenodd" fill-opacity="1" stroke="#000000" stroke-opacity="1" stroke-width="3.2"/>
<circle clip-path="url(#clip682)" cx="2027.4" cy="1372.2" r="7.2" fill="#009af9" fill-rule="evenodd" fill-opacity="1" stroke="#000000" stroke-opacity="1" stroke-width="3.2"/>
<circle clip-path="url(#clip682)" cx="2093.75" cy="1370.63" r="7.2" fill="#009af9" fill-rule="evenodd" fill-opacity="1" stroke="#000000" stroke-opacity="1" stroke-width="3.2"/>
<circle clip-path="url(#clip682)" cx="2160.1" cy="1371.89" r="7.2" fill="#009af9" fill-rule="evenodd" fill-opacity="1" stroke="#000000" stroke-opacity="1" stroke-width="3.2"/>
<circle clip-path="url(#clip682)" cx="2226.45" cy="1371.62" r="7.2" fill="#009af9" fill-rule="evenodd" fill-opacity="1" stroke="#000000" stroke-opacity="1" stroke-width="3.2"/>
<circle clip-path="url(#clip682)" cx="2292.79" cy="1371.85" r="7.2" fill="#009af9" fill-rule="evenodd" fill-opacity="1" stroke="#000000" stroke-opacity="1" stroke-width="3.2"/>
<polyline clip-path="url(#clip682)" style="stroke:#ffa500; stroke-linecap:round; stroke-linejoin:round; stroke-width:8; stroke-opacity:1; fill:none" points="820.062,2774.55 820.062,-1316.41 "/>
<polyline clip-path="url(#clip682)" style="stroke:#ff0000; stroke-linecap:round; stroke-linejoin:round; stroke-width:8; stroke-opacity:1; fill:none" points="1240.84,2774.55 1240.84,-1316.41 "/>
<polyline clip-path="url(#clip682)" style="stroke:#800080; stroke-linecap:round; stroke-linejoin:round; stroke-width:8; stroke-opacity:1; fill:none" points="1766.82,2774.55 1766.82,-1316.41 "/>
<path clip-path="url(#clip680)" d="M1431.64 351.899 L2282.13 351.899 L2282.13 92.6992 L1431.64 92.6992  Z" fill="#ffffff" fill-rule="evenodd" fill-opacity="1"/>
<polyline clip-path="url(#clip680)" style="stroke:#000000; stroke-linecap:round; stroke-linejoin:round; stroke-width:4; stroke-opacity:1; fill:none" points="1431.64,351.899 2282.13,351.899 2282.13,92.6992 1431.64,92.6992 1431.64,351.899 "/>
<polyline clip-path="url(#clip680)" style="stroke:#009af9; stroke-linecap:round; stroke-linejoin:round; stroke-width:4; stroke-opacity:1; fill:none" points="1455.18,144.539 1596.42,144.539 "/>
<circle clip-path="url(#clip680)" cx="1525.8" cy="144.539" r="18.432" fill="#009af9" fill-rule="evenodd" fill-opacity="1" stroke="#000000" stroke-opacity="1" stroke-width="8.192"/>
<path clip-path="url(#clip680)" d="M1638.39 136.657 L1638.39 140.685 Q1636.58 139.759 1634.64 139.296 Q1632.7 138.833 1630.61 138.833 Q1627.44 138.833 1625.84 139.805 Q1624.27 140.778 1624.27 142.722 Q1624.27 144.204 1625.4 145.06 Q1626.54 145.893 1629.96 146.657 L1631.42 146.981 Q1635.96 147.954 1637.86 149.736 Q1639.78 151.495 1639.78 154.666 Q1639.78 158.278 1636.91 160.384 Q1634.06 162.49 1629.06 162.49 Q1626.98 162.49 1624.71 162.074 Q1622.46 161.68 1619.96 160.87 L1619.96 156.472 Q1622.32 157.699 1624.62 158.324 Q1626.91 158.926 1629.15 158.926 Q1632.16 158.926 1633.78 157.907 Q1635.4 156.866 1635.4 154.991 Q1635.4 153.254 1634.22 152.328 Q1633.07 151.403 1629.11 150.546 L1627.63 150.199 Q1623.67 149.366 1621.91 147.653 Q1620.15 145.916 1620.15 142.907 Q1620.15 139.25 1622.74 137.259 Q1625.33 135.268 1630.1 135.268 Q1632.46 135.268 1634.55 135.616 Q1636.63 135.963 1638.39 136.657 Z" fill="#000000" fill-rule="nonzero" fill-opacity="1" /><path clip-path="url(#clip680)" d="M1663.62 139.829 L1663.62 125.801 L1667.88 125.801 L1667.88 161.819 L1663.62 161.819 L1663.62 157.93 Q1662.28 160.245 1660.22 161.379 Q1658.18 162.49 1655.31 162.49 Q1650.61 162.49 1647.65 158.74 Q1644.71 154.991 1644.71 148.879 Q1644.71 142.768 1647.65 139.018 Q1650.61 135.268 1655.31 135.268 Q1658.18 135.268 1660.22 136.403 Q1662.28 137.514 1663.62 139.829 M1649.11 148.879 Q1649.11 153.578 1651.03 156.264 Q1652.97 158.926 1656.35 158.926 Q1659.73 158.926 1661.68 156.264 Q1663.62 153.578 1663.62 148.879 Q1663.62 144.18 1661.68 141.518 Q1659.73 138.833 1656.35 138.833 Q1652.97 138.833 1651.03 141.518 Q1649.11 144.18 1649.11 148.879 Z" fill="#000000" fill-rule="nonzero" fill-opacity="1" /><path clip-path="url(#clip680)" d="M1688.44 148.787 Q1683.27 148.787 1681.28 149.967 Q1679.29 151.148 1679.29 153.995 Q1679.29 156.264 1680.77 157.606 Q1682.28 158.926 1684.85 158.926 Q1688.39 158.926 1690.52 156.426 Q1692.67 153.903 1692.67 149.736 L1692.67 148.787 L1688.44 148.787 M1696.93 147.028 L1696.93 161.819 L1692.67 161.819 L1692.67 157.884 Q1691.21 160.245 1689.04 161.379 Q1686.86 162.49 1683.71 162.49 Q1679.73 162.49 1677.37 160.268 Q1675.03 158.023 1675.03 154.273 Q1675.03 149.898 1677.95 147.676 Q1680.89 145.454 1686.7 145.454 L1692.67 145.454 L1692.67 145.037 Q1692.67 142.097 1690.73 140.5 Q1688.81 138.879 1685.31 138.879 Q1683.09 138.879 1680.98 139.412 Q1678.88 139.944 1676.93 141.009 L1676.93 137.074 Q1679.27 136.171 1681.47 135.731 Q1683.67 135.268 1685.75 135.268 Q1691.38 135.268 1694.15 138.185 Q1696.93 141.102 1696.93 147.028 Z" fill="#000000" fill-rule="nonzero" fill-opacity="1" /><path clip-path="url(#clip680)" d="M1727.25 135.893 L1717.88 148.509 L1727.74 161.819 L1722.72 161.819 L1715.17 151.634 L1707.63 161.819 L1702.6 161.819 L1712.67 148.254 L1703.46 135.893 L1708.48 135.893 L1715.36 145.129 L1722.23 135.893 L1727.25 135.893 Z" fill="#000000" fill-rule="nonzero" fill-opacity="1" /><path clip-path="url(#clip680)" d="M1737.88 157.93 L1737.88 171.68 L1733.6 171.68 L1733.6 135.893 L1737.88 135.893 L1737.88 139.829 Q1739.22 137.514 1741.26 136.403 Q1743.32 135.268 1746.17 135.268 Q1750.89 135.268 1753.83 139.018 Q1756.79 142.768 1756.79 148.879 Q1756.79 154.991 1753.83 158.74 Q1750.89 162.49 1746.17 162.49 Q1743.32 162.49 1741.26 161.379 Q1739.22 160.245 1737.88 157.93 M1752.37 148.879 Q1752.37 144.18 1750.43 141.518 Q1748.5 138.833 1745.13 138.833 Q1741.75 138.833 1739.8 141.518 Q1737.88 144.18 1737.88 148.879 Q1737.88 153.578 1739.8 156.264 Q1741.75 158.926 1745.13 158.926 Q1748.5 158.926 1750.43 156.264 Q1752.37 153.578 1752.37 148.879 Z" fill="#000000" fill-rule="nonzero" fill-opacity="1" /><path clip-path="url(#clip680)" d="M1774.64 164.227 Q1772.83 168.856 1771.12 170.268 Q1769.41 171.68 1766.54 171.68 L1763.13 171.68 L1763.13 168.115 L1765.63 168.115 Q1767.39 168.115 1768.37 167.282 Q1769.34 166.449 1770.52 163.347 L1771.28 161.403 L1760.8 135.893 L1765.31 135.893 L1773.41 156.171 L1781.51 135.893 L1786.03 135.893 L1774.64 164.227 Z" fill="#000000" fill-rule="nonzero" fill-opacity="1" /><path clip-path="url(#clip680)" d="M1794.59 155.94 L1799.29 155.94 L1799.29 161.819 L1794.59 161.819 L1794.59 155.94 M1794.59 127.259 L1799.29 127.259 L1799.29 142.421 L1798.83 150.685 L1795.08 150.685 L1794.59 142.421 L1794.59 127.259 Z" fill="#000000" fill-rule="nonzero" fill-opacity="1" /><polyline clip-path="url(#clip680)" style="stroke:#ffa500; stroke-linecap:round; stroke-linejoin:round; stroke-width:8; stroke-opacity:1; fill:none" points="1455.18,196.379 1596.42,196.379 "/>
<path clip-path="url(#clip680)" d="M1619.96 179.099 L1624.64 179.099 L1624.64 209.724 L1641.47 209.724 L1641.47 213.659 L1619.96 213.659 L1619.96 179.099 Z" fill="#000000" fill-rule="nonzero" fill-opacity="1" /><path clip-path="url(#clip680)" d="M1647.6 209.724 L1655.24 209.724 L1655.24 183.358 L1646.93 185.025 L1646.93 180.766 L1655.2 179.099 L1659.87 179.099 L1659.87 209.724 L1667.51 209.724 L1667.51 213.659 L1647.6 213.659 L1647.6 209.724 Z" fill="#000000" fill-rule="nonzero" fill-opacity="1" /><path clip-path="url(#clip680)" d="M1691.98 192.132 L1721.65 192.132 L1721.65 196.02 L1691.98 196.02 L1691.98 192.132 M1691.98 201.576 L1721.65 201.576 L1721.65 205.511 L1691.98 205.511 L1691.98 201.576 Z" fill="#000000" fill-rule="nonzero" fill-opacity="1" /><path clip-path="url(#clip680)" d="M1747.63 209.724 L1755.26 209.724 L1755.26 183.358 L1746.95 185.025 L1746.95 180.766 L1755.22 179.099 L1759.89 179.099 L1759.89 209.724 L1767.53 209.724 L1767.53 213.659 L1747.63 213.659 L1747.63 209.724 Z" fill="#000000" fill-rule="nonzero" fill-opacity="1" /><path clip-path="url(#clip680)" d="M1786.98 182.178 Q1783.37 182.178 1781.54 185.743 Q1779.73 189.284 1779.73 196.414 Q1779.73 203.52 1781.54 207.085 Q1783.37 210.627 1786.98 210.627 Q1790.61 210.627 1792.42 207.085 Q1794.25 203.52 1794.25 196.414 Q1794.25 189.284 1792.42 185.743 Q1790.61 182.178 1786.98 182.178 M1786.98 178.474 Q1792.79 178.474 1795.84 183.081 Q1798.92 187.664 1798.92 196.414 Q1798.92 205.141 1795.84 209.747 Q1792.79 214.33 1786.98 214.33 Q1781.17 214.33 1778.09 209.747 Q1775.03 205.141 1775.03 196.414 Q1775.03 187.664 1778.09 183.081 Q1781.17 178.474 1786.98 178.474 Z" fill="#000000" fill-rule="nonzero" fill-opacity="1" /><path clip-path="url(#clip680)" d="M1811.17 209.724 L1827.49 209.724 L1827.49 213.659 L1805.54 213.659 L1805.54 209.724 Q1808.2 206.969 1812.79 202.34 Q1817.39 197.687 1818.57 196.344 Q1820.82 193.821 1821.7 192.085 Q1822.6 190.326 1822.6 188.636 Q1822.6 185.882 1820.66 184.145 Q1818.74 182.409 1815.63 182.409 Q1813.43 182.409 1810.98 183.173 Q1808.55 183.937 1805.77 185.488 L1805.77 180.766 Q1808.6 179.632 1811.05 179.053 Q1813.5 178.474 1815.54 178.474 Q1820.91 178.474 1824.11 181.159 Q1827.3 183.845 1827.3 188.335 Q1827.3 190.465 1826.49 192.386 Q1825.7 194.284 1823.6 196.877 Q1823.02 197.548 1819.92 200.766 Q1816.81 203.96 1811.17 209.724 Z" fill="#000000" fill-rule="nonzero" fill-opacity="1" /><path clip-path="url(#clip680)" d="M1850.15 183.173 L1838.34 201.622 L1850.15 201.622 L1850.15 183.173 M1848.92 179.099 L1854.8 179.099 L1854.8 201.622 L1859.73 201.622 L1859.73 205.511 L1854.8 205.511 L1854.8 213.659 L1850.15 213.659 L1850.15 205.511 L1834.55 205.511 L1834.55 200.997 L1848.92 179.099 Z" fill="#000000" fill-rule="nonzero" fill-opacity="1" /><path clip-path="url(#clip680)" d="M1892.16 177.687 Q1889.06 183.011 1887.55 188.22 Q1886.05 193.428 1886.05 198.775 Q1886.05 204.122 1887.55 209.377 Q1889.08 214.608 1892.16 219.909 L1888.46 219.909 Q1884.99 214.469 1883.25 209.215 Q1881.54 203.96 1881.54 198.775 Q1881.54 193.613 1883.25 188.382 Q1884.96 183.15 1888.46 177.687 L1892.16 177.687 Z" fill="#000000" fill-rule="nonzero" fill-opacity="1" /><path clip-path="url(#clip680)" d="M1915.19 195.025 Q1918.55 195.743 1920.43 198.011 Q1922.32 200.28 1922.32 203.613 Q1922.32 208.729 1918.8 211.53 Q1915.29 214.33 1908.8 214.33 Q1906.63 214.33 1904.31 213.891 Q1902.02 213.474 1899.57 212.618 L1899.57 208.104 Q1901.51 209.238 1903.83 209.817 Q1906.14 210.395 1908.67 210.395 Q1913.06 210.395 1915.36 208.659 Q1917.67 206.923 1917.67 203.613 Q1917.67 200.557 1915.52 198.844 Q1913.39 197.108 1909.57 197.108 L1905.54 197.108 L1905.54 193.266 L1909.75 193.266 Q1913.2 193.266 1915.03 191.9 Q1916.86 190.511 1916.86 187.919 Q1916.86 185.257 1914.96 183.845 Q1913.09 182.409 1909.57 182.409 Q1907.65 182.409 1905.45 182.826 Q1903.25 183.243 1900.61 184.122 L1900.61 179.956 Q1903.27 179.215 1905.59 178.845 Q1907.93 178.474 1909.99 178.474 Q1915.31 178.474 1918.41 180.905 Q1921.51 183.312 1921.51 187.432 Q1921.51 190.303 1919.87 192.294 Q1918.23 194.261 1915.19 195.025 Z" fill="#000000" fill-rule="nonzero" fill-opacity="1" /><path clip-path="url(#clip680)" d="M1935.22 209.724 L1951.54 209.724 L1951.54 213.659 L1929.59 213.659 L1929.59 209.724 Q1932.25 206.969 1936.84 202.34 Q1941.44 197.687 1942.62 196.344 Q1944.87 193.821 1945.75 192.085 Q1946.65 190.326 1946.65 188.636 Q1946.65 185.882 1944.71 184.145 Q1942.79 182.409 1939.68 182.409 Q1937.49 182.409 1935.03 183.173 Q1932.6 183.937 1929.82 185.488 L1929.82 180.766 Q1932.65 179.632 1935.1 179.053 Q1937.55 178.474 1939.59 178.474 Q1944.96 178.474 1948.16 181.159 Q1951.35 183.845 1951.35 188.335 Q1951.35 190.465 1950.54 192.386 Q1949.75 194.284 1947.65 196.877 Q1947.07 197.548 1943.97 200.766 Q1940.86 203.96 1935.22 209.724 Z" fill="#000000" fill-rule="nonzero" fill-opacity="1" /><path clip-path="url(#clip680)" d="M1961.35 207.78 L1966.24 207.78 L1966.24 213.659 L1961.35 213.659 L1961.35 207.78 Z" fill="#000000" fill-rule="nonzero" fill-opacity="1" /><path clip-path="url(#clip680)" d="M1986.42 182.178 Q1982.81 182.178 1980.98 185.743 Q1979.17 189.284 1979.17 196.414 Q1979.17 203.52 1980.98 207.085 Q1982.81 210.627 1986.42 210.627 Q1990.05 210.627 1991.86 207.085 Q1993.69 203.52 1993.69 196.414 Q1993.69 189.284 1991.86 185.743 Q1990.05 182.178 1986.42 182.178 M1986.42 178.474 Q1992.23 178.474 1995.29 183.081 Q1998.36 187.664 1998.36 196.414 Q1998.36 205.141 1995.29 209.747 Q1992.23 214.33 1986.42 214.33 Q1980.61 214.33 1977.53 209.747 Q1974.48 205.141 1974.48 196.414 Q1974.48 187.664 1977.53 183.081 Q1980.61 178.474 1986.42 178.474 Z" fill="#000000" fill-rule="nonzero" fill-opacity="1" /><path clip-path="url(#clip680)" d="M2021.23 179.099 L2025.91 179.099 L2025.91 193.706 L2041.42 179.099 L2047.44 179.099 L2030.29 195.21 L2048.67 213.659 L2042.51 213.659 L2025.91 197.016 L2025.91 213.659 L2021.23 213.659 L2021.23 179.099 Z" fill="#000000" fill-rule="nonzero" fill-opacity="1" /><path clip-path="url(#clip680)" d="M2052.14 187.733 L2056.4 187.733 L2056.4 213.659 L2052.14 213.659 L2052.14 187.733 M2052.14 177.641 L2056.4 177.641 L2056.4 183.034 L2052.14 183.034 L2052.14 177.641 Z" fill="#000000" fill-rule="nonzero" fill-opacity="1" /><path clip-path="url(#clip680)" d="M2070.17 197.155 L2070.17 209.817 L2077.67 209.817 Q2081.44 209.817 2083.25 208.266 Q2085.08 206.692 2085.08 203.474 Q2085.08 200.233 2083.25 198.706 Q2081.44 197.155 2077.67 197.155 L2070.17 197.155 M2070.17 182.942 L2070.17 193.358 L2077.09 193.358 Q2080.52 193.358 2082.18 192.085 Q2083.87 190.789 2083.87 188.15 Q2083.87 185.534 2082.18 184.238 Q2080.52 182.942 2077.09 182.942 L2070.17 182.942 M2065.49 179.099 L2077.44 179.099 Q2082.79 179.099 2085.68 181.321 Q2088.57 183.544 2088.57 187.641 Q2088.57 190.812 2087.09 192.687 Q2085.61 194.562 2082.74 195.025 Q2086.19 195.766 2088.09 198.127 Q2090.01 200.465 2090.01 203.983 Q2090.01 208.613 2086.86 211.136 Q2083.71 213.659 2077.9 213.659 L2065.49 213.659 L2065.49 179.099 Z" fill="#000000" fill-rule="nonzero" fill-opacity="1" /><path clip-path="url(#clip680)" d="M2097.16 177.687 L2100.86 177.687 Q2104.34 183.15 2106.05 188.382 Q2107.79 193.613 2107.79 198.775 Q2107.79 203.96 2106.05 209.215 Q2104.34 214.469 2100.86 219.909 L2097.16 219.909 Q2100.24 214.608 2101.74 209.377 Q2103.27 204.122 2103.27 198.775 Q2103.27 193.428 2101.74 188.22 Q2100.24 183.011 2097.16 177.687 Z" fill="#000000" fill-rule="nonzero" fill-opacity="1" /><polyline clip-path="url(#clip680)" style="stroke:#ff0000; stroke-linecap:round; stroke-linejoin:round; stroke-width:8; stroke-opacity:1; fill:none" points="1455.18,248.219 1596.42,248.219 "/>
<path clip-path="url(#clip680)" d="M1619.96 230.939 L1624.64 230.939 L1624.64 261.564 L1641.47 261.564 L1641.47 265.499 L1619.96 265.499 L1619.96 230.939 Z" fill="#000000" fill-rule="nonzero" fill-opacity="1" /><path clip-path="url(#clip680)" d="M1650.82 261.564 L1667.14 261.564 L1667.14 265.499 L1645.2 265.499 L1645.2 261.564 Q1647.86 258.809 1652.44 254.18 Q1657.05 249.527 1658.23 248.184 Q1660.47 245.661 1661.35 243.925 Q1662.26 242.166 1662.26 240.476 Q1662.26 237.722 1660.31 235.985 Q1658.39 234.249 1655.29 234.249 Q1653.09 234.249 1650.63 235.013 Q1648.2 235.777 1645.43 237.328 L1645.43 232.606 Q1648.25 231.472 1650.7 230.893 Q1653.16 230.314 1655.2 230.314 Q1660.57 230.314 1663.76 232.999 Q1666.95 235.685 1666.95 240.175 Q1666.95 242.305 1666.14 244.226 Q1665.36 246.124 1663.25 248.717 Q1662.67 249.388 1659.57 252.606 Q1656.47 255.8 1650.82 261.564 Z" fill="#000000" fill-rule="nonzero" fill-opacity="1" /><path clip-path="url(#clip680)" d="M1691.98 243.972 L1721.65 243.972 L1721.65 247.86 L1691.98 247.86 L1691.98 243.972 M1691.98 253.416 L1721.65 253.416 L1721.65 257.351 L1691.98 257.351 L1691.98 253.416 Z" fill="#000000" fill-rule="nonzero" fill-opacity="1" /><path clip-path="url(#clip680)" d="M1747.63 261.564 L1755.26 261.564 L1755.26 235.198 L1746.95 236.865 L1746.95 232.606 L1755.22 230.939 L1759.89 230.939 L1759.89 261.564 L1767.53 261.564 L1767.53 265.499 L1747.63 265.499 L1747.63 261.564 Z" fill="#000000" fill-rule="nonzero" fill-opacity="1" /><path clip-path="url(#clip680)" d="M1787.56 246.356 Q1784.41 246.356 1782.56 248.509 Q1780.73 250.661 1780.73 254.411 Q1780.73 258.138 1782.56 260.314 Q1784.41 262.467 1787.56 262.467 Q1790.7 262.467 1792.53 260.314 Q1794.38 258.138 1794.38 254.411 Q1794.38 250.661 1792.53 248.509 Q1790.7 246.356 1787.56 246.356 M1796.84 231.703 L1796.84 235.962 Q1795.08 235.129 1793.27 234.689 Q1791.49 234.249 1789.73 234.249 Q1785.1 234.249 1782.65 237.374 Q1780.22 240.499 1779.87 246.819 Q1781.24 244.805 1783.3 243.74 Q1785.36 242.652 1787.83 242.652 Q1793.04 242.652 1796.05 245.823 Q1799.08 248.971 1799.08 254.411 Q1799.08 259.735 1795.93 262.953 Q1792.79 266.17 1787.56 266.17 Q1781.56 266.17 1778.39 261.587 Q1775.22 256.981 1775.22 248.254 Q1775.22 240.06 1779.11 235.198 Q1783 230.314 1789.55 230.314 Q1791.31 230.314 1793.09 230.661 Q1794.89 231.009 1796.84 231.703 Z" fill="#000000" fill-rule="nonzero" fill-opacity="1" /><path clip-path="url(#clip680)" d="M1821.31 246.865 Q1824.66 247.583 1826.54 249.851 Q1828.43 252.12 1828.43 255.453 Q1828.43 260.569 1824.92 263.37 Q1821.4 266.17 1814.92 266.17 Q1812.74 266.17 1810.43 265.731 Q1808.13 265.314 1805.68 264.458 L1805.68 259.944 Q1807.62 261.078 1809.94 261.657 Q1812.25 262.235 1814.78 262.235 Q1819.18 262.235 1821.47 260.499 Q1823.78 258.763 1823.78 255.453 Q1823.78 252.397 1821.63 250.684 Q1819.5 248.948 1815.68 248.948 L1811.65 248.948 L1811.65 245.106 L1815.87 245.106 Q1819.31 245.106 1821.14 243.74 Q1822.97 242.351 1822.97 239.759 Q1822.97 237.097 1821.07 235.685 Q1819.2 234.249 1815.68 234.249 Q1813.76 234.249 1811.56 234.666 Q1809.36 235.083 1806.72 235.962 L1806.72 231.796 Q1809.38 231.055 1811.7 230.685 Q1814.04 230.314 1816.1 230.314 Q1821.42 230.314 1824.52 232.745 Q1827.62 235.152 1827.62 239.272 Q1827.62 242.143 1825.98 244.134 Q1824.34 246.101 1821.31 246.865 Z" fill="#000000" fill-rule="nonzero" fill-opacity="1" /><path clip-path="url(#clip680)" d="M1847.3 249.087 Q1843.97 249.087 1842.05 250.87 Q1840.15 252.652 1840.15 255.777 Q1840.15 258.902 1842.05 260.684 Q1843.97 262.467 1847.3 262.467 Q1850.63 262.467 1852.56 260.684 Q1854.48 258.879 1854.48 255.777 Q1854.48 252.652 1852.56 250.87 Q1850.66 249.087 1847.3 249.087 M1842.62 247.097 Q1839.62 246.356 1837.93 244.296 Q1836.26 242.235 1836.26 239.272 Q1836.26 235.129 1839.2 232.722 Q1842.16 230.314 1847.3 230.314 Q1852.46 230.314 1855.4 232.722 Q1858.34 235.129 1858.34 239.272 Q1858.34 242.235 1856.65 244.296 Q1854.99 246.356 1852 247.097 Q1855.38 247.884 1857.25 250.175 Q1859.15 252.467 1859.15 255.777 Q1859.15 260.8 1856.07 263.485 Q1853.02 266.17 1847.3 266.17 Q1841.58 266.17 1838.5 263.485 Q1835.45 260.8 1835.45 255.777 Q1835.45 252.467 1837.35 250.175 Q1839.24 247.884 1842.62 247.097 M1840.91 239.712 Q1840.91 242.397 1842.58 243.902 Q1844.27 245.407 1847.3 245.407 Q1850.31 245.407 1852 243.902 Q1853.71 242.397 1853.71 239.712 Q1853.71 237.027 1852 235.522 Q1850.31 234.018 1847.3 234.018 Q1844.27 234.018 1842.58 235.522 Q1840.91 237.027 1840.91 239.712 Z" fill="#000000" fill-rule="nonzero" fill-opacity="1" /><path clip-path="url(#clip680)" d="M1880.31 235.013 L1868.5 253.462 L1880.31 253.462 L1880.31 235.013 M1879.08 230.939 L1884.96 230.939 L1884.96 253.462 L1889.89 253.462 L1889.89 257.351 L1884.96 257.351 L1884.96 265.499 L1880.31 265.499 L1880.31 257.351 L1864.71 257.351 L1864.71 252.837 L1879.08 230.939 Z" fill="#000000" fill-rule="nonzero" fill-opacity="1" /><path clip-path="url(#clip680)" d="M1922.32 229.527 Q1919.22 234.851 1917.72 240.06 Q1916.21 245.268 1916.21 250.615 Q1916.21 255.962 1917.72 261.217 Q1919.24 266.448 1922.32 271.749 L1918.62 271.749 Q1915.15 266.309 1913.41 261.055 Q1911.7 255.8 1911.7 250.615 Q1911.7 245.453 1913.41 240.222 Q1915.12 234.99 1918.62 229.527 L1922.32 229.527 Z" fill="#000000" fill-rule="nonzero" fill-opacity="1" /><path clip-path="url(#clip680)" d="M1931.24 230.939 L1949.59 230.939 L1949.59 234.874 L1935.52 234.874 L1935.52 243.347 Q1936.54 242.999 1937.55 242.837 Q1938.57 242.652 1939.59 242.652 Q1945.38 242.652 1948.76 245.823 Q1952.14 248.995 1952.14 254.411 Q1952.14 259.99 1948.67 263.092 Q1945.19 266.17 1938.87 266.17 Q1936.7 266.17 1934.43 265.8 Q1932.18 265.43 1929.78 264.689 L1929.78 259.99 Q1931.86 261.124 1934.08 261.68 Q1936.3 262.235 1938.78 262.235 Q1942.79 262.235 1945.12 260.129 Q1947.46 258.022 1947.46 254.411 Q1947.46 250.8 1945.12 248.694 Q1942.79 246.587 1938.78 246.587 Q1936.91 246.587 1935.03 247.004 Q1933.18 247.421 1931.24 248.3 L1931.24 230.939 Z" fill="#000000" fill-rule="nonzero" fill-opacity="1" /><path clip-path="url(#clip680)" d="M1962.16 261.564 L1969.8 261.564 L1969.8 235.198 L1961.49 236.865 L1961.49 232.606 L1969.75 230.939 L1974.43 230.939 L1974.43 261.564 L1982.07 261.564 L1982.07 265.499 L1962.16 265.499 L1962.16 261.564 Z" fill="#000000" fill-rule="nonzero" fill-opacity="1" /><path clip-path="url(#clip680)" d="M1995.54 261.564 L2011.86 261.564 L2011.86 265.499 L1989.92 265.499 L1989.92 261.564 Q1992.58 258.809 1997.16 254.18 Q2001.77 249.527 2002.95 248.184 Q2005.19 245.661 2006.07 243.925 Q2006.98 242.166 2006.98 240.476 Q2006.98 237.722 2005.03 235.985 Q2003.11 234.249 2000.01 234.249 Q1997.81 234.249 1995.36 235.013 Q1992.92 235.777 1990.15 237.328 L1990.15 232.606 Q1992.97 231.472 1995.42 230.893 Q1997.88 230.314 1999.92 230.314 Q2005.29 230.314 2008.48 232.999 Q2011.67 235.685 2011.67 240.175 Q2011.67 242.305 2010.86 244.226 Q2010.08 246.124 2007.97 248.717 Q2007.39 249.388 2004.29 252.606 Q2001.19 255.8 1995.54 261.564 Z" fill="#000000" fill-rule="nonzero" fill-opacity="1" /><path clip-path="url(#clip680)" d="M2021.67 259.62 L2026.56 259.62 L2026.56 265.499 L2021.67 265.499 L2021.67 259.62 Z" fill="#000000" fill-rule="nonzero" fill-opacity="1" /><path clip-path="url(#clip680)" d="M2046.74 234.018 Q2043.13 234.018 2041.3 237.583 Q2039.5 241.124 2039.5 248.254 Q2039.5 255.36 2041.3 258.925 Q2043.13 262.467 2046.74 262.467 Q2050.38 262.467 2052.18 258.925 Q2054.01 255.36 2054.01 248.254 Q2054.01 241.124 2052.18 237.583 Q2050.38 234.018 2046.74 234.018 M2046.74 230.314 Q2052.55 230.314 2055.61 234.921 Q2058.69 239.504 2058.69 248.254 Q2058.69 256.981 2055.61 261.587 Q2052.55 266.17 2046.74 266.17 Q2040.93 266.17 2037.85 261.587 Q2034.8 256.981 2034.8 248.254 Q2034.8 239.504 2037.85 234.921 Q2040.93 230.314 2046.74 230.314 Z" fill="#000000" fill-rule="nonzero" fill-opacity="1" /><path clip-path="url(#clip680)" d="M2081.56 230.939 L2086.23 230.939 L2086.23 245.546 L2101.74 230.939 L2107.76 230.939 L2090.61 247.05 L2108.99 265.499 L2102.83 265.499 L2086.23 248.856 L2086.23 265.499 L2081.56 265.499 L2081.56 230.939 Z" fill="#000000" fill-rule="nonzero" fill-opacity="1" /><path clip-path="url(#clip680)" d="M2112.46 239.573 L2116.72 239.573 L2116.72 265.499 L2112.46 265.499 L2112.46 239.573 M2112.46 229.481 L2116.72 229.481 L2116.72 234.874 L2112.46 234.874 L2112.46 229.481 Z" fill="#000000" fill-rule="nonzero" fill-opacity="1" /><path clip-path="url(#clip680)" d="M2130.49 248.995 L2130.49 261.657 L2137.99 261.657 Q2141.77 261.657 2143.57 260.106 Q2145.4 258.532 2145.4 255.314 Q2145.4 252.073 2143.57 250.546 Q2141.77 248.995 2137.99 248.995 L2130.49 248.995 M2130.49 234.782 L2130.49 245.198 L2137.41 245.198 Q2140.84 245.198 2142.51 243.925 Q2144.2 242.629 2144.2 239.99 Q2144.2 237.374 2142.51 236.078 Q2140.84 234.782 2137.41 234.782 L2130.49 234.782 M2125.82 230.939 L2137.76 230.939 Q2143.11 230.939 2146 233.161 Q2148.9 235.384 2148.9 239.481 Q2148.9 242.652 2147.41 244.527 Q2145.93 246.402 2143.06 246.865 Q2146.51 247.606 2148.41 249.967 Q2150.33 252.305 2150.33 255.823 Q2150.33 260.453 2147.18 262.976 Q2144.03 265.499 2138.22 265.499 L2125.82 265.499 L2125.82 230.939 Z" fill="#000000" fill-rule="nonzero" fill-opacity="1" /><path clip-path="url(#clip680)" d="M2157.48 229.527 L2161.19 229.527 Q2164.66 234.99 2166.37 240.222 Q2168.11 245.453 2168.11 250.615 Q2168.11 255.8 2166.37 261.055 Q2164.66 266.309 2161.19 271.749 L2157.48 271.749 Q2160.56 266.448 2162.07 261.217 Q2163.6 255.962 2163.6 250.615 Q2163.6 245.268 2162.07 240.06 Q2160.56 234.851 2157.48 229.527 Z" fill="#000000" fill-rule="nonzero" fill-opacity="1" /><polyline clip-path="url(#clip680)" style="stroke:#800080; stroke-linecap:round; stroke-linejoin:round; stroke-width:8; stroke-opacity:1; fill:none" points="1455.18,300.059 1596.42,300.059 "/>
<path clip-path="url(#clip680)" d="M1619.96 282.779 L1624.64 282.779 L1624.64 313.404 L1641.47 313.404 L1641.47 317.339 L1619.96 317.339 L1619.96 282.779 Z" fill="#000000" fill-rule="nonzero" fill-opacity="1" /><path clip-path="url(#clip680)" d="M1660.96 298.705 Q1664.32 299.423 1666.19 301.691 Q1668.09 303.96 1668.09 307.293 Q1668.09 312.409 1664.57 315.21 Q1661.05 318.01 1654.57 318.01 Q1652.39 318.01 1650.08 317.571 Q1647.79 317.154 1645.33 316.298 L1645.33 311.784 Q1647.28 312.918 1649.59 313.497 Q1651.91 314.075 1654.43 314.075 Q1658.83 314.075 1661.12 312.339 Q1663.44 310.603 1663.44 307.293 Q1663.44 304.237 1661.28 302.524 Q1659.15 300.788 1655.33 300.788 L1651.31 300.788 L1651.31 296.946 L1655.52 296.946 Q1658.97 296.946 1660.8 295.58 Q1662.63 294.191 1662.63 291.599 Q1662.63 288.937 1660.73 287.525 Q1658.85 286.089 1655.33 286.089 Q1653.41 286.089 1651.21 286.506 Q1649.01 286.923 1646.38 287.802 L1646.38 283.636 Q1649.04 282.895 1651.35 282.525 Q1653.69 282.154 1655.75 282.154 Q1661.07 282.154 1664.18 284.585 Q1667.28 286.992 1667.28 291.112 Q1667.28 293.983 1665.63 295.974 Q1663.99 297.941 1660.96 298.705 Z" fill="#000000" fill-rule="nonzero" fill-opacity="1" /><path clip-path="url(#clip680)" d="M1691.98 295.812 L1721.65 295.812 L1721.65 299.7 L1691.98 299.7 L1691.98 295.812 M1691.98 305.256 L1721.65 305.256 L1721.65 309.191 L1691.98 309.191 L1691.98 305.256 Z" fill="#000000" fill-rule="nonzero" fill-opacity="1" /><path clip-path="url(#clip680)" d="M1746.86 282.779 L1765.22 282.779 L1765.22 286.714 L1751.14 286.714 L1751.14 295.187 Q1752.16 294.839 1753.18 294.677 Q1754.2 294.492 1755.22 294.492 Q1761 294.492 1764.38 297.663 Q1767.76 300.835 1767.76 306.251 Q1767.76 311.83 1764.29 314.932 Q1760.82 318.01 1754.5 318.01 Q1752.32 318.01 1750.06 317.64 Q1747.81 317.27 1745.4 316.529 L1745.4 311.83 Q1747.49 312.964 1749.71 313.52 Q1751.93 314.075 1754.41 314.075 Q1758.41 314.075 1760.75 311.969 Q1763.09 309.862 1763.09 306.251 Q1763.09 302.64 1760.75 300.534 Q1758.41 298.427 1754.41 298.427 Q1752.53 298.427 1750.66 298.844 Q1748.81 299.261 1746.86 300.14 L1746.86 282.779 Z" fill="#000000" fill-rule="nonzero" fill-opacity="1" /><path clip-path="url(#clip680)" d="M1781 313.404 L1797.32 313.404 L1797.32 317.339 L1775.38 317.339 L1775.38 313.404 Q1778.04 310.649 1782.62 306.02 Q1787.23 301.367 1788.41 300.024 Q1790.66 297.501 1791.54 295.765 Q1792.44 294.006 1792.44 292.316 Q1792.44 289.562 1790.5 287.825 Q1788.57 286.089 1785.47 286.089 Q1783.27 286.089 1780.82 286.853 Q1778.39 287.617 1775.61 289.168 L1775.61 284.446 Q1778.44 283.312 1780.89 282.733 Q1783.34 282.154 1785.38 282.154 Q1790.75 282.154 1793.94 284.839 Q1797.14 287.525 1797.14 292.015 Q1797.14 294.145 1796.33 296.066 Q1795.54 297.964 1793.44 300.557 Q1792.86 301.228 1789.75 304.446 Q1786.65 307.64 1781 313.404 Z" fill="#000000" fill-rule="nonzero" fill-opacity="1" /><path clip-path="url(#clip680)" d="M1819.99 286.853 L1808.18 305.302 L1819.99 305.302 L1819.99 286.853 M1818.76 282.779 L1824.64 282.779 L1824.64 305.302 L1829.57 305.302 L1829.57 309.191 L1824.64 309.191 L1824.64 317.339 L1819.99 317.339 L1819.99 309.191 L1804.38 309.191 L1804.38 304.677 L1818.76 282.779 Z" fill="#000000" fill-rule="nonzero" fill-opacity="1" /><path clip-path="url(#clip680)" d="M1841.33 313.404 L1857.65 313.404 L1857.65 317.339 L1835.7 317.339 L1835.7 313.404 Q1838.37 310.649 1842.95 306.02 Q1847.56 301.367 1848.74 300.024 Q1850.98 297.501 1851.86 295.765 Q1852.76 294.006 1852.76 292.316 Q1852.76 289.562 1850.82 287.825 Q1848.9 286.089 1845.8 286.089 Q1843.6 286.089 1841.14 286.853 Q1838.71 287.617 1835.93 289.168 L1835.93 284.446 Q1838.76 283.312 1841.21 282.733 Q1843.67 282.154 1845.7 282.154 Q1851.07 282.154 1854.27 284.839 Q1857.46 287.525 1857.46 292.015 Q1857.46 294.145 1856.65 296.066 Q1855.87 297.964 1853.76 300.557 Q1853.18 301.228 1850.08 304.446 Q1846.98 307.64 1841.33 313.404 Z" fill="#000000" fill-rule="nonzero" fill-opacity="1" /><path clip-path="url(#clip680)" d="M1877.46 300.927 Q1874.13 300.927 1872.21 302.71 Q1870.31 304.492 1870.31 307.617 Q1870.31 310.742 1872.21 312.524 Q1874.13 314.307 1877.46 314.307 Q1880.8 314.307 1882.72 312.524 Q1884.64 310.719 1884.64 307.617 Q1884.64 304.492 1882.72 302.71 Q1880.82 300.927 1877.46 300.927 M1872.79 298.937 Q1869.78 298.196 1868.09 296.136 Q1866.42 294.075 1866.42 291.112 Q1866.42 286.969 1869.36 284.562 Q1872.32 282.154 1877.46 282.154 Q1882.62 282.154 1885.56 284.562 Q1888.5 286.969 1888.5 291.112 Q1888.5 294.075 1886.81 296.136 Q1885.15 298.196 1882.16 298.937 Q1885.54 299.724 1887.42 302.015 Q1889.31 304.307 1889.31 307.617 Q1889.31 312.64 1886.24 315.325 Q1883.18 318.01 1877.46 318.01 Q1871.74 318.01 1868.67 315.325 Q1865.61 312.64 1865.61 307.617 Q1865.61 304.307 1867.51 302.015 Q1869.41 299.724 1872.79 298.937 M1871.07 291.552 Q1871.07 294.237 1872.74 295.742 Q1874.43 297.247 1877.46 297.247 Q1880.47 297.247 1882.16 295.742 Q1883.87 294.237 1883.87 291.552 Q1883.87 288.867 1882.16 287.362 Q1880.47 285.858 1877.46 285.858 Q1874.43 285.858 1872.74 287.362 Q1871.07 288.867 1871.07 291.552 Z" fill="#000000" fill-rule="nonzero" fill-opacity="1" /><path clip-path="url(#clip680)" d="M1907.62 300.927 Q1904.29 300.927 1902.37 302.71 Q1900.47 304.492 1900.47 307.617 Q1900.47 310.742 1902.37 312.524 Q1904.29 314.307 1907.62 314.307 Q1910.96 314.307 1912.88 312.524 Q1914.8 310.719 1914.8 307.617 Q1914.8 304.492 1912.88 302.71 Q1910.98 300.927 1907.62 300.927 M1902.95 298.937 Q1899.94 298.196 1898.25 296.136 Q1896.58 294.075 1896.58 291.112 Q1896.58 286.969 1899.52 284.562 Q1902.49 282.154 1907.62 282.154 Q1912.79 282.154 1915.73 284.562 Q1918.67 286.969 1918.67 291.112 Q1918.67 294.075 1916.98 296.136 Q1915.31 298.196 1912.32 298.937 Q1915.7 299.724 1917.58 302.015 Q1919.48 304.307 1919.48 307.617 Q1919.48 312.64 1916.4 315.325 Q1913.34 318.01 1907.62 318.01 Q1901.91 318.01 1898.83 315.325 Q1895.77 312.64 1895.77 307.617 Q1895.77 304.307 1897.67 302.015 Q1899.57 299.724 1902.95 298.937 M1901.24 291.552 Q1901.24 294.237 1902.9 295.742 Q1904.59 297.247 1907.62 297.247 Q1910.63 297.247 1912.32 295.742 Q1914.04 294.237 1914.04 291.552 Q1914.04 288.867 1912.32 287.362 Q1910.63 285.858 1907.62 285.858 Q1904.59 285.858 1902.9 287.362 Q1901.24 288.867 1901.24 291.552 Z" fill="#000000" fill-rule="nonzero" fill-opacity="1" /><path clip-path="url(#clip680)" d="M1952.49 281.367 Q1949.38 286.691 1947.88 291.9 Q1946.37 297.108 1946.37 302.455 Q1946.37 307.802 1947.88 313.057 Q1949.41 318.288 1952.49 323.589 L1948.78 323.589 Q1945.31 318.149 1943.57 312.895 Q1941.86 307.64 1941.86 302.455 Q1941.86 297.293 1943.57 292.062 Q1945.29 286.83 1948.78 281.367 L1952.49 281.367 Z" fill="#000000" fill-rule="nonzero" fill-opacity="1" /><path clip-path="url(#clip680)" d="M1962.16 313.404 L1969.8 313.404 L1969.8 287.038 L1961.49 288.705 L1961.49 284.446 L1969.75 282.779 L1974.43 282.779 L1974.43 313.404 L1982.07 313.404 L1982.07 317.339 L1962.16 317.339 L1962.16 313.404 Z" fill="#000000" fill-rule="nonzero" fill-opacity="1" /><path clip-path="url(#clip680)" d="M2002.09 298.196 Q1998.94 298.196 1997.09 300.349 Q1995.26 302.501 1995.26 306.251 Q1995.26 309.978 1997.09 312.154 Q1998.94 314.307 2002.09 314.307 Q2005.24 314.307 2007.07 312.154 Q2008.92 309.978 2008.92 306.251 Q2008.92 302.501 2007.07 300.349 Q2005.24 298.196 2002.09 298.196 M2011.37 283.543 L2011.37 287.802 Q2009.61 286.969 2007.81 286.529 Q2006.03 286.089 2004.27 286.089 Q1999.64 286.089 1997.18 289.214 Q1994.75 292.339 1994.41 298.659 Q1995.77 296.645 1997.83 295.58 Q1999.89 294.492 2002.37 294.492 Q2007.58 294.492 2010.59 297.663 Q2013.62 300.811 2013.62 306.251 Q2013.62 311.575 2010.47 314.793 Q2007.32 318.01 2002.09 318.01 Q1996.1 318.01 1992.92 313.427 Q1989.75 308.821 1989.75 300.094 Q1989.75 291.9 1993.64 287.038 Q1997.53 282.154 2004.08 282.154 Q2005.84 282.154 2007.62 282.501 Q2009.43 282.849 2011.37 283.543 Z" fill="#000000" fill-rule="nonzero" fill-opacity="1" /><path clip-path="url(#clip680)" d="M2035.84 298.705 Q2039.2 299.423 2041.07 301.691 Q2042.97 303.96 2042.97 307.293 Q2042.97 312.409 2039.45 315.21 Q2035.93 318.01 2029.45 318.01 Q2027.28 318.01 2024.96 317.571 Q2022.67 317.154 2020.22 316.298 L2020.22 311.784 Q2022.16 312.918 2024.48 313.497 Q2026.79 314.075 2029.31 314.075 Q2033.71 314.075 2036 312.339 Q2038.32 310.603 2038.32 307.293 Q2038.32 304.237 2036.17 302.524 Q2034.04 300.788 2030.22 300.788 L2026.19 300.788 L2026.19 296.946 L2030.4 296.946 Q2033.85 296.946 2035.68 295.58 Q2037.51 294.191 2037.51 291.599 Q2037.51 288.937 2035.61 287.525 Q2033.73 286.089 2030.22 286.089 Q2028.29 286.089 2026.1 286.506 Q2023.9 286.923 2021.26 287.802 L2021.26 283.636 Q2023.92 282.895 2026.23 282.525 Q2028.57 282.154 2030.63 282.154 Q2035.96 282.154 2039.06 284.585 Q2042.16 286.992 2042.16 291.112 Q2042.16 293.983 2040.52 295.974 Q2038.87 297.941 2035.84 298.705 Z" fill="#000000" fill-rule="nonzero" fill-opacity="1" /><path clip-path="url(#clip680)" d="M2061.84 300.927 Q2058.5 300.927 2056.58 302.71 Q2054.68 304.492 2054.68 307.617 Q2054.68 310.742 2056.58 312.524 Q2058.5 314.307 2061.84 314.307 Q2065.17 314.307 2067.09 312.524 Q2069.01 310.719 2069.01 307.617 Q2069.01 304.492 2067.09 302.71 Q2065.19 300.927 2061.84 300.927 M2057.16 298.937 Q2054.15 298.196 2052.46 296.136 Q2050.79 294.075 2050.79 291.112 Q2050.79 286.969 2053.73 284.562 Q2056.7 282.154 2061.84 282.154 Q2067 282.154 2069.94 284.562 Q2072.88 286.969 2072.88 291.112 Q2072.88 294.075 2071.19 296.136 Q2069.52 298.196 2066.54 298.937 Q2069.92 299.724 2071.79 302.015 Q2073.69 304.307 2073.69 307.617 Q2073.69 312.64 2070.61 315.325 Q2067.55 318.01 2061.84 318.01 Q2056.12 318.01 2053.04 315.325 Q2049.98 312.64 2049.98 307.617 Q2049.98 304.307 2051.88 302.015 Q2053.78 299.724 2057.16 298.937 M2055.45 291.552 Q2055.45 294.237 2057.11 295.742 Q2058.8 297.247 2061.84 297.247 Q2064.85 297.247 2066.54 295.742 Q2068.25 294.237 2068.25 291.552 Q2068.25 288.867 2066.54 287.362 Q2064.85 285.858 2061.84 285.858 Q2058.8 285.858 2057.11 287.362 Q2055.45 288.867 2055.45 291.552 Z" fill="#000000" fill-rule="nonzero" fill-opacity="1" /><path clip-path="url(#clip680)" d="M2094.85 286.853 L2083.04 305.302 L2094.85 305.302 L2094.85 286.853 M2093.62 282.779 L2099.5 282.779 L2099.5 305.302 L2104.43 305.302 L2104.43 309.191 L2099.5 309.191 L2099.5 317.339 L2094.85 317.339 L2094.85 309.191 L2079.24 309.191 L2079.24 304.677 L2093.62 282.779 Z" fill="#000000" fill-rule="nonzero" fill-opacity="1" /><path clip-path="url(#clip680)" d="M2112.16 311.46 L2117.04 311.46 L2117.04 317.339 L2112.16 317.339 L2112.16 311.46 Z" fill="#000000" fill-rule="nonzero" fill-opacity="1" /><path clip-path="url(#clip680)" d="M2137.23 285.858 Q2133.62 285.858 2131.79 289.423 Q2129.98 292.964 2129.98 300.094 Q2129.98 307.2 2131.79 310.765 Q2133.62 314.307 2137.23 314.307 Q2140.86 314.307 2142.67 310.765 Q2144.5 307.2 2144.5 300.094 Q2144.5 292.964 2142.67 289.423 Q2140.86 285.858 2137.23 285.858 M2137.23 282.154 Q2143.04 282.154 2146.1 286.761 Q2149.17 291.344 2149.17 300.094 Q2149.17 308.821 2146.1 313.427 Q2143.04 318.01 2137.23 318.01 Q2131.42 318.01 2128.34 313.427 Q2125.29 308.821 2125.29 300.094 Q2125.29 291.344 2128.34 286.761 Q2131.42 282.154 2137.23 282.154 Z" fill="#000000" fill-rule="nonzero" fill-opacity="1" /><path clip-path="url(#clip680)" d="M2172.04 282.779 L2176.72 282.779 L2176.72 297.386 L2192.23 282.779 L2198.25 282.779 L2181.09 298.89 L2199.47 317.339 L2193.32 317.339 L2176.72 300.696 L2176.72 317.339 L2172.04 317.339 L2172.04 282.779 Z" fill="#000000" fill-rule="nonzero" fill-opacity="1" /><path clip-path="url(#clip680)" d="M2202.95 291.413 L2207.21 291.413 L2207.21 317.339 L2202.95 317.339 L2202.95 291.413 M2202.95 281.321 L2207.21 281.321 L2207.21 286.714 L2202.95 286.714 L2202.95 281.321 Z" fill="#000000" fill-rule="nonzero" fill-opacity="1" /><path clip-path="url(#clip680)" d="M2220.98 300.835 L2220.98 313.497 L2228.48 313.497 Q2232.25 313.497 2234.06 311.946 Q2235.89 310.372 2235.89 307.154 Q2235.89 303.913 2234.06 302.386 Q2232.25 300.835 2228.48 300.835 L2220.98 300.835 M2220.98 286.622 L2220.98 297.038 L2227.9 297.038 Q2231.33 297.038 2232.99 295.765 Q2234.68 294.469 2234.68 291.83 Q2234.68 289.214 2232.99 287.918 Q2231.33 286.622 2227.9 286.622 L2220.98 286.622 M2216.3 282.779 L2228.25 282.779 Q2233.59 282.779 2236.49 285.001 Q2239.38 287.224 2239.38 291.321 Q2239.38 294.492 2237.9 296.367 Q2236.42 298.242 2233.55 298.705 Q2237 299.446 2238.9 301.807 Q2240.82 304.145 2240.82 307.663 Q2240.82 312.293 2237.67 314.816 Q2234.52 317.339 2228.71 317.339 L2216.3 317.339 L2216.3 282.779 Z" fill="#000000" fill-rule="nonzero" fill-opacity="1" /><path clip-path="url(#clip680)" d="M2247.97 281.367 L2251.67 281.367 Q2255.15 286.83 2256.86 292.062 Q2258.59 297.293 2258.59 302.455 Q2258.59 307.64 2256.86 312.895 Q2255.15 318.149 2251.67 323.589 L2247.97 323.589 Q2251.05 318.288 2252.55 313.057 Q2254.08 307.802 2254.08 302.455 Q2254.08 297.108 2252.55 291.9 Q2251.05 286.691 2247.97 281.367 Z" fill="#000000" fill-rule="nonzero" fill-opacity="1" /></svg>
