<?xml version="1.0" encoding="utf-8"?>
<svg xmlns="http://www.w3.org/2000/svg" xmlns:xlink="http://www.w3.org/1999/xlink" width="600" height="400" viewBox="0 0 2400 1600">
<defs>
  <clipPath id="clip060">
    <rect x="0" y="0" width="2400" height="1600"/>
  </clipPath>
</defs>
<path clip-path="url(#clip060)" d="M0 1600 L2400 1600 L2400 0 L0 0  Z" fill="#ffffff" fill-rule="evenodd" fill-opacity="1"/>
<defs>
  <clipPath id="clip061">
    <rect x="480" y="0" width="1681" height="1600"/>
  </clipPath>
</defs>
<path clip-path="url(#clip060)" d="M205.121 1410.9 L2352.76 1410.9 L2352.76 47.2441 L205.121 47.2441  Z" fill="#ffffff" fill-rule="evenodd" fill-opacity="1"/>
<defs>
  <clipPath id="clip062">
    <rect x="205" y="47" width="2149" height="1365"/>
  </clipPath>
</defs>
<polyline clip-path="url(#clip062)" style="stroke:#000000; stroke-linecap:round; stroke-linejoin:round; stroke-width:2; stroke-opacity:0.1; fill:none" points="795.431,1410.9 795.431,47.2441 "/>
<polyline clip-path="url(#clip062)" style="stroke:#000000; stroke-linecap:round; stroke-linejoin:round; stroke-width:2; stroke-opacity:0.1; fill:none" points="1858.14,1410.9 1858.14,47.2441 "/>
<polyline clip-path="url(#clip060)" style="stroke:#000000; stroke-linecap:round; stroke-linejoin:round; stroke-width:4; stroke-opacity:1; fill:none" points="205.121,1410.9 2352.76,1410.9 "/>
<polyline clip-path="url(#clip060)" style="stroke:#000000; stroke-linecap:round; stroke-linejoin:round; stroke-width:4; stroke-opacity:1; fill:none" points="205.121,47.2441 2352.76,47.2441 "/>
<polyline clip-path="url(#clip060)" style="stroke:#000000; stroke-linecap:round; stroke-linejoin:round; stroke-width:4; stroke-opacity:1; fill:none" points="795.431,1410.9 795.431,1392 "/>
<polyline clip-path="url(#clip060)" style="stroke:#000000; stroke-linecap:round; stroke-linejoin:round; stroke-width:4; stroke-opacity:1; fill:none" points="1858.14,1410.9 1858.14,1392 "/>
<path clip-path="url(#clip060)" d="M760.875 1485.02 L768.513 1485.02 L768.513 1458.66 L760.203 1460.32 L760.203 1456.06 L768.467 1454.4 L773.143 1454.4 L773.143 1485.02 L780.782 1485.02 L780.782 1488.96 L760.875 1488.96 L760.875 1485.02 Z" fill="#000000" fill-rule="nonzero" fill-opacity="1" /><path clip-path="url(#clip060)" d="M800.226 1457.48 Q796.615 1457.48 794.786 1461.04 Q792.981 1464.58 792.981 1471.71 Q792.981 1478.82 794.786 1482.38 Q796.615 1485.92 800.226 1485.92 Q803.86 1485.92 805.666 1482.38 Q807.495 1478.82 807.495 1471.71 Q807.495 1464.58 805.666 1461.04 Q803.86 1457.48 800.226 1457.48 M800.226 1453.77 Q806.036 1453.77 809.092 1458.38 Q812.171 1462.96 812.171 1471.71 Q812.171 1480.44 809.092 1485.04 Q806.036 1489.63 800.226 1489.63 Q794.416 1489.63 791.337 1485.04 Q788.282 1480.44 788.282 1471.71 Q788.282 1462.96 791.337 1458.38 Q794.416 1453.77 800.226 1453.77 Z" fill="#000000" fill-rule="nonzero" fill-opacity="1" /><path clip-path="url(#clip060)" d="M824.866 1446.41 Q827.593 1446.99 829.116 1448.83 Q830.659 1450.68 830.659 1453.38 Q830.659 1457.54 827.8 1459.82 Q824.941 1462.09 819.675 1462.09 Q817.907 1462.09 816.026 1461.73 Q814.164 1461.4 812.171 1460.7 L812.171 1457.03 Q813.75 1457.95 815.631 1458.42 Q817.512 1458.89 819.562 1458.89 Q823.136 1458.89 824.998 1457.48 Q826.878 1456.07 826.878 1453.38 Q826.878 1450.9 825.129 1449.51 Q823.399 1448.1 820.296 1448.1 L817.023 1448.1 L817.023 1444.98 L820.446 1444.98 Q823.248 1444.98 824.734 1443.87 Q826.22 1442.74 826.22 1440.63 Q826.22 1438.47 824.678 1437.32 Q823.154 1436.16 820.296 1436.16 Q818.735 1436.16 816.948 1436.49 Q815.161 1436.83 813.017 1437.55 L813.017 1434.16 Q815.18 1433.56 817.061 1433.26 Q818.96 1432.96 820.634 1432.96 Q824.96 1432.96 827.48 1434.93 Q830 1436.89 830 1440.24 Q830 1442.57 828.665 1444.19 Q827.33 1445.79 824.866 1446.41 Z" fill="#000000" fill-rule="nonzero" fill-opacity="1" /><path clip-path="url(#clip060)" d="M1823.13 1485.02 L1830.77 1485.02 L1830.77 1458.66 L1822.46 1460.32 L1822.46 1456.06 L1830.72 1454.4 L1835.4 1454.4 L1835.4 1485.02 L1843.03 1485.02 L1843.03 1488.96 L1823.13 1488.96 L1823.13 1485.02 Z" fill="#000000" fill-rule="nonzero" fill-opacity="1" /><path clip-path="url(#clip060)" d="M1862.48 1457.48 Q1858.87 1457.48 1857.04 1461.04 Q1855.23 1464.58 1855.23 1471.71 Q1855.23 1478.82 1857.04 1482.38 Q1858.87 1485.92 1862.48 1485.92 Q1866.11 1485.92 1867.92 1482.38 Q1869.75 1478.82 1869.75 1471.71 Q1869.75 1464.58 1867.92 1461.04 Q1866.11 1457.48 1862.48 1457.48 M1862.48 1453.77 Q1868.29 1453.77 1871.34 1458.38 Q1874.42 1462.96 1874.42 1471.71 Q1874.42 1480.44 1871.34 1485.04 Q1868.29 1489.63 1862.48 1489.63 Q1856.67 1489.63 1853.59 1485.04 Q1850.53 1480.44 1850.53 1471.71 Q1850.53 1462.96 1853.59 1458.38 Q1856.67 1453.77 1862.48 1453.77 Z" fill="#000000" fill-rule="nonzero" fill-opacity="1" /><path clip-path="url(#clip060)" d="M1884.45 1445.99 Q1881.89 1445.99 1880.39 1447.74 Q1878.9 1449.49 1878.9 1452.54 Q1878.9 1455.57 1880.39 1457.33 Q1881.89 1459.08 1884.45 1459.08 Q1887.01 1459.08 1888.49 1457.33 Q1890 1455.57 1890 1452.54 Q1890 1449.49 1888.49 1447.74 Q1887.01 1445.99 1884.45 1445.99 M1891.99 1434.09 L1891.99 1437.55 Q1890.56 1436.87 1889.09 1436.51 Q1887.65 1436.16 1886.22 1436.16 Q1882.45 1436.16 1880.46 1438.69 Q1878.49 1441.23 1878.2 1446.37 Q1879.31 1444.73 1880.99 1443.87 Q1882.66 1442.98 1884.67 1442.98 Q1888.91 1442.98 1891.35 1445.56 Q1893.81 1448.12 1893.81 1452.54 Q1893.81 1456.86 1891.26 1459.48 Q1888.7 1462.09 1884.45 1462.09 Q1879.58 1462.09 1877 1458.37 Q1874.42 1454.62 1874.42 1447.53 Q1874.42 1440.88 1877.58 1436.93 Q1880.74 1432.96 1886.07 1432.96 Q1887.5 1432.96 1888.94 1433.24 Q1890.41 1433.52 1891.99 1434.09 Z" fill="#000000" fill-rule="nonzero" fill-opacity="1" /><path clip-path="url(#clip060)" d="M1074.73 1538.54 L1080.93 1538.54 L1092.07 1568.46 L1103.21 1538.54 L1109.42 1538.54 L1096.05 1574.19 L1088.09 1574.19 L1074.73 1538.54 Z" fill="#000000" fill-rule="nonzero" fill-opacity="1" /><path clip-path="url(#clip060)" d="M1148 1554.9 L1148 1557.76 L1121.07 1557.76 Q1121.45 1563.81 1124.7 1566.99 Q1127.98 1570.14 1133.8 1570.14 Q1137.17 1570.14 1140.33 1569.32 Q1143.51 1568.49 1146.63 1566.83 L1146.63 1572.37 Q1143.48 1573.71 1140.17 1574.41 Q1136.86 1575.11 1133.45 1575.11 Q1124.92 1575.11 1119.92 1570.14 Q1114.96 1565.18 1114.96 1556.71 Q1114.96 1547.96 1119.67 1542.83 Q1124.41 1537.68 1132.43 1537.68 Q1139.62 1537.68 1143.79 1542.33 Q1148 1546.94 1148 1554.9 M1142.14 1553.18 Q1142.08 1548.37 1139.43 1545.51 Q1136.82 1542.64 1132.5 1542.64 Q1127.59 1542.64 1124.63 1545.41 Q1121.71 1548.18 1121.26 1553.21 L1142.14 1553.18 Z" fill="#000000" fill-rule="nonzero" fill-opacity="1" /><path clip-path="url(#clip060)" d="M1183.26 1539.91 L1183.26 1545.38 Q1180.78 1544.01 1178.26 1543.34 Q1175.78 1542.64 1173.24 1542.64 Q1167.54 1542.64 1164.39 1546.27 Q1161.24 1549.87 1161.24 1556.39 Q1161.24 1562.92 1164.39 1566.55 Q1167.54 1570.14 1173.24 1570.14 Q1175.78 1570.14 1178.26 1569.47 Q1180.78 1568.77 1183.26 1567.41 L1183.26 1572.82 Q1180.81 1573.96 1178.17 1574.54 Q1175.56 1575.11 1172.6 1575.11 Q1164.55 1575.11 1159.8 1570.05 Q1155.06 1564.99 1155.06 1556.39 Q1155.06 1547.67 1159.84 1542.68 Q1164.64 1537.68 1172.98 1537.68 Q1175.69 1537.68 1178.26 1538.25 Q1180.84 1538.79 1183.26 1539.91 Z" fill="#000000" fill-rule="nonzero" fill-opacity="1" /><path clip-path="url(#clip060)" d="M1199.24 1528.42 L1199.24 1538.54 L1211.3 1538.54 L1211.3 1543.09 L1199.24 1543.09 L1199.24 1562.44 Q1199.24 1566.8 1200.42 1568.04 Q1201.63 1569.28 1205.29 1569.28 L1211.3 1569.28 L1211.3 1574.19 L1205.29 1574.19 Q1198.51 1574.19 1195.93 1571.67 Q1193.35 1569.12 1193.35 1562.44 L1193.35 1543.09 L1189.05 1543.09 L1189.05 1538.54 L1193.35 1538.54 L1193.35 1528.42 L1199.24 1528.42 Z" fill="#000000" fill-rule="nonzero" fill-opacity="1" /><path clip-path="url(#clip060)" d="M1232.82 1542.64 Q1228.11 1542.64 1225.37 1546.34 Q1222.63 1550 1222.63 1556.39 Q1222.63 1562.79 1225.34 1566.48 Q1228.08 1570.14 1232.82 1570.14 Q1237.5 1570.14 1240.23 1566.45 Q1242.97 1562.76 1242.97 1556.39 Q1242.97 1550.06 1240.23 1546.37 Q1237.5 1542.64 1232.82 1542.64 M1232.82 1537.68 Q1240.46 1537.68 1244.82 1542.64 Q1249.18 1547.61 1249.18 1556.39 Q1249.18 1565.15 1244.82 1570.14 Q1240.46 1575.11 1232.82 1575.11 Q1225.15 1575.11 1220.79 1570.14 Q1216.46 1565.15 1216.46 1556.39 Q1216.46 1547.61 1220.79 1542.64 Q1225.15 1537.68 1232.82 1537.68 Z" fill="#000000" fill-rule="nonzero" fill-opacity="1" /><path clip-path="url(#clip060)" d="M1279.54 1544.01 Q1278.56 1543.44 1277.38 1543.18 Q1276.23 1542.9 1274.83 1542.9 Q1269.87 1542.9 1267.19 1546.14 Q1264.55 1549.36 1264.55 1555.41 L1264.55 1574.19 L1258.66 1574.19 L1258.66 1538.54 L1264.55 1538.54 L1264.55 1544.08 Q1266.4 1540.83 1269.36 1539.27 Q1272.32 1537.68 1276.55 1537.68 Q1277.16 1537.68 1277.89 1537.77 Q1278.62 1537.84 1279.51 1538 L1279.54 1544.01 Z" fill="#000000" fill-rule="nonzero" fill-opacity="1" /><path clip-path="url(#clip060)" d="M1329.13 1539.59 L1329.13 1545.13 Q1326.65 1543.85 1323.98 1543.22 Q1321.3 1542.58 1318.44 1542.58 Q1314.08 1542.58 1311.88 1543.92 Q1309.72 1545.25 1309.72 1547.93 Q1309.72 1549.96 1311.28 1551.14 Q1312.84 1552.29 1317.55 1553.34 L1319.55 1553.78 Q1325.79 1555.12 1328.4 1557.57 Q1331.04 1559.99 1331.04 1564.35 Q1331.04 1569.32 1327.1 1572.21 Q1323.18 1575.11 1316.31 1575.11 Q1313.44 1575.11 1310.32 1574.54 Q1307.23 1573.99 1303.8 1572.88 L1303.8 1566.83 Q1307.04 1568.52 1310.19 1569.38 Q1313.35 1570.21 1316.43 1570.21 Q1320.57 1570.21 1322.8 1568.81 Q1325.03 1567.37 1325.03 1564.8 Q1325.03 1562.41 1323.4 1561.14 Q1321.81 1559.86 1316.37 1558.68 L1314.33 1558.21 Q1308.89 1557.06 1306.47 1554.71 Q1304.05 1552.32 1304.05 1548.18 Q1304.05 1543.15 1307.62 1540.42 Q1311.18 1537.68 1317.74 1537.68 Q1320.98 1537.68 1323.85 1538.16 Q1326.71 1538.63 1329.13 1539.59 Z" fill="#000000" fill-rule="nonzero" fill-opacity="1" /><path clip-path="url(#clip060)" d="M1340.37 1538.54 L1346.22 1538.54 L1346.22 1574.19 L1340.37 1574.19 L1340.37 1538.54 M1340.37 1524.66 L1346.22 1524.66 L1346.22 1532.08 L1340.37 1532.08 L1340.37 1524.66 Z" fill="#000000" fill-rule="nonzero" fill-opacity="1" /><path clip-path="url(#clip060)" d="M1355.93 1538.54 L1383.75 1538.54 L1383.75 1543.88 L1361.72 1569.51 L1383.75 1569.51 L1383.75 1574.19 L1355.14 1574.19 L1355.14 1568.84 L1377.16 1543.22 L1355.93 1543.22 L1355.93 1538.54 Z" fill="#000000" fill-rule="nonzero" fill-opacity="1" /><path clip-path="url(#clip060)" d="M1423.19 1554.9 L1423.19 1557.76 L1396.26 1557.76 Q1396.64 1563.81 1399.89 1566.99 Q1403.17 1570.14 1408.99 1570.14 Q1412.36 1570.14 1415.51 1569.32 Q1418.7 1568.49 1421.82 1566.83 L1421.82 1572.37 Q1418.67 1573.71 1415.36 1574.41 Q1412.05 1575.11 1408.64 1575.11 Q1400.11 1575.11 1395.11 1570.14 Q1390.15 1565.18 1390.15 1556.71 Q1390.15 1547.96 1394.86 1542.83 Q1399.6 1537.68 1407.62 1537.68 Q1414.81 1537.68 1418.98 1542.33 Q1423.19 1546.94 1423.19 1554.9 M1417.33 1553.18 Q1417.27 1548.37 1414.62 1545.51 Q1412.01 1542.64 1407.68 1542.64 Q1402.78 1542.64 1399.82 1545.41 Q1396.89 1548.18 1396.45 1553.21 L1417.33 1553.18 Z" fill="#000000" fill-rule="nonzero" fill-opacity="1" /><path clip-path="url(#clip060)" d="M1483.15 1552.67 L1483.15 1574.19 L1477.29 1574.19 L1477.29 1552.86 Q1477.29 1547.8 1475.32 1545.29 Q1473.35 1542.77 1469.4 1542.77 Q1464.66 1542.77 1461.92 1545.79 Q1459.18 1548.82 1459.18 1554.04 L1459.18 1574.19 L1453.3 1574.19 L1453.3 1538.54 L1459.18 1538.54 L1459.18 1544.08 Q1461.28 1540.86 1464.12 1539.27 Q1466.98 1537.68 1470.71 1537.68 Q1476.85 1537.68 1480 1541.5 Q1483.15 1545.29 1483.15 1552.67 Z" fill="#000000" fill-rule="nonzero" fill-opacity="1" /><polyline clip-path="url(#clip062)" style="stroke:#000000; stroke-linecap:round; stroke-linejoin:round; stroke-width:2; stroke-opacity:0.1; fill:none" points="205.121,1214.98 2352.76,1214.98 "/>
<polyline clip-path="url(#clip062)" style="stroke:#000000; stroke-linecap:round; stroke-linejoin:round; stroke-width:2; stroke-opacity:0.1; fill:none" points="205.121,932.005 2352.76,932.005 "/>
<polyline clip-path="url(#clip062)" style="stroke:#000000; stroke-linecap:round; stroke-linejoin:round; stroke-width:2; stroke-opacity:0.1; fill:none" points="205.121,649.03 2352.76,649.03 "/>
<polyline clip-path="url(#clip062)" style="stroke:#000000; stroke-linecap:round; stroke-linejoin:round; stroke-width:2; stroke-opacity:0.1; fill:none" points="205.121,366.054 2352.76,366.054 "/>
<polyline clip-path="url(#clip062)" style="stroke:#000000; stroke-linecap:round; stroke-linejoin:round; stroke-width:2; stroke-opacity:0.1; fill:none" points="205.121,83.0791 2352.76,83.0791 "/>
<polyline clip-path="url(#clip060)" style="stroke:#000000; stroke-linecap:round; stroke-linejoin:round; stroke-width:4; stroke-opacity:1; fill:none" points="205.121,1410.9 205.121,47.2441 "/>
<polyline clip-path="url(#clip060)" style="stroke:#000000; stroke-linecap:round; stroke-linejoin:round; stroke-width:4; stroke-opacity:1; fill:none" points="2352.76,1410.9 2352.76,47.2441 "/>
<polyline clip-path="url(#clip060)" style="stroke:#000000; stroke-linecap:round; stroke-linejoin:round; stroke-width:4; stroke-opacity:1; fill:none" points="205.121,1214.98 224.019,1214.98 "/>
<polyline clip-path="url(#clip060)" style="stroke:#000000; stroke-linecap:round; stroke-linejoin:round; stroke-width:4; stroke-opacity:1; fill:none" points="205.121,932.005 224.019,932.005 "/>
<polyline clip-path="url(#clip060)" style="stroke:#000000; stroke-linecap:round; stroke-linejoin:round; stroke-width:4; stroke-opacity:1; fill:none" points="205.121,649.03 224.019,649.03 "/>
<polyline clip-path="url(#clip060)" style="stroke:#000000; stroke-linecap:round; stroke-linejoin:round; stroke-width:4; stroke-opacity:1; fill:none" points="205.121,366.054 224.019,366.054 "/>
<polyline clip-path="url(#clip060)" style="stroke:#000000; stroke-linecap:round; stroke-linejoin:round; stroke-width:4; stroke-opacity:1; fill:none" points="205.121,83.0791 224.019,83.0791 "/>
<path clip-path="url(#clip060)" d="M121.043 1228.33 L137.362 1228.33 L137.362 1232.26 L115.418 1232.26 L115.418 1228.33 Q118.08 1225.57 122.663 1220.94 Q127.269 1216.29 128.45 1214.95 Q130.695 1212.42 131.575 1210.69 Q132.478 1208.93 132.478 1207.24 Q132.478 1204.48 130.533 1202.75 Q128.612 1201.01 125.51 1201.01 Q123.311 1201.01 120.857 1201.77 Q118.427 1202.54 115.649 1204.09 L115.649 1199.37 Q118.473 1198.23 120.927 1197.65 Q123.38 1197.08 125.418 1197.08 Q130.788 1197.08 133.982 1199.76 Q137.177 1202.45 137.177 1206.94 Q137.177 1209.07 136.367 1210.99 Q135.579 1212.89 133.473 1215.48 Q132.894 1216.15 129.792 1219.37 Q126.691 1222.56 121.043 1228.33 Z" fill="#000000" fill-rule="nonzero" fill-opacity="1" /><path clip-path="url(#clip060)" d="M157.177 1200.78 Q153.566 1200.78 151.737 1204.34 Q149.931 1207.89 149.931 1215.02 Q149.931 1222.12 151.737 1225.69 Q153.566 1229.23 157.177 1229.23 Q160.811 1229.23 162.616 1225.69 Q164.445 1222.12 164.445 1215.02 Q164.445 1207.89 162.616 1204.34 Q160.811 1200.78 157.177 1200.78 M157.177 1197.08 Q162.987 1197.08 166.042 1201.68 Q169.121 1206.27 169.121 1215.02 Q169.121 1223.74 166.042 1228.35 Q162.987 1232.93 157.177 1232.93 Q151.366 1232.93 148.288 1228.35 Q145.232 1223.74 145.232 1215.02 Q145.232 1206.27 148.288 1201.68 Q151.366 1197.08 157.177 1197.08 Z" fill="#000000" fill-rule="nonzero" fill-opacity="1" /><path clip-path="url(#clip060)" d="M131.181 930.651 Q134.538 931.368 136.413 933.637 Q138.311 935.905 138.311 939.239 Q138.311 944.355 134.792 947.155 Q131.274 949.956 124.793 949.956 Q122.617 949.956 120.302 949.517 Q118.01 949.1 115.556 948.243 L115.556 943.73 Q117.501 944.864 119.816 945.442 Q122.13 946.021 124.654 946.021 Q129.052 946.021 131.343 944.285 Q133.658 942.549 133.658 939.239 Q133.658 936.183 131.505 934.47 Q129.376 932.734 125.556 932.734 L121.529 932.734 L121.529 928.892 L125.742 928.892 Q129.191 928.892 131.019 927.526 Q132.848 926.137 132.848 923.544 Q132.848 920.882 130.95 919.47 Q129.075 918.035 125.556 918.035 Q123.635 918.035 121.436 918.452 Q119.237 918.869 116.598 919.748 L116.598 915.582 Q119.26 914.841 121.575 914.47 Q123.913 914.1 125.973 914.1 Q131.297 914.1 134.399 916.531 Q137.501 918.938 137.501 923.058 Q137.501 925.929 135.857 927.919 Q134.214 929.887 131.181 930.651 Z" fill="#000000" fill-rule="nonzero" fill-opacity="1" /><path clip-path="url(#clip060)" d="M157.177 917.804 Q153.566 917.804 151.737 921.369 Q149.931 924.91 149.931 932.04 Q149.931 939.146 151.737 942.711 Q153.566 946.253 157.177 946.253 Q160.811 946.253 162.616 942.711 Q164.445 939.146 164.445 932.04 Q164.445 924.91 162.616 921.369 Q160.811 917.804 157.177 917.804 M157.177 914.1 Q162.987 914.1 166.042 918.707 Q169.121 923.29 169.121 932.04 Q169.121 940.767 166.042 945.373 Q162.987 949.956 157.177 949.956 Q151.366 949.956 148.288 945.373 Q145.232 940.767 145.232 932.04 Q145.232 923.29 148.288 918.707 Q151.366 914.1 157.177 914.1 Z" fill="#000000" fill-rule="nonzero" fill-opacity="1" /><path clip-path="url(#clip060)" d="M129.862 635.824 L118.056 654.273 L129.862 654.273 L129.862 635.824 M128.635 631.75 L134.515 631.75 L134.515 654.273 L139.445 654.273 L139.445 658.162 L134.515 658.162 L134.515 666.31 L129.862 666.31 L129.862 658.162 L114.26 658.162 L114.26 653.648 L128.635 631.75 Z" fill="#000000" fill-rule="nonzero" fill-opacity="1" /><path clip-path="url(#clip060)" d="M157.177 634.828 Q153.566 634.828 151.737 638.393 Q149.931 641.935 149.931 649.064 Q149.931 656.171 151.737 659.736 Q153.566 663.277 157.177 663.277 Q160.811 663.277 162.616 659.736 Q164.445 656.171 164.445 649.064 Q164.445 641.935 162.616 638.393 Q160.811 634.828 157.177 634.828 M157.177 631.125 Q162.987 631.125 166.042 635.731 Q169.121 640.315 169.121 649.064 Q169.121 657.791 166.042 662.398 Q162.987 666.981 157.177 666.981 Q151.366 666.981 148.288 662.398 Q145.232 657.791 145.232 649.064 Q145.232 640.315 148.288 635.731 Q151.366 631.125 157.177 631.125 Z" fill="#000000" fill-rule="nonzero" fill-opacity="1" /><path clip-path="url(#clip060)" d="M117.061 348.774 L135.417 348.774 L135.417 352.71 L121.343 352.71 L121.343 361.182 Q122.362 360.835 123.38 360.672 Q124.399 360.487 125.418 360.487 Q131.205 360.487 134.584 363.659 Q137.964 366.83 137.964 372.247 Q137.964 377.825 134.492 380.927 Q131.019 384.006 124.7 384.006 Q122.524 384.006 120.255 383.635 Q118.01 383.265 115.603 382.524 L115.603 377.825 Q117.686 378.959 119.908 379.515 Q122.13 380.071 124.607 380.071 Q128.612 380.071 130.95 377.964 Q133.288 375.858 133.288 372.247 Q133.288 368.635 130.95 366.529 Q128.612 364.422 124.607 364.422 Q122.732 364.422 120.857 364.839 Q119.006 365.256 117.061 366.135 L117.061 348.774 Z" fill="#000000" fill-rule="nonzero" fill-opacity="1" /><path clip-path="url(#clip060)" d="M157.177 351.853 Q153.566 351.853 151.737 355.418 Q149.931 358.96 149.931 366.089 Q149.931 373.196 151.737 376.76 Q153.566 380.302 157.177 380.302 Q160.811 380.302 162.616 376.76 Q164.445 373.196 164.445 366.089 Q164.445 358.96 162.616 355.418 Q160.811 351.853 157.177 351.853 M157.177 348.149 Q162.987 348.149 166.042 352.756 Q169.121 357.339 169.121 366.089 Q169.121 374.816 166.042 379.422 Q162.987 384.006 157.177 384.006 Q151.366 384.006 148.288 379.422 Q145.232 374.816 145.232 366.089 Q145.232 357.339 148.288 352.756 Q151.366 348.149 157.177 348.149 Z" fill="#000000" fill-rule="nonzero" fill-opacity="1" /><path clip-path="url(#clip060)" d="M127.593 81.2157 Q124.445 81.2157 122.593 83.3684 Q120.765 85.5212 120.765 89.2712 Q120.765 92.998 122.593 95.1739 Q124.445 97.3267 127.593 97.3267 Q130.742 97.3267 132.57 95.1739 Q134.422 92.998 134.422 89.2712 Q134.422 85.5212 132.57 83.3684 Q130.742 81.2157 127.593 81.2157 M136.876 66.563 L136.876 70.8222 Q135.117 69.9889 133.311 69.5491 Q131.529 69.1093 129.769 69.1093 Q125.14 69.1093 122.686 72.2342 Q120.255 75.3592 119.908 81.6786 Q121.274 79.6648 123.334 78.5999 Q125.394 77.512 127.871 77.512 Q133.08 77.512 136.089 80.6833 Q139.121 83.8314 139.121 89.2712 Q139.121 94.5952 135.973 97.8128 Q132.825 101.03 127.593 101.03 Q121.598 101.03 118.427 96.4471 Q115.256 91.8406 115.256 83.1138 Q115.256 74.9194 119.144 70.0583 Q123.033 65.1741 129.584 65.1741 Q131.343 65.1741 133.126 65.5213 Q134.931 65.8685 136.876 66.563 Z" fill="#000000" fill-rule="nonzero" fill-opacity="1" /><path clip-path="url(#clip060)" d="M157.177 68.8778 Q153.566 68.8778 151.737 72.4426 Q149.931 75.9842 149.931 83.1138 Q149.931 90.2203 151.737 93.7851 Q153.566 97.3267 157.177 97.3267 Q160.811 97.3267 162.616 93.7851 Q164.445 90.2203 164.445 83.1138 Q164.445 75.9842 162.616 72.4426 Q160.811 68.8778 157.177 68.8778 M157.177 65.1741 Q162.987 65.1741 166.042 69.7806 Q169.121 74.3639 169.121 83.1138 Q169.121 91.8406 166.042 96.4471 Q162.987 101.03 157.177 101.03 Q151.366 101.03 148.288 96.4471 Q145.232 91.8406 145.232 83.1138 Q145.232 74.3639 148.288 69.7806 Q151.366 65.1741 157.177 65.1741 Z" fill="#000000" fill-rule="nonzero" fill-opacity="1" /><path clip-path="url(#clip060)" d="M46.212 980.707 Q39.7508 980.707 36.0905 983.38 Q32.3984 986.022 32.3984 990.669 Q32.3984 995.316 36.0905 997.99 Q39.7508 1000.63 46.212 1000.63 Q52.6732 1000.63 56.3653 997.99 Q60.0256 995.316 60.0256 990.669 Q60.0256 986.022 56.3653 983.38 Q52.6732 980.707 46.212 980.707 M33.7671 1000.63 Q30.5842 998.785 29.0564 995.984 Q27.4968 993.152 27.4968 989.237 Q27.4968 982.744 32.6531 978.702 Q37.8093 974.628 46.212 974.628 Q54.6147 974.628 59.771 978.702 Q64.9272 982.744 64.9272 989.237 Q64.9272 993.152 63.3994 995.984 Q61.8398 998.785 58.657 1000.63 L64.0042 1000.63 L64.0042 1006.52 L14.479 1006.52 L14.479 1000.63 L33.7671 1000.63 Z" fill="#000000" fill-rule="nonzero" fill-opacity="1" /><path clip-path="url(#clip060)" d="M46.0847 948.719 Q46.0847 955.817 47.7079 958.554 Q49.3312 961.291 53.2461 961.291 Q56.3653 961.291 58.2114 959.254 Q60.0256 957.185 60.0256 953.652 Q60.0256 948.783 56.5881 945.855 Q53.1188 942.894 47.3897 942.894 L46.0847 942.894 L46.0847 948.719 M43.6657 937.038 L64.0042 937.038 L64.0042 942.894 L58.5933 942.894 Q61.8398 944.9 63.3994 947.892 Q64.9272 950.883 64.9272 955.212 Q64.9272 960.687 61.8716 963.933 Q58.7843 967.148 53.6281 967.148 Q47.6125 967.148 44.5569 963.137 Q41.5014 959.095 41.5014 951.106 L41.5014 942.894 L40.9285 942.894 Q36.8862 942.894 34.6901 945.568 Q32.4621 948.21 32.4621 953.016 Q32.4621 956.071 33.1941 958.968 Q33.9262 961.864 35.3903 964.538 L29.9795 964.538 Q28.7381 961.323 28.1334 958.299 Q27.4968 955.276 27.4968 952.411 Q27.4968 944.677 31.5072 940.857 Q35.5176 937.038 43.6657 937.038 Z" fill="#000000" fill-rule="nonzero" fill-opacity="1" /><path clip-path="url(#clip060)" d="M42.4881 895.343 L64.0042 895.343 L64.0042 901.199 L42.679 901.199 Q37.6183 901.199 35.1038 903.172 Q32.5894 905.146 32.5894 909.093 Q32.5894 913.835 35.6131 916.572 Q38.6368 919.31 43.8567 919.31 L64.0042 919.31 L64.0042 925.198 L28.3562 925.198 L28.3562 919.31 L33.8944 919.31 Q30.6797 917.209 29.0883 914.376 Q27.4968 911.512 27.4968 907.788 Q27.4968 901.645 31.3163 898.494 Q35.1038 895.343 42.4881 895.343 Z" fill="#000000" fill-rule="nonzero" fill-opacity="1" /><path clip-path="url(#clip060)" d="M33.7671 860.204 L14.479 860.204 L14.479 854.347 L64.0042 854.347 L64.0042 860.204 L58.657 860.204 Q61.8398 862.05 63.3994 864.883 Q64.9272 867.684 64.9272 871.63 Q64.9272 878.092 59.771 882.166 Q54.6147 886.208 46.212 886.208 Q37.8093 886.208 32.6531 882.166 Q27.4968 878.092 27.4968 871.63 Q27.4968 867.684 29.0564 864.883 Q30.5842 862.05 33.7671 860.204 M46.212 880.16 Q52.6732 880.16 56.3653 877.519 Q60.0256 874.845 60.0256 870.198 Q60.0256 865.551 56.3653 862.878 Q52.6732 860.204 46.212 860.204 Q39.7508 860.204 36.0905 862.878 Q32.3984 865.551 32.3984 870.198 Q32.3984 874.845 36.0905 877.519 Q39.7508 880.16 46.212 880.16 Z" fill="#000000" fill-rule="nonzero" fill-opacity="1" /><path clip-path="url(#clip060)" d="M28.3562 845.69 L28.3562 839.834 L56.1743 832.513 L28.3562 825.224 L28.3562 818.318 L56.1743 810.997 L28.3562 803.708 L28.3562 797.852 L64.0042 807.178 L64.0042 814.084 L34.7856 821.755 L64.0042 829.458 L64.0042 836.364 L28.3562 845.69 Z" fill="#000000" fill-rule="nonzero" fill-opacity="1" /><path clip-path="url(#clip060)" d="M28.3562 788.972 L28.3562 783.115 L64.0042 783.115 L64.0042 788.972 L28.3562 788.972 M14.479 788.972 L14.479 783.115 L21.895 783.115 L21.895 788.972 L14.479 788.972 Z" fill="#000000" fill-rule="nonzero" fill-opacity="1" /><path clip-path="url(#clip060)" d="M33.7671 747.404 L14.479 747.404 L14.479 741.547 L64.0042 741.547 L64.0042 747.404 L58.657 747.404 Q61.8398 749.25 63.3994 752.082 Q64.9272 754.883 64.9272 758.83 Q64.9272 765.291 59.771 769.365 Q54.6147 773.408 46.212 773.408 Q37.8093 773.408 32.6531 769.365 Q27.4968 765.291 27.4968 758.83 Q27.4968 754.883 29.0564 752.082 Q30.5842 749.25 33.7671 747.404 M46.212 767.36 Q52.6732 767.36 56.3653 764.718 Q60.0256 762.045 60.0256 757.398 Q60.0256 752.751 56.3653 750.077 Q52.6732 747.404 46.212 747.404 Q39.7508 747.404 36.0905 750.077 Q32.3984 752.751 32.3984 757.398 Q32.3984 762.045 36.0905 764.718 Q39.7508 767.36 46.212 767.36 Z" fill="#000000" fill-rule="nonzero" fill-opacity="1" /><path clip-path="url(#clip060)" d="M18.2347 723.691 L28.3562 723.691 L28.3562 711.628 L32.9077 711.628 L32.9077 723.691 L52.2594 723.691 Q56.6199 723.691 57.8613 722.514 Q59.1026 721.304 59.1026 717.644 L59.1026 711.628 L64.0042 711.628 L64.0042 717.644 Q64.0042 724.423 61.4897 727.002 Q58.9434 729.58 52.2594 729.58 L32.9077 729.58 L32.9077 733.876 L28.3562 733.876 L28.3562 729.58 L18.2347 729.58 L18.2347 723.691 Z" fill="#000000" fill-rule="nonzero" fill-opacity="1" /><path clip-path="url(#clip060)" d="M42.4881 674.293 L64.0042 674.293 L64.0042 680.15 L42.679 680.15 Q37.6183 680.15 35.1038 682.123 Q32.5894 684.097 32.5894 688.043 Q32.5894 692.786 35.6131 695.523 Q38.6368 698.26 43.8567 698.26 L64.0042 698.26 L64.0042 704.149 L14.479 704.149 L14.479 698.26 L33.8944 698.26 Q30.6797 696.16 29.0883 693.327 Q27.4968 690.462 27.4968 686.738 Q27.4968 680.596 31.3163 677.444 Q35.1038 674.293 42.4881 674.293 Z" fill="#000000" fill-rule="nonzero" fill-opacity="1" /><path clip-path="url(#clip060)" d="M14.479 642.433 L14.479 628.938 L19.0304 628.938 L19.0304 636.577 L68.0464 636.577 L68.0464 628.938 L72.5979 628.938 L72.5979 642.433 L14.479 642.433 Z" fill="#000000" fill-rule="nonzero" fill-opacity="1" /><path clip-path="url(#clip060)" d="M57.2247 583.805 L44.4614 583.805 L44.4614 594.308 L39.1779 594.308 L39.1779 577.439 L59.58 577.439 Q62.2218 581.163 63.5904 585.651 Q64.9272 590.139 64.9272 595.231 Q64.9272 606.371 58.4342 612.673 Q51.9093 618.944 40.2919 618.944 Q28.6427 618.944 22.1496 612.673 Q15.6248 606.371 15.6248 595.231 Q15.6248 590.584 16.7706 586.415 Q17.9164 582.214 20.1444 578.681 L26.9876 578.681 Q23.9639 582.245 22.4361 586.256 Q20.9083 590.266 20.9083 594.69 Q20.9083 603.411 25.7781 607.804 Q30.6479 612.164 40.2919 612.164 Q49.9041 612.164 54.7739 607.804 Q59.6436 603.411 59.6436 594.69 Q59.6436 591.285 59.0707 588.611 Q58.466 585.937 57.2247 583.805 Z" fill="#000000" fill-rule="nonzero" fill-opacity="1" /><path clip-path="url(#clip060)" d="M41.3104 559.265 L58.7206 559.265 L58.7206 548.953 Q58.7206 543.765 56.5881 541.282 Q54.4238 538.768 49.9996 538.768 Q45.5436 538.768 43.4429 541.282 Q41.3104 543.765 41.3104 548.953 L41.3104 559.265 M21.7677 559.265 L36.0905 559.265 L36.0905 549.748 Q36.0905 545.038 34.34 542.746 Q32.5576 540.423 28.9291 540.423 Q25.3325 540.423 23.5501 542.746 Q21.7677 545.038 21.7677 549.748 L21.7677 559.265 M16.4842 565.695 L16.4842 549.271 Q16.4842 541.919 19.5397 537.94 Q22.5952 533.961 28.2289 533.961 Q32.5894 533.961 35.1675 535.998 Q37.7456 538.036 38.3822 541.982 Q39.4007 537.24 42.6472 534.63 Q45.8619 531.988 50.6998 531.988 Q57.0655 531.988 60.5348 536.317 Q64.0042 540.645 64.0042 548.634 L64.0042 565.695 L16.4842 565.695 Z" fill="#000000" fill-rule="nonzero" fill-opacity="1" /><path clip-path="url(#clip060)" d="M16.4842 510.822 L16.4842 505.411 L70.0516 521.962 L70.0516 527.373 L16.4842 510.822 Z" fill="#000000" fill-rule="nonzero" fill-opacity="1" /><path clip-path="url(#clip060)" d="M29.4065 476.543 L34.9447 476.543 Q33.6716 479.025 33.035 481.699 Q32.3984 484.373 32.3984 487.237 Q32.3984 491.598 33.7352 493.794 Q35.072 495.958 37.7456 495.958 Q39.7826 495.958 40.9603 494.399 Q42.1061 492.839 43.1565 488.128 L43.6021 486.123 Q44.9389 479.885 47.3897 477.275 Q49.8086 474.633 54.1691 474.633 Q59.1344 474.633 62.0308 478.58 Q64.9272 482.495 64.9272 489.37 Q64.9272 492.234 64.3543 495.353 Q63.8132 498.441 62.6992 501.878 L56.6518 501.878 Q58.3387 498.632 59.198 495.481 Q60.0256 492.33 60.0256 489.242 Q60.0256 485.105 58.6251 482.877 Q57.1929 480.649 54.6147 480.649 Q52.2276 480.649 50.9545 482.272 Q49.6813 483.863 48.5037 489.306 L48.0262 491.343 Q46.8804 496.786 44.5251 499.205 Q42.138 501.624 38.0002 501.624 Q32.9713 501.624 30.2341 498.059 Q27.4968 494.494 27.4968 487.937 Q27.4968 484.691 27.9743 481.826 Q28.4517 478.962 29.4065 476.543 Z" fill="#000000" fill-rule="nonzero" fill-opacity="1" /><path clip-path="url(#clip060)" d="M14.479 451.621 L72.5979 451.621 L72.5979 465.116 L68.0464 465.116 L68.0464 457.509 L19.0304 457.509 L19.0304 465.116 L14.479 465.116 L14.479 451.621 Z" fill="#000000" fill-rule="nonzero" fill-opacity="1" /><polyline clip-path="url(#clip062)" style="stroke:#009af9; stroke-linecap:round; stroke-linejoin:round; stroke-width:4; stroke-opacity:1; fill:none" points="265.903,738.735 372.538,614.023 434.916,323.789 479.174,416.919 541.551,339.551 603.929,411.574 648.187,174.607 701.771,340.606 748.274,85.838 799.08,298.73 861.457,409.798 900.831,304.355 940.044,232.533 980.406,320.824 1021.68,216.866 1063.08,274.23 1103.84,192.732 1144.41,268.965 1184.54,150.084 1225.62,264.779 1288,143.449 1339.88,377.469 1392.62,305.162 1444.79,376.608 1497.21,207.461 1549.53,432.793 1601.77,518.009 1654.1,394.35 1706.47,330.186 1758.8,432.178 1821.17,1065.82 1888.42,1321.04 1955.69,1322.41 2022.94,1328.76 2090.2,1321.58 2157.46,1332.82 2224.72,1321.47 2291.97,1372.3 "/>
<circle clip-path="url(#clip062)" cx="265.903" cy="738.735" r="7.2" fill="#009af9" fill-rule="evenodd" fill-opacity="1" stroke="#000000" stroke-opacity="1" stroke-width="3.2"/>
<circle clip-path="url(#clip062)" cx="372.538" cy="614.023" r="7.2" fill="#009af9" fill-rule="evenodd" fill-opacity="1" stroke="#000000" stroke-opacity="1" stroke-width="3.2"/>
<circle clip-path="url(#clip062)" cx="434.916" cy="323.789" r="7.2" fill="#009af9" fill-rule="evenodd" fill-opacity="1" stroke="#000000" stroke-opacity="1" stroke-width="3.2"/>
<circle clip-path="url(#clip062)" cx="479.174" cy="416.919" r="7.2" fill="#009af9" fill-rule="evenodd" fill-opacity="1" stroke="#000000" stroke-opacity="1" stroke-width="3.2"/>
<circle clip-path="url(#clip062)" cx="541.551" cy="339.551" r="7.2" fill="#009af9" fill-rule="evenodd" fill-opacity="1" stroke="#000000" stroke-opacity="1" stroke-width="3.2"/>
<circle clip-path="url(#clip062)" cx="603.929" cy="411.574" r="7.2" fill="#009af9" fill-rule="evenodd" fill-opacity="1" stroke="#000000" stroke-opacity="1" stroke-width="3.2"/>
<circle clip-path="url(#clip062)" cx="648.187" cy="174.607" r="7.2" fill="#009af9" fill-rule="evenodd" fill-opacity="1" stroke="#000000" stroke-opacity="1" stroke-width="3.2"/>
<circle clip-path="url(#clip062)" cx="701.771" cy="340.606" r="7.2" fill="#009af9" fill-rule="evenodd" fill-opacity="1" stroke="#000000" stroke-opacity="1" stroke-width="3.2"/>
<circle clip-path="url(#clip062)" cx="748.274" cy="85.838" r="7.2" fill="#009af9" fill-rule="evenodd" fill-opacity="1" stroke="#000000" stroke-opacity="1" stroke-width="3.2"/>
<circle clip-path="url(#clip062)" cx="799.08" cy="298.73" r="7.2" fill="#009af9" fill-rule="evenodd" fill-opacity="1" stroke="#000000" stroke-opacity="1" stroke-width="3.2"/>
<circle clip-path="url(#clip062)" cx="861.457" cy="409.798" r="7.2" fill="#009af9" fill-rule="evenodd" fill-opacity="1" stroke="#000000" stroke-opacity="1" stroke-width="3.2"/>
<circle clip-path="url(#clip062)" cx="900.831" cy="304.355" r="7.2" fill="#009af9" fill-rule="evenodd" fill-opacity="1" stroke="#000000" stroke-opacity="1" stroke-width="3.2"/>
<circle clip-path="url(#clip062)" cx="940.044" cy="232.533" r="7.2" fill="#009af9" fill-rule="evenodd" fill-opacity="1" stroke="#000000" stroke-opacity="1" stroke-width="3.2"/>
<circle clip-path="url(#clip062)" cx="980.406" cy="320.824" r="7.2" fill="#009af9" fill-rule="evenodd" fill-opacity="1" stroke="#000000" stroke-opacity="1" stroke-width="3.2"/>
<circle clip-path="url(#clip062)" cx="1021.68" cy="216.866" r="7.2" fill="#009af9" fill-rule="evenodd" fill-opacity="1" stroke="#000000" stroke-opacity="1" stroke-width="3.2"/>
<circle clip-path="url(#clip062)" cx="1063.08" cy="274.23" r="7.2" fill="#009af9" fill-rule="evenodd" fill-opacity="1" stroke="#000000" stroke-opacity="1" stroke-width="3.2"/>
<circle clip-path="url(#clip062)" cx="1103.84" cy="192.732" r="7.2" fill="#009af9" fill-rule="evenodd" fill-opacity="1" stroke="#000000" stroke-opacity="1" stroke-width="3.2"/>
<circle clip-path="url(#clip062)" cx="1144.41" cy="268.965" r="7.2" fill="#009af9" fill-rule="evenodd" fill-opacity="1" stroke="#000000" stroke-opacity="1" stroke-width="3.2"/>
<circle clip-path="url(#clip062)" cx="1184.54" cy="150.084" r="7.2" fill="#009af9" fill-rule="evenodd" fill-opacity="1" stroke="#000000" stroke-opacity="1" stroke-width="3.2"/>
<circle clip-path="url(#clip062)" cx="1225.62" cy="264.779" r="7.2" fill="#009af9" fill-rule="evenodd" fill-opacity="1" stroke="#000000" stroke-opacity="1" stroke-width="3.2"/>
<circle clip-path="url(#clip062)" cx="1288" cy="143.449" r="7.2" fill="#009af9" fill-rule="evenodd" fill-opacity="1" stroke="#000000" stroke-opacity="1" stroke-width="3.2"/>
<circle clip-path="url(#clip062)" cx="1339.88" cy="377.469" r="7.2" fill="#009af9" fill-rule="evenodd" fill-opacity="1" stroke="#000000" stroke-opacity="1" stroke-width="3.2"/>
<circle clip-path="url(#clip062)" cx="1392.62" cy="305.162" r="7.2" fill="#009af9" fill-rule="evenodd" fill-opacity="1" stroke="#000000" stroke-opacity="1" stroke-width="3.2"/>
<circle clip-path="url(#clip062)" cx="1444.79" cy="376.608" r="7.2" fill="#009af9" fill-rule="evenodd" fill-opacity="1" stroke="#000000" stroke-opacity="1" stroke-width="3.2"/>
<circle clip-path="url(#clip062)" cx="1497.21" cy="207.461" r="7.2" fill="#009af9" fill-rule="evenodd" fill-opacity="1" stroke="#000000" stroke-opacity="1" stroke-width="3.2"/>
<circle clip-path="url(#clip062)" cx="1549.53" cy="432.793" r="7.2" fill="#009af9" fill-rule="evenodd" fill-opacity="1" stroke="#000000" stroke-opacity="1" stroke-width="3.2"/>
<circle clip-path="url(#clip062)" cx="1601.77" cy="518.009" r="7.2" fill="#009af9" fill-rule="evenodd" fill-opacity="1" stroke="#000000" stroke-opacity="1" stroke-width="3.2"/>
<circle clip-path="url(#clip062)" cx="1654.1" cy="394.35" r="7.2" fill="#009af9" fill-rule="evenodd" fill-opacity="1" stroke="#000000" stroke-opacity="1" stroke-width="3.2"/>
<circle clip-path="url(#clip062)" cx="1706.47" cy="330.186" r="7.2" fill="#009af9" fill-rule="evenodd" fill-opacity="1" stroke="#000000" stroke-opacity="1" stroke-width="3.2"/>
<circle clip-path="url(#clip062)" cx="1758.8" cy="432.178" r="7.2" fill="#009af9" fill-rule="evenodd" fill-opacity="1" stroke="#000000" stroke-opacity="1" stroke-width="3.2"/>
<circle clip-path="url(#clip062)" cx="1821.17" cy="1065.82" r="7.2" fill="#009af9" fill-rule="evenodd" fill-opacity="1" stroke="#000000" stroke-opacity="1" stroke-width="3.2"/>
<circle clip-path="url(#clip062)" cx="1888.42" cy="1321.04" r="7.2" fill="#009af9" fill-rule="evenodd" fill-opacity="1" stroke="#000000" stroke-opacity="1" stroke-width="3.2"/>
<circle clip-path="url(#clip062)" cx="1955.69" cy="1322.41" r="7.2" fill="#009af9" fill-rule="evenodd" fill-opacity="1" stroke="#000000" stroke-opacity="1" stroke-width="3.2"/>
<circle clip-path="url(#clip062)" cx="2022.94" cy="1328.76" r="7.2" fill="#009af9" fill-rule="evenodd" fill-opacity="1" stroke="#000000" stroke-opacity="1" stroke-width="3.2"/>
<circle clip-path="url(#clip062)" cx="2090.2" cy="1321.58" r="7.2" fill="#009af9" fill-rule="evenodd" fill-opacity="1" stroke="#000000" stroke-opacity="1" stroke-width="3.2"/>
<circle clip-path="url(#clip062)" cx="2157.46" cy="1332.82" r="7.2" fill="#009af9" fill-rule="evenodd" fill-opacity="1" stroke="#000000" stroke-opacity="1" stroke-width="3.2"/>
<circle clip-path="url(#clip062)" cx="2224.72" cy="1321.47" r="7.2" fill="#009af9" fill-rule="evenodd" fill-opacity="1" stroke="#000000" stroke-opacity="1" stroke-width="3.2"/>
<circle clip-path="url(#clip062)" cx="2291.97" cy="1372.3" r="7.2" fill="#009af9" fill-rule="evenodd" fill-opacity="1" stroke="#000000" stroke-opacity="1" stroke-width="3.2"/>
<polyline clip-path="url(#clip062)" style="stroke:#ffa500; stroke-linecap:round; stroke-linejoin:round; stroke-width:8; stroke-opacity:1; fill:none" points="799.08,2774.55 799.08,-1316.41 "/>
<polyline clip-path="url(#clip062)" style="stroke:#ff0000; stroke-linecap:round; stroke-linejoin:round; stroke-width:8; stroke-opacity:1; fill:none" points="1225.62,2774.55 1225.62,-1316.41 "/>
<polyline clip-path="url(#clip062)" style="stroke:#800080; stroke-linecap:round; stroke-linejoin:round; stroke-width:8; stroke-opacity:1; fill:none" points="1758.8,2774.55 1758.8,-1316.41 "/>
<path clip-path="url(#clip060)" d="M1427.77 351.899 L2281.17 351.899 L2281.17 92.6992 L1427.77 92.6992  Z" fill="#ffffff" fill-rule="evenodd" fill-opacity="1"/>
<polyline clip-path="url(#clip060)" style="stroke:#000000; stroke-linecap:round; stroke-linejoin:round; stroke-width:4; stroke-opacity:1; fill:none" points="1427.77,351.899 2281.17,351.899 2281.17,92.6992 1427.77,92.6992 1427.77,351.899 "/>
<polyline clip-path="url(#clip060)" style="stroke:#009af9; stroke-linecap:round; stroke-linejoin:round; stroke-width:4; stroke-opacity:1; fill:none" points="1451.64,144.539 1594.81,144.539 "/>
<circle clip-path="url(#clip060)" cx="1523.22" cy="144.539" r="18.432" fill="#009af9" fill-rule="evenodd" fill-opacity="1" stroke="#000000" stroke-opacity="1" stroke-width="8.192"/>
<path clip-path="url(#clip060)" d="M1637.1 136.657 L1637.1 140.685 Q1635.29 139.759 1633.35 139.296 Q1631.41 138.833 1629.32 138.833 Q1626.15 138.833 1624.55 139.805 Q1622.98 140.778 1622.98 142.722 Q1622.98 144.204 1624.11 145.06 Q1625.25 145.893 1628.67 146.657 L1630.13 146.981 Q1634.67 147.954 1636.57 149.736 Q1638.49 151.495 1638.49 154.666 Q1638.49 158.278 1635.62 160.384 Q1632.77 162.49 1627.77 162.49 Q1625.69 162.49 1623.42 162.074 Q1621.17 161.68 1618.67 160.87 L1618.67 156.472 Q1621.04 157.699 1623.33 158.324 Q1625.62 158.926 1627.86 158.926 Q1630.87 158.926 1632.49 157.907 Q1634.11 156.866 1634.11 154.991 Q1634.11 153.254 1632.93 152.328 Q1631.78 151.403 1627.82 150.546 L1626.34 150.199 Q1622.38 149.366 1620.62 147.653 Q1618.86 145.916 1618.86 142.907 Q1618.86 139.25 1621.45 137.259 Q1624.04 135.268 1628.81 135.268 Q1631.17 135.268 1633.26 135.616 Q1635.34 135.963 1637.1 136.657 Z" fill="#000000" fill-rule="nonzero" fill-opacity="1" /><path clip-path="url(#clip060)" d="M1662.33 139.829 L1662.33 125.801 L1666.59 125.801 L1666.59 161.819 L1662.33 161.819 L1662.33 157.93 Q1660.99 160.245 1658.93 161.379 Q1656.89 162.49 1654.02 162.49 Q1649.32 162.49 1646.36 158.74 Q1643.42 154.991 1643.42 148.879 Q1643.42 142.768 1646.36 139.018 Q1649.32 135.268 1654.02 135.268 Q1656.89 135.268 1658.93 136.403 Q1660.99 137.514 1662.33 139.829 M1647.82 148.879 Q1647.82 153.578 1649.74 156.264 Q1651.68 158.926 1655.06 158.926 Q1658.44 158.926 1660.39 156.264 Q1662.33 153.578 1662.33 148.879 Q1662.33 144.18 1660.39 141.518 Q1658.44 138.833 1655.06 138.833 Q1651.68 138.833 1649.74 141.518 Q1647.82 144.18 1647.82 148.879 Z" fill="#000000" fill-rule="nonzero" fill-opacity="1" /><path clip-path="url(#clip060)" d="M1687.15 148.787 Q1681.98 148.787 1679.99 149.967 Q1678 151.148 1678 153.995 Q1678 156.264 1679.48 157.606 Q1680.99 158.926 1683.56 158.926 Q1687.1 158.926 1689.23 156.426 Q1691.38 153.903 1691.38 149.736 L1691.38 148.787 L1687.15 148.787 M1695.64 147.028 L1695.64 161.819 L1691.38 161.819 L1691.38 157.884 Q1689.92 160.245 1687.75 161.379 Q1685.57 162.49 1682.42 162.49 Q1678.44 162.49 1676.08 160.268 Q1673.74 158.023 1673.74 154.273 Q1673.74 149.898 1676.66 147.676 Q1679.6 145.454 1685.41 145.454 L1691.38 145.454 L1691.38 145.037 Q1691.38 142.097 1689.44 140.5 Q1687.52 138.879 1684.02 138.879 Q1681.8 138.879 1679.69 139.412 Q1677.59 139.944 1675.64 141.009 L1675.64 137.074 Q1677.98 136.171 1680.18 135.731 Q1682.38 135.268 1684.46 135.268 Q1690.09 135.268 1692.86 138.185 Q1695.64 141.102 1695.64 147.028 Z" fill="#000000" fill-rule="nonzero" fill-opacity="1" /><path clip-path="url(#clip060)" d="M1725.97 135.893 L1716.59 148.509 L1726.45 161.819 L1721.43 161.819 L1713.88 151.634 L1706.34 161.819 L1701.31 161.819 L1711.38 148.254 L1702.17 135.893 L1707.19 135.893 L1714.07 145.129 L1720.94 135.893 L1725.97 135.893 Z" fill="#000000" fill-rule="nonzero" fill-opacity="1" /><path clip-path="url(#clip060)" d="M1736.59 157.93 L1736.59 171.68 L1732.31 171.68 L1732.31 135.893 L1736.59 135.893 L1736.59 139.829 Q1737.93 137.514 1739.97 136.403 Q1742.03 135.268 1744.88 135.268 Q1749.6 135.268 1752.54 139.018 Q1755.5 142.768 1755.5 148.879 Q1755.5 154.991 1752.54 158.74 Q1749.6 162.49 1744.88 162.49 Q1742.03 162.49 1739.97 161.379 Q1737.93 160.245 1736.59 157.93 M1751.08 148.879 Q1751.08 144.18 1749.14 141.518 Q1747.22 138.833 1743.84 138.833 Q1740.46 138.833 1738.51 141.518 Q1736.59 144.18 1736.59 148.879 Q1736.59 153.578 1738.51 156.264 Q1740.46 158.926 1743.84 158.926 Q1747.22 158.926 1749.14 156.264 Q1751.08 153.578 1751.08 148.879 Z" fill="#000000" fill-rule="nonzero" fill-opacity="1" /><path clip-path="url(#clip060)" d="M1773.35 164.227 Q1771.54 168.856 1769.83 170.268 Q1768.12 171.68 1765.25 171.68 L1761.85 171.68 L1761.85 168.115 L1764.35 168.115 Q1766.1 168.115 1767.08 167.282 Q1768.05 166.449 1769.23 163.347 L1769.99 161.403 L1759.51 135.893 L1764.02 135.893 L1772.12 156.171 L1780.22 135.893 L1784.74 135.893 L1773.35 164.227 Z" fill="#000000" fill-rule="nonzero" fill-opacity="1" /><path clip-path="url(#clip060)" d="M1793.3 155.94 L1798 155.94 L1798 161.819 L1793.3 161.819 L1793.3 155.94 M1793.3 127.259 L1798 127.259 L1798 142.421 L1797.54 150.685 L1793.79 150.685 L1793.3 142.421 L1793.3 127.259 Z" fill="#000000" fill-rule="nonzero" fill-opacity="1" /><polyline clip-path="url(#clip060)" style="stroke:#ffa500; stroke-linecap:round; stroke-linejoin:round; stroke-width:8; stroke-opacity:1; fill:none" points="1451.64,196.379 1594.81,196.379 "/>
<path clip-path="url(#clip060)" d="M1618.67 179.099 L1623.35 179.099 L1623.35 209.724 L1640.18 209.724 L1640.18 213.659 L1618.67 213.659 L1618.67 179.099 Z" fill="#000000" fill-rule="nonzero" fill-opacity="1" /><path clip-path="url(#clip060)" d="M1646.31 209.724 L1653.95 209.724 L1653.95 183.358 L1645.64 185.025 L1645.64 180.766 L1653.91 179.099 L1658.58 179.099 L1658.58 209.724 L1666.22 209.724 L1666.22 213.659 L1646.31 213.659 L1646.31 209.724 Z" fill="#000000" fill-rule="nonzero" fill-opacity="1" /><path clip-path="url(#clip060)" d="M1690.69 192.132 L1720.36 192.132 L1720.36 196.02 L1690.69 196.02 L1690.69 192.132 M1690.69 201.576 L1720.36 201.576 L1720.36 205.511 L1690.69 205.511 L1690.69 201.576 Z" fill="#000000" fill-rule="nonzero" fill-opacity="1" /><path clip-path="url(#clip060)" d="M1746.34 209.724 L1753.97 209.724 L1753.97 183.358 L1745.66 185.025 L1745.66 180.766 L1753.93 179.099 L1758.6 179.099 L1758.6 209.724 L1766.24 209.724 L1766.24 213.659 L1746.34 213.659 L1746.34 209.724 Z" fill="#000000" fill-rule="nonzero" fill-opacity="1" /><path clip-path="url(#clip060)" d="M1785.69 182.178 Q1782.08 182.178 1780.25 185.743 Q1778.44 189.284 1778.44 196.414 Q1778.44 203.52 1780.25 207.085 Q1782.08 210.627 1785.69 210.627 Q1789.32 210.627 1791.13 207.085 Q1792.96 203.52 1792.96 196.414 Q1792.96 189.284 1791.13 185.743 Q1789.32 182.178 1785.69 182.178 M1785.69 178.474 Q1791.5 178.474 1794.55 183.081 Q1797.63 187.664 1797.63 196.414 Q1797.63 205.141 1794.55 209.747 Q1791.5 214.33 1785.69 214.33 Q1779.88 214.33 1776.8 209.747 Q1773.74 205.141 1773.74 196.414 Q1773.74 187.664 1776.8 183.081 Q1779.88 178.474 1785.69 178.474 Z" fill="#000000" fill-rule="nonzero" fill-opacity="1" /><path clip-path="url(#clip060)" d="M1809.88 209.724 L1826.2 209.724 L1826.2 213.659 L1804.25 213.659 L1804.25 209.724 Q1806.91 206.969 1811.5 202.34 Q1816.1 197.687 1817.28 196.344 Q1819.53 193.821 1820.41 192.085 Q1821.31 190.326 1821.31 188.636 Q1821.31 185.882 1819.37 184.145 Q1817.45 182.409 1814.34 182.409 Q1812.15 182.409 1809.69 183.173 Q1807.26 183.937 1804.48 185.488 L1804.48 180.766 Q1807.31 179.632 1809.76 179.053 Q1812.22 178.474 1814.25 178.474 Q1819.62 178.474 1822.82 181.159 Q1826.01 183.845 1826.01 188.335 Q1826.01 190.465 1825.2 192.386 Q1824.41 194.284 1822.31 196.877 Q1821.73 197.548 1818.63 200.766 Q1815.53 203.96 1809.88 209.724 Z" fill="#000000" fill-rule="nonzero" fill-opacity="1" /><path clip-path="url(#clip060)" d="M1848.86 183.173 L1837.05 201.622 L1848.86 201.622 L1848.86 183.173 M1847.63 179.099 L1853.51 179.099 L1853.51 201.622 L1858.44 201.622 L1858.44 205.511 L1853.51 205.511 L1853.51 213.659 L1848.86 213.659 L1848.86 205.511 L1833.26 205.511 L1833.26 200.997 L1847.63 179.099 Z" fill="#000000" fill-rule="nonzero" fill-opacity="1" /><path clip-path="url(#clip060)" d="M1890.87 177.687 Q1887.77 183.011 1886.27 188.22 Q1884.76 193.428 1884.76 198.775 Q1884.76 204.122 1886.27 209.377 Q1887.79 214.608 1890.87 219.909 L1887.17 219.909 Q1883.7 214.469 1881.96 209.215 Q1880.25 203.96 1880.25 198.775 Q1880.25 193.613 1881.96 188.382 Q1883.67 183.15 1887.17 177.687 L1890.87 177.687 Z" fill="#000000" fill-rule="nonzero" fill-opacity="1" /><path clip-path="url(#clip060)" d="M1913.9 195.025 Q1917.26 195.743 1919.14 198.011 Q1921.03 200.28 1921.03 203.613 Q1921.03 208.729 1917.52 211.53 Q1914 214.33 1907.52 214.33 Q1905.34 214.33 1903.02 213.891 Q1900.73 213.474 1898.28 212.618 L1898.28 208.104 Q1900.22 209.238 1902.54 209.817 Q1904.85 210.395 1907.38 210.395 Q1911.77 210.395 1914.07 208.659 Q1916.38 206.923 1916.38 203.613 Q1916.38 200.557 1914.23 198.844 Q1912.1 197.108 1908.28 197.108 L1904.25 197.108 L1904.25 193.266 L1908.46 193.266 Q1911.91 193.266 1913.74 191.9 Q1915.57 190.511 1915.57 187.919 Q1915.57 185.257 1913.67 183.845 Q1911.8 182.409 1908.28 182.409 Q1906.36 182.409 1904.16 182.826 Q1901.96 183.243 1899.32 184.122 L1899.32 179.956 Q1901.98 179.215 1904.3 178.845 Q1906.64 178.474 1908.7 178.474 Q1914.02 178.474 1917.12 180.905 Q1920.22 183.312 1920.22 187.432 Q1920.22 190.303 1918.58 192.294 Q1916.94 194.261 1913.9 195.025 Z" fill="#000000" fill-rule="nonzero" fill-opacity="1" /><path clip-path="url(#clip060)" d="M1933.93 209.724 L1950.25 209.724 L1950.25 213.659 L1928.3 213.659 L1928.3 209.724 Q1930.96 206.969 1935.55 202.34 Q1940.15 197.687 1941.33 196.344 Q1943.58 193.821 1944.46 192.085 Q1945.36 190.326 1945.36 188.636 Q1945.36 185.882 1943.42 184.145 Q1941.5 182.409 1938.4 182.409 Q1936.2 182.409 1933.74 183.173 Q1931.31 183.937 1928.53 185.488 L1928.53 180.766 Q1931.36 179.632 1933.81 179.053 Q1936.27 178.474 1938.3 178.474 Q1943.67 178.474 1946.87 181.159 Q1950.06 183.845 1950.06 188.335 Q1950.06 190.465 1949.25 192.386 Q1948.46 194.284 1946.36 196.877 Q1945.78 197.548 1942.68 200.766 Q1939.58 203.96 1933.93 209.724 Z" fill="#000000" fill-rule="nonzero" fill-opacity="1" /><path clip-path="url(#clip060)" d="M1960.06 207.78 L1964.95 207.78 L1964.95 213.659 L1960.06 213.659 L1960.06 207.78 Z" fill="#000000" fill-rule="nonzero" fill-opacity="1" /><path clip-path="url(#clip060)" d="M1985.13 182.178 Q1981.52 182.178 1979.69 185.743 Q1977.89 189.284 1977.89 196.414 Q1977.89 203.52 1979.69 207.085 Q1981.52 210.627 1985.13 210.627 Q1988.77 210.627 1990.57 207.085 Q1992.4 203.52 1992.4 196.414 Q1992.4 189.284 1990.57 185.743 Q1988.77 182.178 1985.13 182.178 M1985.13 178.474 Q1990.94 178.474 1994 183.081 Q1997.08 187.664 1997.08 196.414 Q1997.08 205.141 1994 209.747 Q1990.94 214.33 1985.13 214.33 Q1979.32 214.33 1976.24 209.747 Q1973.19 205.141 1973.19 196.414 Q1973.19 187.664 1976.24 183.081 Q1979.32 178.474 1985.13 178.474 Z" fill="#000000" fill-rule="nonzero" fill-opacity="1" /><path clip-path="url(#clip060)" d="M2019.95 179.099 L2024.62 179.099 L2024.62 193.706 L2040.13 179.099 L2046.15 179.099 L2029 195.21 L2047.38 213.659 L2041.22 213.659 L2024.62 197.016 L2024.62 213.659 L2019.95 213.659 L2019.95 179.099 Z" fill="#000000" fill-rule="nonzero" fill-opacity="1" /><path clip-path="url(#clip060)" d="M2050.85 187.733 L2055.11 187.733 L2055.11 213.659 L2050.85 213.659 L2050.85 187.733 M2050.85 177.641 L2055.11 177.641 L2055.11 183.034 L2050.85 183.034 L2050.85 177.641 Z" fill="#000000" fill-rule="nonzero" fill-opacity="1" /><path clip-path="url(#clip060)" d="M2068.88 197.155 L2068.88 209.817 L2076.38 209.817 Q2080.15 209.817 2081.96 208.266 Q2083.79 206.692 2083.79 203.474 Q2083.79 200.233 2081.96 198.706 Q2080.15 197.155 2076.38 197.155 L2068.88 197.155 M2068.88 182.942 L2068.88 193.358 L2075.8 193.358 Q2079.23 193.358 2080.89 192.085 Q2082.58 190.789 2082.58 188.15 Q2082.58 185.534 2080.89 184.238 Q2079.23 182.942 2075.8 182.942 L2068.88 182.942 M2064.2 179.099 L2076.15 179.099 Q2081.5 179.099 2084.39 181.321 Q2087.28 183.544 2087.28 187.641 Q2087.28 190.812 2085.8 192.687 Q2084.32 194.562 2081.45 195.025 Q2084.9 195.766 2086.8 198.127 Q2088.72 200.465 2088.72 203.983 Q2088.72 208.613 2085.57 211.136 Q2082.42 213.659 2076.61 213.659 L2064.2 213.659 L2064.2 179.099 Z" fill="#000000" fill-rule="nonzero" fill-opacity="1" /><path clip-path="url(#clip060)" d="M2095.87 177.687 L2099.57 177.687 Q2103.05 183.15 2104.76 188.382 Q2106.5 193.613 2106.5 198.775 Q2106.5 203.96 2104.76 209.215 Q2103.05 214.469 2099.57 219.909 L2095.87 219.909 Q2098.95 214.608 2100.45 209.377 Q2101.98 204.122 2101.98 198.775 Q2101.98 193.428 2100.45 188.22 Q2098.95 183.011 2095.87 177.687 Z" fill="#000000" fill-rule="nonzero" fill-opacity="1" /><polyline clip-path="url(#clip060)" style="stroke:#ff0000; stroke-linecap:round; stroke-linejoin:round; stroke-width:8; stroke-opacity:1; fill:none" points="1451.64,248.219 1594.81,248.219 "/>
<path clip-path="url(#clip060)" d="M1618.67 230.939 L1623.35 230.939 L1623.35 261.564 L1640.18 261.564 L1640.18 265.499 L1618.67 265.499 L1618.67 230.939 Z" fill="#000000" fill-rule="nonzero" fill-opacity="1" /><path clip-path="url(#clip060)" d="M1649.53 261.564 L1665.85 261.564 L1665.85 265.499 L1643.91 265.499 L1643.91 261.564 Q1646.57 258.809 1651.15 254.18 Q1655.76 249.527 1656.94 248.184 Q1659.18 245.661 1660.06 243.925 Q1660.97 242.166 1660.97 240.476 Q1660.97 237.722 1659.02 235.985 Q1657.1 234.249 1654 234.249 Q1651.8 234.249 1649.35 235.013 Q1646.92 235.777 1644.14 237.328 L1644.14 232.606 Q1646.96 231.472 1649.42 230.893 Q1651.87 230.314 1653.91 230.314 Q1659.28 230.314 1662.47 232.999 Q1665.67 235.685 1665.67 240.175 Q1665.67 242.305 1664.85 244.226 Q1664.07 246.124 1661.96 248.717 Q1661.38 249.388 1658.28 252.606 Q1655.18 255.8 1649.53 261.564 Z" fill="#000000" fill-rule="nonzero" fill-opacity="1" /><path clip-path="url(#clip060)" d="M1690.69 243.972 L1720.36 243.972 L1720.36 247.86 L1690.69 247.86 L1690.69 243.972 M1690.69 253.416 L1720.36 253.416 L1720.36 257.351 L1690.69 257.351 L1690.69 253.416 Z" fill="#000000" fill-rule="nonzero" fill-opacity="1" /><path clip-path="url(#clip060)" d="M1746.34 261.564 L1753.97 261.564 L1753.97 235.198 L1745.66 236.865 L1745.66 232.606 L1753.93 230.939 L1758.6 230.939 L1758.6 261.564 L1766.24 261.564 L1766.24 265.499 L1746.34 265.499 L1746.34 261.564 Z" fill="#000000" fill-rule="nonzero" fill-opacity="1" /><path clip-path="url(#clip060)" d="M1786.27 246.356 Q1783.12 246.356 1781.27 248.509 Q1779.44 250.661 1779.44 254.411 Q1779.44 258.138 1781.27 260.314 Q1783.12 262.467 1786.27 262.467 Q1789.41 262.467 1791.24 260.314 Q1793.09 258.138 1793.09 254.411 Q1793.09 250.661 1791.24 248.509 Q1789.41 246.356 1786.27 246.356 M1795.55 231.703 L1795.55 235.962 Q1793.79 235.129 1791.98 234.689 Q1790.2 234.249 1788.44 234.249 Q1783.81 234.249 1781.36 237.374 Q1778.93 240.499 1778.58 246.819 Q1779.95 244.805 1782.01 243.74 Q1784.07 242.652 1786.54 242.652 Q1791.75 242.652 1794.76 245.823 Q1797.79 248.971 1797.79 254.411 Q1797.79 259.735 1794.65 262.953 Q1791.5 266.17 1786.27 266.17 Q1780.27 266.17 1777.1 261.587 Q1773.93 256.981 1773.93 248.254 Q1773.93 240.06 1777.82 235.198 Q1781.71 230.314 1788.26 230.314 Q1790.02 230.314 1791.8 230.661 Q1793.6 231.009 1795.55 231.703 Z" fill="#000000" fill-rule="nonzero" fill-opacity="1" /><path clip-path="url(#clip060)" d="M1820.02 246.865 Q1823.37 247.583 1825.25 249.851 Q1827.15 252.12 1827.15 255.453 Q1827.15 260.569 1823.63 263.37 Q1820.11 266.17 1813.63 266.17 Q1811.45 266.17 1809.14 265.731 Q1806.84 265.314 1804.39 264.458 L1804.39 259.944 Q1806.34 261.078 1808.65 261.657 Q1810.97 262.235 1813.49 262.235 Q1817.89 262.235 1820.18 260.499 Q1822.49 258.763 1822.49 255.453 Q1822.49 252.397 1820.34 250.684 Q1818.21 248.948 1814.39 248.948 L1810.36 248.948 L1810.36 245.106 L1814.58 245.106 Q1818.03 245.106 1819.85 243.74 Q1821.68 242.351 1821.68 239.759 Q1821.68 237.097 1819.78 235.685 Q1817.91 234.249 1814.39 234.249 Q1812.47 234.249 1810.27 234.666 Q1808.07 235.083 1805.43 235.962 L1805.43 231.796 Q1808.09 231.055 1810.41 230.685 Q1812.75 230.314 1814.81 230.314 Q1820.13 230.314 1823.23 232.745 Q1826.34 235.152 1826.34 239.272 Q1826.34 242.143 1824.69 244.134 Q1823.05 246.101 1820.02 246.865 Z" fill="#000000" fill-rule="nonzero" fill-opacity="1" /><path clip-path="url(#clip060)" d="M1846.01 249.087 Q1842.68 249.087 1840.76 250.87 Q1838.86 252.652 1838.86 255.777 Q1838.86 258.902 1840.76 260.684 Q1842.68 262.467 1846.01 262.467 Q1849.34 262.467 1851.27 260.684 Q1853.19 258.879 1853.19 255.777 Q1853.19 252.652 1851.27 250.87 Q1849.37 249.087 1846.01 249.087 M1841.34 247.097 Q1838.33 246.356 1836.64 244.296 Q1834.97 242.235 1834.97 239.272 Q1834.97 235.129 1837.91 232.722 Q1840.87 230.314 1846.01 230.314 Q1851.17 230.314 1854.11 232.722 Q1857.05 235.129 1857.05 239.272 Q1857.05 242.235 1855.36 244.296 Q1853.7 246.356 1850.71 247.097 Q1854.09 247.884 1855.97 250.175 Q1857.86 252.467 1857.86 255.777 Q1857.86 260.8 1854.78 263.485 Q1851.73 266.17 1846.01 266.17 Q1840.29 266.17 1837.22 263.485 Q1834.16 260.8 1834.16 255.777 Q1834.16 252.467 1836.06 250.175 Q1837.96 247.884 1841.34 247.097 M1839.62 239.712 Q1839.62 242.397 1841.29 243.902 Q1842.98 245.407 1846.01 245.407 Q1849.02 245.407 1850.71 243.902 Q1852.42 242.397 1852.42 239.712 Q1852.42 237.027 1850.71 235.522 Q1849.02 234.018 1846.01 234.018 Q1842.98 234.018 1841.29 235.522 Q1839.62 237.027 1839.62 239.712 Z" fill="#000000" fill-rule="nonzero" fill-opacity="1" /><path clip-path="url(#clip060)" d="M1879.02 235.013 L1867.21 253.462 L1879.02 253.462 L1879.02 235.013 M1877.79 230.939 L1883.67 230.939 L1883.67 253.462 L1888.6 253.462 L1888.6 257.351 L1883.67 257.351 L1883.67 265.499 L1879.02 265.499 L1879.02 257.351 L1863.42 257.351 L1863.42 252.837 L1877.79 230.939 Z" fill="#000000" fill-rule="nonzero" fill-opacity="1" /><path clip-path="url(#clip060)" d="M1921.03 229.527 Q1917.93 234.851 1916.43 240.06 Q1914.92 245.268 1914.92 250.615 Q1914.92 255.962 1916.43 261.217 Q1917.96 266.448 1921.03 271.749 L1917.33 271.749 Q1913.86 266.309 1912.12 261.055 Q1910.41 255.8 1910.41 250.615 Q1910.41 245.453 1912.12 240.222 Q1913.84 234.99 1917.33 229.527 L1921.03 229.527 Z" fill="#000000" fill-rule="nonzero" fill-opacity="1" /><path clip-path="url(#clip060)" d="M1929.95 230.939 L1948.3 230.939 L1948.3 234.874 L1934.23 234.874 L1934.23 243.347 Q1935.25 242.999 1936.27 242.837 Q1937.28 242.652 1938.3 242.652 Q1944.09 242.652 1947.47 245.823 Q1950.85 248.995 1950.85 254.411 Q1950.85 259.99 1947.38 263.092 Q1943.9 266.17 1937.58 266.17 Q1935.41 266.17 1933.14 265.8 Q1930.9 265.43 1928.49 264.689 L1928.49 259.99 Q1930.57 261.124 1932.79 261.68 Q1935.02 262.235 1937.49 262.235 Q1941.5 262.235 1943.83 260.129 Q1946.17 258.022 1946.17 254.411 Q1946.17 250.8 1943.83 248.694 Q1941.5 246.587 1937.49 246.587 Q1935.62 246.587 1933.74 247.004 Q1931.89 247.421 1929.95 248.3 L1929.95 230.939 Z" fill="#000000" fill-rule="nonzero" fill-opacity="1" /><path clip-path="url(#clip060)" d="M1960.87 261.564 L1968.51 261.564 L1968.51 235.198 L1960.2 236.865 L1960.2 232.606 L1968.46 230.939 L1973.14 230.939 L1973.14 261.564 L1980.78 261.564 L1980.78 265.499 L1960.87 265.499 L1960.87 261.564 Z" fill="#000000" fill-rule="nonzero" fill-opacity="1" /><path clip-path="url(#clip060)" d="M1994.25 261.564 L2010.57 261.564 L2010.57 265.499 L1988.63 265.499 L1988.63 261.564 Q1991.29 258.809 1995.87 254.18 Q2000.48 249.527 2001.66 248.184 Q2003.9 245.661 2004.78 243.925 Q2005.69 242.166 2005.69 240.476 Q2005.69 237.722 2003.74 235.985 Q2001.82 234.249 1998.72 234.249 Q1996.52 234.249 1994.07 235.013 Q1991.64 235.777 1988.86 237.328 L1988.86 232.606 Q1991.68 231.472 1994.14 230.893 Q1996.59 230.314 1998.63 230.314 Q2004 230.314 2007.19 232.999 Q2010.39 235.685 2010.39 240.175 Q2010.39 242.305 2009.58 244.226 Q2008.79 246.124 2006.68 248.717 Q2006.1 249.388 2003 252.606 Q1999.9 255.8 1994.25 261.564 Z" fill="#000000" fill-rule="nonzero" fill-opacity="1" /><path clip-path="url(#clip060)" d="M2020.39 259.62 L2025.27 259.62 L2025.27 265.499 L2020.39 265.499 L2020.39 259.62 Z" fill="#000000" fill-rule="nonzero" fill-opacity="1" /><path clip-path="url(#clip060)" d="M2045.45 234.018 Q2041.84 234.018 2040.01 237.583 Q2038.21 241.124 2038.21 248.254 Q2038.21 255.36 2040.01 258.925 Q2041.84 262.467 2045.45 262.467 Q2049.09 262.467 2050.89 258.925 Q2052.72 255.36 2052.72 248.254 Q2052.72 241.124 2050.89 237.583 Q2049.09 234.018 2045.45 234.018 M2045.45 230.314 Q2051.26 230.314 2054.32 234.921 Q2057.4 239.504 2057.4 248.254 Q2057.4 256.981 2054.32 261.587 Q2051.26 266.17 2045.45 266.17 Q2039.64 266.17 2036.57 261.587 Q2033.51 256.981 2033.51 248.254 Q2033.51 239.504 2036.57 234.921 Q2039.64 230.314 2045.45 230.314 Z" fill="#000000" fill-rule="nonzero" fill-opacity="1" /><path clip-path="url(#clip060)" d="M2080.27 230.939 L2084.95 230.939 L2084.95 245.546 L2100.45 230.939 L2106.47 230.939 L2089.32 247.05 L2107.7 265.499 L2101.54 265.499 L2084.95 248.856 L2084.95 265.499 L2080.27 265.499 L2080.27 230.939 Z" fill="#000000" fill-rule="nonzero" fill-opacity="1" /><path clip-path="url(#clip060)" d="M2111.17 239.573 L2115.43 239.573 L2115.43 265.499 L2111.17 265.499 L2111.17 239.573 M2111.17 229.481 L2115.43 229.481 L2115.43 234.874 L2111.17 234.874 L2111.17 229.481 Z" fill="#000000" fill-rule="nonzero" fill-opacity="1" /><path clip-path="url(#clip060)" d="M2129.2 248.995 L2129.2 261.657 L2136.7 261.657 Q2140.48 261.657 2142.28 260.106 Q2144.11 258.532 2144.11 255.314 Q2144.11 252.073 2142.28 250.546 Q2140.48 248.995 2136.7 248.995 L2129.2 248.995 M2129.2 234.782 L2129.2 245.198 L2136.13 245.198 Q2139.55 245.198 2141.22 243.925 Q2142.91 242.629 2142.91 239.99 Q2142.91 237.374 2141.22 236.078 Q2139.55 234.782 2136.13 234.782 L2129.2 234.782 M2124.53 230.939 L2136.47 230.939 Q2141.82 230.939 2144.71 233.161 Q2147.61 235.384 2147.61 239.481 Q2147.61 242.652 2146.13 244.527 Q2144.64 246.402 2141.77 246.865 Q2145.22 247.606 2147.12 249.967 Q2149.04 252.305 2149.04 255.823 Q2149.04 260.453 2145.89 262.976 Q2142.75 265.499 2136.94 265.499 L2124.53 265.499 L2124.53 230.939 Z" fill="#000000" fill-rule="nonzero" fill-opacity="1" /><path clip-path="url(#clip060)" d="M2156.19 229.527 L2159.9 229.527 Q2163.37 234.99 2165.08 240.222 Q2166.82 245.453 2166.82 250.615 Q2166.82 255.8 2165.08 261.055 Q2163.37 266.309 2159.9 271.749 L2156.19 271.749 Q2159.27 266.448 2160.78 261.217 Q2162.31 255.962 2162.31 250.615 Q2162.31 245.268 2160.78 240.06 Q2159.27 234.851 2156.19 229.527 Z" fill="#000000" fill-rule="nonzero" fill-opacity="1" /><polyline clip-path="url(#clip060)" style="stroke:#800080; stroke-linecap:round; stroke-linejoin:round; stroke-width:8; stroke-opacity:1; fill:none" points="1451.64,300.059 1594.81,300.059 "/>
<path clip-path="url(#clip060)" d="M1618.67 282.779 L1623.35 282.779 L1623.35 313.404 L1640.18 313.404 L1640.18 317.339 L1618.67 317.339 L1618.67 282.779 Z" fill="#000000" fill-rule="nonzero" fill-opacity="1" /><path clip-path="url(#clip060)" d="M1659.67 298.705 Q1663.03 299.423 1664.9 301.691 Q1666.8 303.96 1666.8 307.293 Q1666.8 312.409 1663.28 315.21 Q1659.76 318.01 1653.28 318.01 Q1651.11 318.01 1648.79 317.571 Q1646.5 317.154 1644.04 316.298 L1644.04 311.784 Q1645.99 312.918 1648.3 313.497 Q1650.62 314.075 1653.14 314.075 Q1657.54 314.075 1659.83 312.339 Q1662.15 310.603 1662.15 307.293 Q1662.15 304.237 1659.99 302.524 Q1657.86 300.788 1654.04 300.788 L1650.02 300.788 L1650.02 296.946 L1654.23 296.946 Q1657.68 296.946 1659.51 295.58 Q1661.34 294.191 1661.34 291.599 Q1661.34 288.937 1659.44 287.525 Q1657.56 286.089 1654.04 286.089 Q1652.12 286.089 1649.92 286.506 Q1647.73 286.923 1645.09 287.802 L1645.09 283.636 Q1647.75 282.895 1650.06 282.525 Q1652.4 282.154 1654.46 282.154 Q1659.79 282.154 1662.89 284.585 Q1665.99 286.992 1665.99 291.112 Q1665.99 293.983 1664.35 295.974 Q1662.7 297.941 1659.67 298.705 Z" fill="#000000" fill-rule="nonzero" fill-opacity="1" /><path clip-path="url(#clip060)" d="M1690.69 295.812 L1720.36 295.812 L1720.36 299.7 L1690.69 299.7 L1690.69 295.812 M1690.69 305.256 L1720.36 305.256 L1720.36 309.191 L1690.69 309.191 L1690.69 305.256 Z" fill="#000000" fill-rule="nonzero" fill-opacity="1" /><path clip-path="url(#clip060)" d="M1745.57 282.779 L1763.93 282.779 L1763.93 286.714 L1749.85 286.714 L1749.85 295.187 Q1750.87 294.839 1751.89 294.677 Q1752.91 294.492 1753.93 294.492 Q1759.72 294.492 1763.1 297.663 Q1766.47 300.835 1766.47 306.251 Q1766.47 311.83 1763 314.932 Q1759.53 318.01 1753.21 318.01 Q1751.04 318.01 1748.77 317.64 Q1746.52 317.27 1744.11 316.529 L1744.11 311.83 Q1746.2 312.964 1748.42 313.52 Q1750.64 314.075 1753.12 314.075 Q1757.12 314.075 1759.46 311.969 Q1761.8 309.862 1761.8 306.251 Q1761.8 302.64 1759.46 300.534 Q1757.12 298.427 1753.12 298.427 Q1751.24 298.427 1749.37 298.844 Q1747.52 299.261 1745.57 300.14 L1745.57 282.779 Z" fill="#000000" fill-rule="nonzero" fill-opacity="1" /><path clip-path="url(#clip060)" d="M1779.72 313.404 L1796.03 313.404 L1796.03 317.339 L1774.09 317.339 L1774.09 313.404 Q1776.75 310.649 1781.34 306.02 Q1785.94 301.367 1787.12 300.024 Q1789.37 297.501 1790.25 295.765 Q1791.15 294.006 1791.15 292.316 Q1791.15 289.562 1789.21 287.825 Q1787.28 286.089 1784.18 286.089 Q1781.98 286.089 1779.53 286.853 Q1777.1 287.617 1774.32 289.168 L1774.32 284.446 Q1777.15 283.312 1779.6 282.733 Q1782.05 282.154 1784.09 282.154 Q1789.46 282.154 1792.66 284.839 Q1795.85 287.525 1795.85 292.015 Q1795.85 294.145 1795.04 296.066 Q1794.25 297.964 1792.15 300.557 Q1791.57 301.228 1788.47 304.446 Q1785.36 307.64 1779.72 313.404 Z" fill="#000000" fill-rule="nonzero" fill-opacity="1" /><path clip-path="url(#clip060)" d="M1818.7 286.853 L1806.89 305.302 L1818.7 305.302 L1818.7 286.853 M1817.47 282.779 L1823.35 282.779 L1823.35 305.302 L1828.28 305.302 L1828.28 309.191 L1823.35 309.191 L1823.35 317.339 L1818.7 317.339 L1818.7 309.191 L1803.09 309.191 L1803.09 304.677 L1817.47 282.779 Z" fill="#000000" fill-rule="nonzero" fill-opacity="1" /><path clip-path="url(#clip060)" d="M1840.04 313.404 L1856.36 313.404 L1856.36 317.339 L1834.41 317.339 L1834.41 313.404 Q1837.08 310.649 1841.66 306.02 Q1846.27 301.367 1847.45 300.024 Q1849.69 297.501 1850.57 295.765 Q1851.47 294.006 1851.47 292.316 Q1851.47 289.562 1849.53 287.825 Q1847.61 286.089 1844.51 286.089 Q1842.31 286.089 1839.85 286.853 Q1837.42 287.617 1834.65 289.168 L1834.65 284.446 Q1837.47 283.312 1839.92 282.733 Q1842.38 282.154 1844.41 282.154 Q1849.78 282.154 1852.98 284.839 Q1856.17 287.525 1856.17 292.015 Q1856.17 294.145 1855.36 296.066 Q1854.58 297.964 1852.47 300.557 Q1851.89 301.228 1848.79 304.446 Q1845.69 307.64 1840.04 313.404 Z" fill="#000000" fill-rule="nonzero" fill-opacity="1" /><path clip-path="url(#clip060)" d="M1876.17 300.927 Q1872.84 300.927 1870.92 302.71 Q1869.02 304.492 1869.02 307.617 Q1869.02 310.742 1870.92 312.524 Q1872.84 314.307 1876.17 314.307 Q1879.51 314.307 1881.43 312.524 Q1883.35 310.719 1883.35 307.617 Q1883.35 304.492 1881.43 302.71 Q1879.53 300.927 1876.17 300.927 M1871.5 298.937 Q1868.49 298.196 1866.8 296.136 Q1865.13 294.075 1865.13 291.112 Q1865.13 286.969 1868.07 284.562 Q1871.03 282.154 1876.17 282.154 Q1881.34 282.154 1884.28 284.562 Q1887.21 286.969 1887.21 291.112 Q1887.21 294.075 1885.53 296.136 Q1883.86 298.196 1880.87 298.937 Q1884.25 299.724 1886.13 302.015 Q1888.03 304.307 1888.03 307.617 Q1888.03 312.64 1884.95 315.325 Q1881.89 318.01 1876.17 318.01 Q1870.46 318.01 1867.38 315.325 Q1864.32 312.64 1864.32 307.617 Q1864.32 304.307 1866.22 302.015 Q1868.12 299.724 1871.5 298.937 M1869.78 291.552 Q1869.78 294.237 1871.45 295.742 Q1873.14 297.247 1876.17 297.247 Q1879.18 297.247 1880.87 295.742 Q1882.59 294.237 1882.59 291.552 Q1882.59 288.867 1880.87 287.362 Q1879.18 285.858 1876.17 285.858 Q1873.14 285.858 1871.45 287.362 Q1869.78 288.867 1869.78 291.552 Z" fill="#000000" fill-rule="nonzero" fill-opacity="1" /><path clip-path="url(#clip060)" d="M1906.34 300.927 Q1903 300.927 1901.08 302.71 Q1899.18 304.492 1899.18 307.617 Q1899.18 310.742 1901.08 312.524 Q1903 314.307 1906.34 314.307 Q1909.67 314.307 1911.59 312.524 Q1913.51 310.719 1913.51 307.617 Q1913.51 304.492 1911.59 302.71 Q1909.69 300.927 1906.34 300.927 M1901.66 298.937 Q1898.65 298.196 1896.96 296.136 Q1895.29 294.075 1895.29 291.112 Q1895.29 286.969 1898.23 284.562 Q1901.2 282.154 1906.34 282.154 Q1911.5 282.154 1914.44 284.562 Q1917.38 286.969 1917.38 291.112 Q1917.38 294.075 1915.69 296.136 Q1914.02 298.196 1911.03 298.937 Q1914.41 299.724 1916.29 302.015 Q1918.19 304.307 1918.19 307.617 Q1918.19 312.64 1915.11 315.325 Q1912.05 318.01 1906.34 318.01 Q1900.62 318.01 1897.54 315.325 Q1894.48 312.64 1894.48 307.617 Q1894.48 304.307 1896.38 302.015 Q1898.28 299.724 1901.66 298.937 M1899.95 291.552 Q1899.95 294.237 1901.61 295.742 Q1903.3 297.247 1906.34 297.247 Q1909.34 297.247 1911.03 295.742 Q1912.75 294.237 1912.75 291.552 Q1912.75 288.867 1911.03 287.362 Q1909.34 285.858 1906.34 285.858 Q1903.3 285.858 1901.61 287.362 Q1899.95 288.867 1899.95 291.552 Z" fill="#000000" fill-rule="nonzero" fill-opacity="1" /><path clip-path="url(#clip060)" d="M1951.2 281.367 Q1948.09 286.691 1946.59 291.9 Q1945.08 297.108 1945.08 302.455 Q1945.08 307.802 1946.59 313.057 Q1948.12 318.288 1951.2 323.589 L1947.49 323.589 Q1944.02 318.149 1942.28 312.895 Q1940.57 307.64 1940.57 302.455 Q1940.57 297.293 1942.28 292.062 Q1944 286.83 1947.49 281.367 L1951.2 281.367 Z" fill="#000000" fill-rule="nonzero" fill-opacity="1" /><path clip-path="url(#clip060)" d="M1960.87 313.404 L1968.51 313.404 L1968.51 287.038 L1960.2 288.705 L1960.2 284.446 L1968.46 282.779 L1973.14 282.779 L1973.14 313.404 L1980.78 313.404 L1980.78 317.339 L1960.87 317.339 L1960.87 313.404 Z" fill="#000000" fill-rule="nonzero" fill-opacity="1" /><path clip-path="url(#clip060)" d="M2000.8 298.196 Q1997.65 298.196 1995.8 300.349 Q1993.97 302.501 1993.97 306.251 Q1993.97 309.978 1995.8 312.154 Q1997.65 314.307 2000.8 314.307 Q2003.95 314.307 2005.78 312.154 Q2007.63 309.978 2007.63 306.251 Q2007.63 302.501 2005.78 300.349 Q2003.95 298.196 2000.8 298.196 M2010.08 283.543 L2010.08 287.802 Q2008.33 286.969 2006.52 286.529 Q2004.74 286.089 2002.98 286.089 Q1998.35 286.089 1995.89 289.214 Q1993.46 292.339 1993.12 298.659 Q1994.48 296.645 1996.54 295.58 Q1998.6 294.492 2001.08 294.492 Q2006.29 294.492 2009.3 297.663 Q2012.33 300.811 2012.33 306.251 Q2012.33 311.575 2009.18 314.793 Q2006.03 318.01 2000.8 318.01 Q1994.81 318.01 1991.64 313.427 Q1988.46 308.821 1988.46 300.094 Q1988.46 291.9 1992.35 287.038 Q1996.24 282.154 2002.79 282.154 Q2004.55 282.154 2006.33 282.501 Q2008.14 282.849 2010.08 283.543 Z" fill="#000000" fill-rule="nonzero" fill-opacity="1" /><path clip-path="url(#clip060)" d="M2034.55 298.705 Q2037.91 299.423 2039.78 301.691 Q2041.68 303.96 2041.68 307.293 Q2041.68 312.409 2038.16 315.21 Q2034.64 318.01 2028.16 318.01 Q2025.99 318.01 2023.67 317.571 Q2021.38 317.154 2018.93 316.298 L2018.93 311.784 Q2020.87 312.918 2023.19 313.497 Q2025.5 314.075 2028.02 314.075 Q2032.42 314.075 2034.71 312.339 Q2037.03 310.603 2037.03 307.293 Q2037.03 304.237 2034.88 302.524 Q2032.75 300.788 2028.93 300.788 L2024.9 300.788 L2024.9 296.946 L2029.11 296.946 Q2032.56 296.946 2034.39 295.58 Q2036.22 294.191 2036.22 291.599 Q2036.22 288.937 2034.32 287.525 Q2032.45 286.089 2028.93 286.089 Q2027.01 286.089 2024.81 286.506 Q2022.61 286.923 2019.97 287.802 L2019.97 283.636 Q2022.63 282.895 2024.95 282.525 Q2027.28 282.154 2029.34 282.154 Q2034.67 282.154 2037.77 284.585 Q2040.87 286.992 2040.87 291.112 Q2040.87 293.983 2039.23 295.974 Q2037.58 297.941 2034.55 298.705 Z" fill="#000000" fill-rule="nonzero" fill-opacity="1" /><path clip-path="url(#clip060)" d="M2060.55 300.927 Q2057.21 300.927 2055.29 302.71 Q2053.39 304.492 2053.39 307.617 Q2053.39 310.742 2055.29 312.524 Q2057.21 314.307 2060.55 314.307 Q2063.88 314.307 2065.8 312.524 Q2067.72 310.719 2067.72 307.617 Q2067.72 304.492 2065.8 302.71 Q2063.9 300.927 2060.55 300.927 M2055.87 298.937 Q2052.86 298.196 2051.17 296.136 Q2049.51 294.075 2049.51 291.112 Q2049.51 286.969 2052.45 284.562 Q2055.41 282.154 2060.55 282.154 Q2065.71 282.154 2068.65 284.562 Q2071.59 286.969 2071.59 291.112 Q2071.59 294.075 2069.9 296.136 Q2068.23 298.196 2065.25 298.937 Q2068.63 299.724 2070.5 302.015 Q2072.4 304.307 2072.4 307.617 Q2072.4 312.64 2069.32 315.325 Q2066.26 318.01 2060.55 318.01 Q2054.83 318.01 2051.75 315.325 Q2048.7 312.64 2048.7 307.617 Q2048.7 304.307 2050.59 302.015 Q2052.49 299.724 2055.87 298.937 M2054.16 291.552 Q2054.16 294.237 2055.83 295.742 Q2057.51 297.247 2060.55 297.247 Q2063.56 297.247 2065.25 295.742 Q2066.96 294.237 2066.96 291.552 Q2066.96 288.867 2065.25 287.362 Q2063.56 285.858 2060.55 285.858 Q2057.51 285.858 2055.83 287.362 Q2054.16 288.867 2054.16 291.552 Z" fill="#000000" fill-rule="nonzero" fill-opacity="1" /><path clip-path="url(#clip060)" d="M2093.56 286.853 L2081.75 305.302 L2093.56 305.302 L2093.56 286.853 M2092.33 282.779 L2098.21 282.779 L2098.21 305.302 L2103.14 305.302 L2103.14 309.191 L2098.21 309.191 L2098.21 317.339 L2093.56 317.339 L2093.56 309.191 L2077.95 309.191 L2077.95 304.677 L2092.33 282.779 Z" fill="#000000" fill-rule="nonzero" fill-opacity="1" /><path clip-path="url(#clip060)" d="M2110.87 311.46 L2115.76 311.46 L2115.76 317.339 L2110.87 317.339 L2110.87 311.46 Z" fill="#000000" fill-rule="nonzero" fill-opacity="1" /><path clip-path="url(#clip060)" d="M2135.94 285.858 Q2132.33 285.858 2130.5 289.423 Q2128.7 292.964 2128.7 300.094 Q2128.7 307.2 2130.5 310.765 Q2132.33 314.307 2135.94 314.307 Q2139.57 314.307 2141.38 310.765 Q2143.21 307.2 2143.21 300.094 Q2143.21 292.964 2141.38 289.423 Q2139.57 285.858 2135.94 285.858 M2135.94 282.154 Q2141.75 282.154 2144.81 286.761 Q2147.88 291.344 2147.88 300.094 Q2147.88 308.821 2144.81 313.427 Q2141.75 318.01 2135.94 318.01 Q2130.13 318.01 2127.05 313.427 Q2124 308.821 2124 300.094 Q2124 291.344 2127.05 286.761 Q2130.13 282.154 2135.94 282.154 Z" fill="#000000" fill-rule="nonzero" fill-opacity="1" /><path clip-path="url(#clip060)" d="M2170.76 282.779 L2175.43 282.779 L2175.43 297.386 L2190.94 282.779 L2196.96 282.779 L2179.81 298.89 L2198.19 317.339 L2192.03 317.339 L2175.43 300.696 L2175.43 317.339 L2170.76 317.339 L2170.76 282.779 Z" fill="#000000" fill-rule="nonzero" fill-opacity="1" /><path clip-path="url(#clip060)" d="M2201.66 291.413 L2205.92 291.413 L2205.92 317.339 L2201.66 317.339 L2201.66 291.413 M2201.66 281.321 L2205.92 281.321 L2205.92 286.714 L2201.66 286.714 L2201.66 281.321 Z" fill="#000000" fill-rule="nonzero" fill-opacity="1" /><path clip-path="url(#clip060)" d="M2219.69 300.835 L2219.69 313.497 L2227.19 313.497 Q2230.96 313.497 2232.77 311.946 Q2234.6 310.372 2234.6 307.154 Q2234.6 303.913 2232.77 302.386 Q2230.96 300.835 2227.19 300.835 L2219.69 300.835 M2219.69 286.622 L2219.69 297.038 L2226.61 297.038 Q2230.04 297.038 2231.7 295.765 Q2233.39 294.469 2233.39 291.83 Q2233.39 289.214 2231.7 287.918 Q2230.04 286.622 2226.61 286.622 L2219.69 286.622 M2215.01 282.779 L2226.96 282.779 Q2232.31 282.779 2235.2 285.001 Q2238.09 287.224 2238.09 291.321 Q2238.09 294.492 2236.61 296.367 Q2235.13 298.242 2232.26 298.705 Q2235.71 299.446 2237.61 301.807 Q2239.53 304.145 2239.53 307.663 Q2239.53 312.293 2236.38 314.816 Q2233.23 317.339 2227.42 317.339 L2215.01 317.339 L2215.01 282.779 Z" fill="#000000" fill-rule="nonzero" fill-opacity="1" /><path clip-path="url(#clip060)" d="M2246.68 281.367 L2250.38 281.367 Q2253.86 286.83 2255.57 292.062 Q2257.31 297.293 2257.31 302.455 Q2257.31 307.64 2255.57 312.895 Q2253.86 318.149 2250.38 323.589 L2246.68 323.589 Q2249.76 318.288 2251.26 313.057 Q2252.79 307.802 2252.79 302.455 Q2252.79 297.108 2251.26 291.9 Q2249.76 286.691 2246.68 281.367 Z" fill="#000000" fill-rule="nonzero" fill-opacity="1" /></svg>
